<svg xmlns="http://www.w3.org/2000/svg" viewBox="0 0 42.07 26.79"><title>Asset 9</title><g id="Layer_2" data-name="Layer 2"><g id="OBJECTS"><path d="M34.35,20.49a8.07,8.07,0,0,0,2.18-1.13c2-1.57,2.79-4.46,5-5.68h0c-2.24-1.23-3-4.12-5-5.68a7.82,7.82,0,0,0-2.18-1.14,6.69,6.69,0,0,0-4.93-.2,5.41,5.41,0,0,0-2.8,3.2,9.86,9.86,0,0,0-.44,3.82,9.79,9.79,0,0,0,.44,3.81,5.4,5.4,0,0,0,2.8,3.21A6.74,6.74,0,0,0,34.35,20.49Z" style="fill:#5b26a6"/><path d="M34.49,21a8.32,8.32,0,0,0,3.31-2.16c.89-1,2.56-4.59,3.77-4.64a.52.52,0,0,0,.26-1h0v.89h0a.52.52,0,0,0-.26-1c-1.39-.05-3-3.9-4-5a8.62,8.62,0,0,0-4-2.14c-3-.76-5.84.17-7.17,3.14a12,12,0,0,0,.17,9.36c1.68,3.16,4.85,3.42,8,2.43.63-.2.36-1.2-.27-1-5.14,1.62-7.51-1.74-7.52-6.32s2.36-8.22,7.52-6.32c2.64,1,3.46,3,5.12,5,.49.58,1.39,1.79,2.23,1.82l-.26-1h0a.52.52,0,0,0,0,.89h0l.26-1c-.79,0-1.81,1.33-2.23,1.82-1.65,2-2.55,4-5.12,5C33.61,20.24,33.87,21.24,34.49,21Z" style="fill:#140022"/><path d="M32,6.74c2.54,1.92,4.49,4.7,3.84,8a9.87,9.87,0,0,1-4.22,5.81c-.25.16,0,.57.24.4,5.75-3.85,5.82-10.54.38-14.66-.24-.18-.48.22-.24.41Z" style="fill:#140022"/><path d="M39.38,14.1h0a.36.36,0,0,0,0-.71h0a.36.36,0,0,0,0,.71Z" style="fill:#140022"/><path d="M7.72,6.86A7.63,7.63,0,0,0,5.55,8c-2,1.56-2.8,4.45-5,5.68h0c2.24,1.22,3,4.11,5,5.68a7.87,7.87,0,0,0,2.17,1.13,6.76,6.76,0,0,0,4.94.21,5.39,5.39,0,0,0,2.79-3.21,9.79,9.79,0,0,0,.44-3.81,9.86,9.86,0,0,0-.44-3.82,5.4,5.4,0,0,0-2.79-3.2A6.71,6.71,0,0,0,7.72,6.86Z" style="fill:#5b26a6"/><path d="M7.58,6.37A8.44,8.44,0,0,0,4.27,8.52c-.89,1-2.55,4.6-3.76,4.64a.52.52,0,0,0-.26,1h0v-.89h0a.52.52,0,0,0,.26,1c1.38.05,3,3.9,4,5a8.67,8.67,0,0,0,4,2.15c3,.76,5.84-.18,7.16-3.14a12,12,0,0,0-.17-9.36c-1.68-3.17-4.84-3.42-8-2.43-.63.19-.36,1.19.28,1,5.13-1.63,7.5,1.74,7.52,6.32S13,21.89,7.86,20c-2.64-1-3.47-3-5.13-5-.48-.57-1.39-1.79-2.22-1.82l.26,1h0a.52.52,0,0,0,0-.89h0l-.26,1c.79,0,1.81-1.32,2.22-1.82,1.65-2,2.55-4,5.13-5C8.46,7.11,8.2,6.12,7.58,6.37Z" style="fill:#140022"/><path d="M10.09,20.62c-2.54-1.92-4.48-4.71-3.84-8a9.81,9.81,0,0,1,4.22-5.81c.25-.17,0-.58-.24-.41C4.49,10.22,4.41,16.9,9.85,21c.24.19.48-.22.24-.4Z" style="fill:#140022"/><path d="M2.69,13.26h0a.35.35,0,0,0,0,.7h0a.35.35,0,0,0,0-.7Z" style="fill:#140022"/><circle cx="21.29" cy="13.39" r="12.95" style="fill:#763ffc"/><polygon points="10.33 7.05 32.24 7.05 21.27 26.36 10.33 7.05" style="fill:none;stroke:#451a89;stroke-linecap:round;stroke-linejoin:round;stroke-width:0.86921px"/><path d="M21.29,25.91c-6.77-.34-12.52-5.47-12.52-12.52A12.68,12.68,0,0,1,21.29.88,12.55,12.55,0,0,1,33.68,12.15c.73,7.53-5.06,13.39-12.39,13.76-.57,0-.57.91,0,.88,7.28-.37,13.39-5.83,13.39-13.4A13.53,13.53,0,0,0,21.29,0,13.54,13.54,0,0,0,7.89,13.39c0,7.57,6.11,13,13.4,13.4C21.85,26.82,21.85,25.94,21.29,25.91Z" style="fill:#140022"/><path d="M21.29,6.19a1.18,1.18,0,0,0,0-2.35,1.18,1.18,0,0,0,0,2.35Z" style="fill:#fff"/><path d="M17.1,8.16a7.28,7.28,0,0,0,8.37,0c1.24-.86.06-2.89-1.18-2a5,5,0,0,1-6,0c-1.24-.85-2.42,1.18-1.18,2Z" style="fill:#fff"/><path d="M20.56,13.84c2.26-1.89,3.61,1.24,2,1.68-.88.24-1.25,1.73-.28,2.14,2.21.95,1.51,3.42-.68,3.62-2,.17-2.89-1.44-2.81-3.24.06-1.51-2.28-1.5-2.35,0-.18,4,3.29,6.79,7.14,5.16a4.11,4.11,0,0,0-.12-7.57l-.28,2.15c2.41-.67,3-3.53,1.81-5.57-1.49-2.47-4.32-1.54-6.12,0-1.16,1,.51,2.63,1.66,1.66Z" style="fill:#fff"/></g></g></svg>