<svg xmlns="http://www.w3.org/2000/svg" viewBox="0 0 41.45 45.14"><title>Asset 4</title><g id="Layer_2" data-name="Layer 2"><g id="OBJECTS"><path d="M13.15,8.15A9.55,9.55,0,0,0,10.09,8c-3.16.41-5.84,3-9,2.94h0c1.63,2.73.66,6.34,1.83,9.3a9.9,9.9,0,0,0,1.63,2.6,8.46,8.46,0,0,0,5.19,3.35,6.76,6.76,0,0,0,5-1.69,12.3,12.3,0,0,0,2.89-3.84,12.35,12.35,0,0,0,1.94-4.39,6.74,6.74,0,0,0-1-5.22A8.37,8.37,0,0,0,13.15,8.15Z" style="fill:#ff7000"/><path d="M13.26,7.72A10.25,10.25,0,0,0,8.43,8c-1.7.54-5.65,3.39-7.14,2.6a.45.45,0,0,0-.61.6l.38-.65a.44.44,0,0,0-.22.82c1.56,1,.81,6.16,1.32,8A10.67,10.67,0,0,0,4.92,24c2.72,2.77,6.31,3.63,9.62,1.25,3-2.13,5.68-6.88,5.61-10.57-.08-4.14-3.2-6.1-6.89-6.91-.55-.12-.78.73-.23.85,6.58,1.44,7.33,6.64,4.24,11.87-2.66,4.5-7.17,7.46-11.72,2.89C2.78,20.54,3,17.44,2.45,13.91c-.13-.78-.35-2.84-1.17-3.35l-.22.82h0a.45.45,0,0,0,.38-.67h0l-.6.6c.81.43,2.72-.33,3.4-.58C7.31,9.62,9.55,8.06,13,8.57,13.58,8.65,13.82,7.8,13.26,7.72Z" style="fill:#140022"/><path d="M7,24.54c-1.52-3.68-1.94-8.11.94-11.3,2-2.15,5.35-3.28,8.2-3.46.38,0,.38-.6,0-.58-8.58.52-13,7.59-9.7,15.5.14.34.71.19.56-.16Z" style="fill:#140022"/><path d="M3.68,11.87l0,0a.44.44,0,0,0-.44.76l0,0a.44.44,0,0,0,.44-.76Z" style="fill:#140022"/><path d="M28.88,8.15A9.54,9.54,0,0,1,31.94,8c3.16.41,5.83,3,9,2.94h0c-1.64,2.73-.66,6.34-1.84,9.3a9.86,9.86,0,0,1-1.62,2.6,8.48,8.48,0,0,1-5.2,3.35,6.78,6.78,0,0,1-5-1.69,12.12,12.12,0,0,1-2.88-3.84,12.18,12.18,0,0,1-1.94-4.39,6.7,6.7,0,0,1,1-5.22A8.35,8.35,0,0,1,28.88,8.15Z" style="fill:#ff7000"/><path d="M29,8.57c3.46-.51,5.75,1,8.79,2.16.72.27,2.6,1,3.4.58l-.61-.6h0a.45.45,0,0,0,.38.67h0l-.23-.82c-.8.5-1.05,2.58-1.16,3.35-.53,3.52-.36,6.66-3.1,9.42C31.9,27.93,27.4,25,24.76,20.44,21.69,15.2,22.4,10,29,8.57c.55-.12.32-1-.24-.85-3.46.76-6.5,2.49-6.87,6.36S24.42,23,27.48,25.2s6.55,1.66,9.24-.88a11,11,0,0,0,3-4.46c.61-1.9-.08-7.57,1.48-8.54A.44.44,0,0,0,41,10.5l.37.65a.44.44,0,0,0-.6-.6c-1.41.74-5.59-2.11-7.14-2.6a10.29,10.29,0,0,0-4.84-.23C28.2,7.8,28.44,8.65,29,8.57Z" style="fill:#140022"/><path d="M35.56,24.7c3.27-7.91-1.11-15-9.71-15.5-.37,0-.37.56,0,.58,2.85.18,6.25,1.31,8.2,3.46,2.89,3.19,2.47,7.62.94,11.3-.14.35.43.5.57.16Z" style="fill:#140022"/><path d="M38.79,12.63l0,0a.44.44,0,0,0-.44-.76l0,0c-.49.28,0,1,.45.76Z" style="fill:#140022"/><path d="M29.14,9.45a10.07,10.07,0,0,0-1.42-2.72c-2-2.51-5.57-3.5-7.1-6.29h0c-1.53,2.79-5.14,3.78-7.1,6.29A9.8,9.8,0,0,0,12.1,9.45a8.46,8.46,0,0,0-.26,6.17,6.77,6.77,0,0,0,4,3.49,12.2,12.2,0,0,0,4.77.55,12.2,12.2,0,0,0,4.77-.55,6.72,6.72,0,0,0,4-3.49A8.45,8.45,0,0,0,29.14,9.45Z" style="fill:#ff7000"/><path d="M29.56,9.33a10.28,10.28,0,0,0-2.64-4c-1.3-1.17-5.81-3.2-5.86-4.85a.44.44,0,0,0-.82-.22H21a.44.44,0,0,0-.82.22c-.06,1.87-4.88,3.79-6.26,5.2a10.68,10.68,0,0,0-2.63,4.92c-.92,3.7.2,7.11,3.83,8.72a14.8,14.8,0,0,0,11.5-.21c3.88-2,4.15-5.91,2.94-9.73-.17-.54-1-.31-.85.23,2.08,6.56-2.24,9.64-8.09,9.66s-10.51-3.07-8.1-9.66c1.23-3.34,3.8-4.39,6.32-6.5C19.5,2.52,21,1.4,21.06.43l-.82.22h0a.44.44,0,0,0,.76,0h0L20.18.43c0,.9,1.68,2.19,2.21,2.63,2.52,2.1,5,3.24,6.32,6.5C28.92,10.08,29.77,9.86,29.56,9.33Z" style="fill:#140022"/><path d="M11.94,12.41c2.4-3.17,5.89-5.6,10-4.8a12.29,12.29,0,0,1,7.26,5.28c.21.31.72,0,.51-.3-4.82-7.18-13.17-7.28-18.33-.48-.22.3.29.6.51.3Z" style="fill:#140022"/><path d="M21.14,3.17v0a.44.44,0,0,0-.88,0v0a.44.44,0,0,0,.88,0Z" style="fill:#140022"/><path d="M36.8,22.51A9.69,9.69,0,0,1,38.58,25c1.36,2.88.61,6.55,2.41,9.17h0c-3.18.1-5.69,2.88-8.81,3.49a9.88,9.88,0,0,1-3.07,0,8.44,8.44,0,0,1-5.62-2.55A6.72,6.72,0,0,1,22.18,30a12.32,12.32,0,0,1,1.66-4.5,12.43,12.43,0,0,1,2.64-4,6.79,6.79,0,0,1,4.93-2A8.48,8.48,0,0,1,36.8,22.51Z" style="fill:#ff7000"/><path d="M36.49,22.82c2.32,2.66,2.25,5.37,3,8.57.16.72.57,2.74,1.33,3.17l.22-.82h0a.44.44,0,0,0-.38.66h0l.6-.6c-.88-.41-2.72.48-3.46.81-3.25,1.46-5.78,3.3-9.58,2.51-11.92-2.46-1.52-24.07,8.31-14.3a.44.44,0,0,0,.62-.62c-2.51-2.5-5.63-4.12-9.07-2.37s-6.14,7-6.33,10.72,2.12,6.41,5.71,7.3A11,11,0,0,0,32.8,38c1.93-.51,6.33-4.16,8-3.4.37.17.84-.2.6-.6l-.38.66a.44.44,0,0,0,.22-.82C39.72,33,40,28,39.52,26.39a10.14,10.14,0,0,0-2.41-4.19C36.74,21.77,36.12,22.39,36.49,22.82Z" style="fill:#140022"/><path d="M26.49,37.09c8.37-1.48,12-9,7.79-16.55-.18-.33-.69,0-.5.3,1.7,3,2.55,7.26.87,10.44s-5,4.65-8.31,5.25c-.38.06-.22.63.15.56Z" style="fill:#140022"/><path d="M38.38,33.25h0c.51.26,1-.5.45-.76h0c-.5-.26-1,.5-.44.76Z" style="fill:#140022"/><path d="M4.65,22.51A10,10,0,0,0,2.86,25C1.5,27.88,2.25,31.55.45,34.17h0c3.19.1,5.69,2.88,8.82,3.49a9.88,9.88,0,0,0,3.07,0A8.46,8.46,0,0,0,18,35.16,6.81,6.81,0,0,0,19.27,30a12.32,12.32,0,0,0-1.66-4.5,12.3,12.3,0,0,0-2.65-4,6.75,6.75,0,0,0-4.92-2A8.46,8.46,0,0,0,4.65,22.51Z" style="fill:#ff7000"/><path d="M4.34,22.2a10.21,10.21,0,0,0-2.42,4.19c-.48,1.77-.13,6.53-1.7,7.41a.45.45,0,0,0,.23.82L.07,34c-.25.4.22.78.6.6,1.64-.77,5.64,2.68,7.46,3.26A10.62,10.62,0,0,0,13.5,38c3.81-.79,6.45-3.36,6.24-7.42C19.55,26.92,17,22,13.87,20.12,10.35,18,7,19.52,4.34,22.2c-.41.4.22,1,.62.62,4.67-4.64,9.63-2.47,12.27,2.9,2.29,4.68,2.25,10.12-4,11.4-3.85.8-6.31-1.06-9.59-2.51-.74-.32-2.57-1.22-3.45-.81l.6.6h0a.44.44,0,0,0-.38-.66h0l.22.82c.77-.43,1.18-2.51,1.33-3.17.73-3.2.63-5.91,3-8.57C5.33,22.39,4.71,21.77,4.34,22.2Z" style="fill:#140022"/><path d="M15.11,36.53c-3.36-.6-6.64-2.08-8.31-5.25S6,23.87,7.67,20.84c.18-.33-.32-.63-.51-.3C2.94,28.06,6.58,35.61,15,37.09c.37.07.53-.5.16-.56Z" style="fill:#140022"/><path d="M2.63,32.49h0c-.51.26-.06,1,.44.76h0c.51-.26.06-1-.44-.76Z" style="fill:#140022"/><path d="M12,35.69a9.94,9.94,0,0,0,1.42,2.72c2,2.51,5.57,3.49,7.1,6.29h0c1.53-2.8,5.14-3.78,7.1-6.29A9.94,9.94,0,0,0,29,35.69a8.45,8.45,0,0,0,.25-6.17,6.69,6.69,0,0,0-4-3.49,12.2,12.2,0,0,0-4.77-.55,12.2,12.2,0,0,0-4.77.55,6.74,6.74,0,0,0-4,3.49A8.46,8.46,0,0,0,12,35.69Z" style="fill:#ff7000"/><path d="M11.56,35.81a10.18,10.18,0,0,0,2.64,4C15.52,41,20,43,20.06,44.71a.45.45,0,0,0,.82.22h-.76a.45.45,0,0,0,.82-.22c.06-1.87,4.88-3.8,6.26-5.21a10.69,10.69,0,0,0,2.63-4.91c.92-3.7-.21-7.11-3.84-8.73a14.82,14.82,0,0,0-11.49.22c-3.88,2.05-4.15,5.91-2.94,9.73.17.54,1,.31.85-.24-2.08-6.55,2.24-9.63,8.09-9.65S31,29,28.59,35.57c-1.22,3.35-3.79,4.4-6.31,6.5-.66.55-2.19,1.67-2.22,2.64l.82-.23h0a.45.45,0,0,0-.76,0h0l.82.23c0-.91-1.67-2.18-2.22-2.64-2.51-2.09-5-3.23-6.31-6.5C12.2,35.06,11.34,35.28,11.56,35.81Z" style="fill:#140022"/><path d="M29.18,32.73c-2.41,3.17-5.89,5.6-10,4.79a12.27,12.27,0,0,1-7.27-5.27c-.21-.31-.71,0-.5.3,4.82,7.18,13.17,7.27,18.32.47.23-.3-.28-.59-.5-.29Z" style="fill:#140022"/><path d="M20,42v0a.44.44,0,0,0,.88,0v0A.44.44,0,0,0,20,42Z" style="fill:#140022"/><circle cx="20.72" cy="22.42" r="12.95" style="fill:#df3e16"/><path d="M32.44,17.05c0,.11,0,.21,0,.32A11.74,11.74,0,0,1,9,17.37c0-.11,0-.21,0-.32a13,13,0,1,0,23.45,0Z" style="fill:#cc3517"/><path d="M32.44,17.05c0,.11,0,.21,0,.32A11.74,11.74,0,0,1,9,17.37c0-.11,0-.21,0-.32" style="fill:none;stroke:#a5210c;stroke-linecap:round;stroke-linejoin:round;stroke-width:0.464453px"/><path d="M20.72,34.94C14,34.59,8.2,29.47,8.2,22.42A12.67,12.67,0,0,1,20.72,9.91,12.55,12.55,0,0,1,33.11,21.17c.73,7.53-5.06,13.39-12.39,13.77-.57,0-.57.9,0,.88C28,35.45,34.11,30,34.11,22.42A13.51,13.51,0,0,0,20.72,9,13.54,13.54,0,0,0,7.32,22.42c0,7.57,6.11,13,13.4,13.4C21.28,35.84,21.28,35,20.72,34.94Z" style="fill:#140022"/><path d="M13.19,19.49H28a1.18,1.18,0,0,0,0-2.35H13.19a1.18,1.18,0,0,0,0,2.35Z" style="fill:#fff"/><path d="M24.51,18.63V29.39a1.17,1.17,0,0,0,2.34,0V18.63a1.17,1.17,0,0,0-2.34,0Z" style="fill:#fff"/><path d="M24.52,22c-.35,1.46-.11,3.07-1.28,4.2-1.33,1.3-4.2,1.6-5.58.22s0-3.12,1.34-3.8a5.31,5.31,0,0,1,5.22.38c1.2.92,2.37-1.12,1.18-2a7.55,7.55,0,0,0-8.11-.09c-1.95,1.29-3.3,4-2.1,6.19,1.36,2.52,5,3,7.45,2.18A6,6,0,0,0,25.57,27c1-1.38.83-2.85,1.21-4.42s-1.91-2.1-2.26-.63Z" style="fill:#fff"/><path d="M23.05,16.16a1.18,1.18,0,0,0,0-2.35,1.18,1.18,0,0,0,0,2.35Z" style="fill:#fff"/></g></g></svg>