<svg xmlns="http://www.w3.org/2000/svg" viewBox="0 0 39.79 40.77"><title>Asset 6</title><g id="Layer_2" data-name="Layer 2"><g id="OBJECTS"><path d="M24.09,34.82a6.71,6.71,0,0,0,1.91.86c2.11.53,4.46-.46,6.46.39h0c-.35-2.15,1.18-4.19,1.17-6.37a6.94,6.94,0,0,0-.38-2.06,5.78,5.78,0,0,0-2.46-3.42A4.58,4.58,0,0,0,27.16,24a8.21,8.21,0,0,0-2.79,1.71A8.4,8.4,0,0,0,22,28a4.66,4.66,0,0,0-.68,3.57A5.74,5.74,0,0,0,24.09,34.82Z" style="fill:#d86d18"/><path d="M23.87,35.2a7.27,7.27,0,0,0,2.93,1c1,.12,4.64-.69,5.35.14.24.27.8.06.75-.31h0l-.55.43h0a.45.45,0,0,0,.5-.65c-.68-.91,1-4.27,1.16-5.37a7.29,7.29,0,0,0-.63-3.74c-1-2.34-3-3.83-5.61-3.33a10.11,10.11,0,0,0-6.52,5.17c-1.24,2.81.31,5.07,2.62,6.62.47.32.91-.45.44-.76-3.64-2.45-2.85-5.86.28-8.32,2.78-2.19,6.3-3,8,1,1,2.29.31,4.09-.29,6.34-.17.67-.65,2.2-.19,2.82l.49-.65h0a.44.44,0,0,0-.56.42h0l.76-.31c-.46-.53-1.62-.47-2.28-.49-2.28-.08-4.06.39-6.19-.84A.44.44,0,0,0,23.87,35.2Z" style="fill:#140022"/><path d="M32.08,26c.06,2.56-.71,5.28-3,6.69a8.27,8.27,0,0,1-6.49.36c-.25-.08-.36.31-.11.39,2.3.75,5.26.78,7.27-.72s2.82-4.19,2.76-6.72a.2.2,0,0,0-.4,0Z" style="fill:#140022"/><path d="M31.06,34.85v0c.24.3.66-.12.42-.43h0c-.24-.31-.66.12-.42.42Z" style="fill:#140022"/><path d="M31.37,30.52a6.87,6.87,0,0,0,2.07-.3c2.06-.69,3.52-2.79,5.66-3.14h0c-1.46-1.62-1.27-4.16-2.44-6a6.92,6.92,0,0,0-1.43-1.53A5.8,5.8,0,0,0,31.32,18a4.62,4.62,0,0,0-3.16,1.79,8.45,8.45,0,0,0-1.44,2.95A8.42,8.42,0,0,0,26,25.9a4.61,4.61,0,0,0,1.33,3.38A5.82,5.82,0,0,0,31.37,30.52Z" style="fill:#d86d18"/><path d="M31.37,31a7.12,7.12,0,0,0,3.28-.82C35.48,29.69,38,27.2,39,27.5c.34.11.74-.33.5-.64h0l-.27.65h0c.46-.09.36-.71,0-.85-1-.37-1.34-4.1-1.79-5.06a7,7,0,0,0-2-2.43c-2.31-1.87-5.18-2.28-7.35,0a10.06,10.06,0,0,0-2.41,8c.63,2.81,3,3.76,5.67,3.83a.44.44,0,0,0,0-.88c-3.9-.1-5.54-2.85-4.51-6.48,1.07-3.81,4.19-6.91,8-3.74,2,1.62,2,3.61,2.9,5.8.24.6.55,1.59,1.2,1.84v-.85h0a.44.44,0,0,0-.26.65h0l.5-.65c-.62-.19-1.87.59-2.31.86C35,28.66,33.74,30,31.37,30.08,30.8,30.1,30.8,31,31.37,31Z" style="fill:#140022"/><path d="M33.35,18.74c3.06,4.65,1.19,9.68-4.24,11.07a.2.2,0,0,0,.11.39c5.72-1.47,7.68-6.81,4.47-11.66-.14-.22-.49,0-.34.2Z" style="fill:#140022"/><path d="M37.25,26.8h0c.36.12.52-.46.16-.58h0c-.37-.13-.52.45-.16.58Z" style="fill:#140022"/><path d="M33.16,12.94a6.6,6.6,0,0,0,.35-2.06c0-2.18-1.58-4.2-1.26-6.36h0c-2,.89-4.36-.07-6.46.49a6.73,6.73,0,0,0-1.9.89A5.81,5.81,0,0,0,21.2,9.15a4.66,4.66,0,0,0,.74,3.56A8.41,8.41,0,0,0,24.31,15a8.5,8.5,0,0,0,2.82,1.67,4.6,4.6,0,0,0,3.62-.25A5.74,5.74,0,0,0,33.16,12.94Z" style="fill:#d86d18"/><path d="M33.58,13.06a7,7,0,0,0,.22-3.38c-.19-.95-1.74-4.13-1.17-4.94a.44.44,0,0,0-.5-.64h0l.56.42h0a.44.44,0,0,0-.75-.31c-.72.88-4.35.07-5.47.23A7.31,7.31,0,0,0,23,6c-2.15,1.66-3,4.12-1.61,6.59,1.25,2.22,4.27,4.48,6.85,4.7,2.88.26,4.48-1.74,5.35-4.24.19-.54-.66-.77-.84-.24-1.46,4.18-5,4.21-8.12,1.85C22.1,12.76,20.14,9.84,23,7.09c2.06-1.94,4.24-1.67,6.84-1.73.74,0,2.19.07,2.68-.53l-.75-.31h0a.44.44,0,0,0,.56.42h0l-.5-.64c-.37.52,0,1.88.13,2.46.52,2.14,1.36,3.77.74,6.06A.44.44,0,0,0,33.58,13.06Z" style="fill:#140022"/><path d="M22.56,7.46c2.46-.71,5.29-.66,7.25,1.23,1.55,1.49,2.11,4.11,2,6.19,0,.26.39.26.4,0,.14-2.41-.58-5.28-2.54-6.85s-4.77-1.66-7.21-1a.2.2,0,0,0,.11.39Z" style="fill:#140022"/><path d="M31.43,6.19h0c.23-.31-.29-.61-.52-.31v0c-.24.31.29.61.52.3Z" style="fill:#140022"/><path d="M35.1,22.08a6.5,6.5,0,0,0,1.51-1.45c1.27-1.77,1.21-4.32,2.75-5.87h0c-2.13-.46-3.47-2.64-5.5-3.43a6.79,6.79,0,0,0-2.05-.41,5.78,5.78,0,0,0-4.09,1,4.62,4.62,0,0,0-1.52,3.3,8.35,8.35,0,0,0,.57,3.23,8.26,8.26,0,0,0,1.28,3,4.61,4.61,0,0,0,3.06,1.95A5.77,5.77,0,0,0,35.1,22.08Z" style="fill:#d86d18"/><path d="M35.41,22.39a7,7,0,0,0,2.26-2.82c.38-.86.94-4.09,1.81-4.38a.45.45,0,0,0,0-.85h0l.19.73h0a.45.45,0,0,0-.43-.74c-1.15.31-3.37-2.44-4.5-3.07a7.35,7.35,0,0,0-3.66-.8c-2.52,0-4.69,1.32-5.21,3.93a10.15,10.15,0,0,0,2.35,8c2.13,2.19,4.78,1.65,7.11.08.46-.31,0-1.07-.45-.76-3.78,2.56-6.56.48-7.69-3.34-1.05-3.55-.09-7.1,4.26-7,2.39.06,3.67,1.33,5.47,2.65.55.4,1.78,1.39,2.56,1.18l-.43-.73h0a.45.45,0,0,0,.19.74h0v-.85c-.67.22-1.16,1.51-1.4,2.07-.87,2.05-1.19,3.89-3.05,5.36C34.35,22.12,35,22.74,35.41,22.39Z" style="fill:#140022"/><path d="M29.83,11.39c2.54,1,4.81,2.75,5.09,5.66a8.35,8.35,0,0,1-2,5.77c-.17.2.12.48.28.29,3.77-4.55,2.24-10-3.22-12.1-.24-.1-.35.29-.11.38Z" style="fill:#140022"/><path d="M37.67,15.63h0a.3.3,0,0,0-.16-.58h0a.3.3,0,0,0,.16.58Z" style="fill:#140022"/><path d="M15.7,34.82a6.65,6.65,0,0,1-1.9.86c-2.12.53-4.47-.46-6.47.39h0c.35-2.15-1.17-4.19-1.17-6.37a6.94,6.94,0,0,1,.38-2.06A5.75,5.75,0,0,1,9,24.22,4.55,4.55,0,0,1,12.63,24a8.35,8.35,0,0,1,2.8,1.71A8.5,8.5,0,0,1,17.76,28a4.58,4.58,0,0,1,.68,3.57A5.74,5.74,0,0,1,15.7,34.82Z" style="fill:#d86d18"/><path d="M15.48,34.44c-2.11,1.22-3.89.76-6.19.84-.61,0-1.85,0-2.27.49l.75.31h0a.44.44,0,0,0-.56-.42h0l.5.65c.41-.56,0-1.82-.1-2.47-.54-2.4-1.43-4.22-.39-6.69,1.66-3.94,5.17-3.23,7.94-1.06,3.17,2.49,4,5.89.32,8.36-.47.31,0,1.08.45.76,2.32-1.56,3.84-3.79,2.61-6.62A10.14,10.14,0,0,0,12,23.41c-2.62-.5-4.61,1-5.61,3.33a7.41,7.41,0,0,0-.64,3.68c.12,1.12,1.86,4.51,1.18,5.43a.44.44,0,0,0,.49.65h0l-.55-.43h0a.44.44,0,0,0,.75.31c.75-.9,4.2,0,5.35-.14a7,7,0,0,0,2.94-1C16.42,34.92,16,34.16,15.48,34.44Z" style="fill:#140022"/><path d="M7.31,26c-.06,2.53.63,5.14,2.76,6.72s5,1.47,7.27.72c.25-.08.14-.47-.1-.39-2,.65-4.67.76-6.5-.36-2.32-1.4-3.09-4.14-3-6.69a.2.2,0,0,0-.4,0Z" style="fill:#140022"/><path d="M8.31,34.43h0c-.24.31.18.73.42.43l0,0c.23-.3-.19-.72-.43-.42Z" style="fill:#140022"/><path d="M8.42,30.52a6.91,6.91,0,0,1-2.07-.3c-2.06-.69-3.52-2.79-5.66-3.14h0c1.45-1.62,1.26-4.16,2.43-6a6.92,6.92,0,0,1,1.43-1.53A5.8,5.8,0,0,1,8.47,18a4.62,4.62,0,0,1,3.16,1.79,8.45,8.45,0,0,1,1.44,2.95,8.43,8.43,0,0,1,.73,3.19,4.62,4.62,0,0,1-1.34,3.38A5.81,5.81,0,0,1,8.42,30.52Z" style="fill:#d86d18"/><path d="M8.42,30.08C6,30,4.78,28.66,2.87,27.51c-.48-.29-1.68-1.05-2.3-.86l.42.74H1c.18-.23.16-.67-.2-.74h0v.85c.55-.21.84-1,1.07-1.51,1-2.26.93-4.4,3-6.13,3.72-3.06,6.67-.31,7.89,3.35S12.56,30,8.42,30.08a.44.44,0,0,0,0,.88c2.48-.07,4.81-.87,5.59-3.46s-.52-6.41-2.33-8.32c-2-2.17-4.72-2-7-.28a7.13,7.13,0,0,0-2.3,2.64c-.45.92-.88,4.75-1.82,5.11-.36.14-.47.76,0,.85h0l-.2-.73h0c-.25.31,0,.88.43.73,1-.3,3.59,2.23,4.35,2.64A7.14,7.14,0,0,0,8.42,31C9,31,9,30.1,8.42,30.08Z" style="fill:#140022"/><path d="M6.1,18.54C2.9,23.39,4.86,28.73,10.57,30.2a.2.2,0,0,0,.11-.39c-5.43-1.39-7.3-6.42-4.24-11.07.15-.22-.2-.42-.34-.2Z" style="fill:#140022"/><path d="M2.38,26.22h0c-.36.12-.2.7.16.58h0c.36-.13.21-.71-.16-.58Z" style="fill:#140022"/><path d="M6.63,12.94a6.9,6.9,0,0,1-.35-2.06c0-2.18,1.58-4.2,1.26-6.36h0c2,.89,4.35-.07,6.45.49a6.73,6.73,0,0,1,1.9.89,5.81,5.81,0,0,1,2.69,3.25,4.66,4.66,0,0,1-.74,3.56A8.28,8.28,0,0,1,15.48,15a8.5,8.5,0,0,1-2.82,1.67A4.6,4.6,0,0,1,9,16.4,5.78,5.78,0,0,1,6.63,12.94Z" style="fill:#d86d18"/><path d="M7.06,12.82c-.64-2.33.22-3.9.73-6.06.15-.64.52-1.91.13-2.46l-.5.64h0A.43.43,0,0,0,8,4.52H8l-.75.31c.47.58,2,.51,2.68.53,2.61.06,4.74-.25,6.84,1.73,2.82,2.67,1,5.65-1.58,7.58C12,17.07,8.5,17,7.06,12.82c-.19-.53-1-.3-.85.24.81,2.34,2.27,4.32,5,4.28s5.94-2.45,7.22-4.74a4.82,4.82,0,0,0-1.32-6.36,7.65,7.65,0,0,0-3.37-1.73c-1.24-.24-5.11.63-5.87-.3a.44.44,0,0,0-.75.31h0l.56-.42h0a.44.44,0,0,0-.5.64c.58.82-1,4.06-1.17,4.94a7,7,0,0,0,.22,3.38A.44.44,0,0,0,7.06,12.82Z" style="fill:#140022"/><path d="M17.34,7.07c-2.44-.7-5.14-.69-7.21,1s-2.68,4.44-2.54,6.85c0,.26.42.26.4,0-.12-2.07.45-4.7,2-6.19,1.94-1.88,4.78-1.94,7.24-1.23a.2.2,0,0,0,.11-.39Z" style="fill:#140022"/><path d="M8.88,5.89v0c-.23-.3-.75,0-.52.31h0c.23.31.75,0,.51-.3Z" style="fill:#140022"/><path d="M4.69,22.08a6.5,6.5,0,0,1-1.51-1.45C1.91,18.86,2,16.31.44,14.76h0c2.12-.46,3.46-2.64,5.49-3.43A6.79,6.79,0,0,1,8,10.92a5.82,5.82,0,0,1,4.1,1,4.65,4.65,0,0,1,1.51,3.3A8.34,8.34,0,0,1,13,18.48a8.45,8.45,0,0,1-1.29,3,4.61,4.61,0,0,1-3.06,1.95A5.78,5.78,0,0,1,4.69,22.08Z" style="fill:#d86d18"/><path d="M5,21.77c-1.85-1.47-2.17-3.31-3-5.36-.24-.56-.73-1.85-1.4-2.07v.85h0a.45.45,0,0,0,.19-.74h0l-.43.73c.69.18,1.74-.6,2.27-1,2-1.31,3.2-2.81,5.77-2.87,4.08-.09,5.29,3.12,4.38,6.62-1,4-3.85,6.42-7.82,3.73-.47-.31-.91.45-.44.76,2.33,1.58,5,2.1,7.1-.08a10,10,0,0,0,2.35-8c-.55-2.59-2.66-3.89-5.21-3.93a7.53,7.53,0,0,0-3.65.8c-1.12.6-3.35,3.38-4.51,3.07a.45.45,0,0,0-.43.74h0l.2-.73h0a.45.45,0,0,0,0,.85c.93.31,1.43,3.53,1.81,4.38a7,7,0,0,0,2.26,2.82C4.82,22.74,5.44,22.12,5,21.77Z" style="fill:#140022"/><path d="M9.85,11c-5.46,2.06-7,7.55-3.22,12.1.17.19.45-.09.28-.29a8.29,8.29,0,0,1-2-5.77c.28-2.91,2.53-4.69,5.09-5.66.24-.09.14-.48-.11-.38Z" style="fill:#140022"/><path d="M2.29,15.05h0a.3.3,0,0,0-.16.58h0a.3.3,0,0,0,.16-.58Z" style="fill:#140022"/><path d="M14.11,34.18a6.87,6.87,0,0,0,1,1.86c1.33,1.71,3.8,2.39,4.84,4.29h0c1-1.9,3.51-2.58,4.84-4.29a6.87,6.87,0,0,0,1-1.86A5.74,5.74,0,0,0,25.92,30a4.63,4.63,0,0,0-2.74-2.39,8.33,8.33,0,0,0-3.26-.37,8.28,8.28,0,0,0-3.25.37A4.61,4.61,0,0,0,13.93,30,5.74,5.74,0,0,0,14.11,34.18Z" style="fill:#d86d18"/><path d="M13.68,34.3a7.09,7.09,0,0,0,1.84,2.82c.85.77,3.92,2.18,4,3.22a.44.44,0,0,0,.82.22h-.75a.44.44,0,0,0,.82-.22c0-1.16,3.33-2.54,4.23-3.45a7.5,7.5,0,0,0,1.83-3.42c.65-2.59-.15-5-2.68-6.12a10.26,10.26,0,0,0-8,.15c-2.7,1.43-2.92,4.13-2.08,6.8.17.54,1,.31.85-.24-1.39-4.38,1.48-6.4,5.39-6.41s7,2,5.4,6.41c-.83,2.26-2.58,3-4.28,4.38-.49.41-1.54,1.19-1.55,1.9l.82-.22h0a.45.45,0,0,0-.76,0h0l.82.22c0-.68-1.12-1.54-1.55-1.9-1.69-1.41-3.39-2.18-4.28-4.38C14.32,33.55,13.47,33.77,13.68,34.3Z" style="fill:#140022"/><path d="M25.85,32.16c-1.64,2.16-4,3.83-6.86,3.27a8.37,8.37,0,0,1-5-3.6c-.15-.21-.49,0-.35.2,3.29,4.91,9,5,12.52.33.15-.2-.2-.4-.35-.2Z" style="fill:#140022"/><path d="M19.57,38.47v0a.3.3,0,0,0,.6,0v0a.3.3,0,0,0-.6,0Z" style="fill:#140022"/><path d="M25.74,6.59a6.87,6.87,0,0,0-1-1.86C23.44,3,21,2.34,19.93.44h0c-1,1.9-3.51,2.58-4.84,4.29a6.87,6.87,0,0,0-1,1.86,5.74,5.74,0,0,0-.18,4.21,4.61,4.61,0,0,0,2.74,2.39,8.28,8.28,0,0,0,3.25.37,8.33,8.33,0,0,0,3.26-.37,4.63,4.63,0,0,0,2.74-2.39A5.74,5.74,0,0,0,25.74,6.59Z" style="fill:#d86d18"/><path d="M26.17,6.47a7.2,7.2,0,0,0-1.84-2.82c-.84-.76-3.94-2.2-4-3.22a.44.44,0,0,0-.82-.22h.75a.44.44,0,0,0-.82.22C19.43,1.62,16.16,3,15.25,3.88A7.5,7.5,0,0,0,13.42,7.3c-.65,2.59.15,5,2.68,6.12a10.26,10.26,0,0,0,8-.15c2.7-1.43,2.92-4.13,2.08-6.8-.17-.54-1-.31-.85.23,1.39,4.39-1.48,6.41-5.4,6.42s-7-2-5.39-6.42c.83-2.25,2.58-2.95,4.28-4.37.5-.42,1.52-1.18,1.55-1.9l-.82.22h0a.45.45,0,0,0,.76,0h0L19.49.43C19.5,1.1,20.63,2,21,2.33c1.69,1.41,3.39,2.18,4.28,4.37C25.53,7.22,26.38,7,26.17,6.47Z" style="fill:#140022"/><path d="M14,8.61c1.64-2.16,4-3.83,6.86-3.27a8.37,8.37,0,0,1,5,3.6c.15.21.49,0,.35-.21-3.29-4.9-9-5-12.52-.32-.15.2.19.4.35.2Z" style="fill:#140022"/><path d="M20.28,2.3v0a.3.3,0,0,0-.6,0v0a.3.3,0,0,0,.6,0Z" style="fill:#140022"/><circle cx="20.02" cy="20.1" r="12.95" transform="translate(-8.35 20.04) rotate(-45)" style="fill:#e3a519"/><polygon points="9.08 13.47 31 13.47 20.02 32.77 9.08 13.47" style="fill:none;stroke:#bc5108;stroke-linecap:round;stroke-linejoin:round;stroke-width:0.469373px"/><path d="M20,32.62C13.25,32.27,7.51,27.15,7.51,20.1A12.67,12.67,0,0,1,20,7.59,12.55,12.55,0,0,1,32.41,18.86c.73,7.53-5,13.39-12.39,13.76-.56,0-.57.9,0,.88,7.29-.37,13.4-5.83,13.4-13.4A13.52,13.52,0,0,0,20,6.71,13.53,13.53,0,0,0,6.63,20.1c0,7.57,6.11,13,13.39,13.4C20.59,33.52,20.59,32.64,20,32.62Z" style="fill:#140022"/><path d="M14.09,15.93H26a1.18,1.18,0,0,0,0-2.35H14.09a1.18,1.18,0,0,0,0,2.35Z" style="fill:#fff"/><path d="M21,14.85a42.06,42.06,0,0,1-.08,6.35c-.14,1.08-.92,3.41-2.45,2.73-.82-.36-.09-1.86.57-2.19a2.29,2.29,0,0,1,2.08.12c1.34.69,2.53-1.34,1.19-2a4.68,4.68,0,0,0-5.9,1,3.55,3.55,0,0,0,.65,5.21c2,1.2,4.46-.23,5.5-2,1.44-2.45.85-6.51.79-9.2a1.18,1.18,0,0,0-2.35,0Z" style="fill:#fff"/><path d="M17.91,26.4l.59.42s-.25-.2,0,0l.22.18c1.09.84,2.21,1.65,3.32,2.46s2.4-1.15,1.19-2L21,25.78l-.57-.43-.14-.11q-.57-.45-1.17-.87c-1.24-.85-2.42,1.18-1.18,2Z" style="fill:#fff"/><path d="M23.8,12.78a1.17,1.17,0,0,0,0-2.34,1.17,1.17,0,0,0,0,2.34Z" style="fill:#fff"/></g></g></svg>