<svg xmlns="http://www.w3.org/2000/svg" viewBox="0 0 41.55 40.77"><title>Asset 8</title><g id="Layer_2" data-name="Layer 2"><g id="OBJECTS"><path d="M36.11,13.23a6.72,6.72,0,0,0,.67-2c.31-2.16-.92-4.4-.27-6.48h0c-2.1.57-4.29-.74-6.46-.51a6.74,6.74,0,0,0-2,.59,5.78,5.78,0,0,0-3.16,2.8,4.61,4.61,0,0,0,.18,3.62,8.43,8.43,0,0,0,2,2.61A8.29,8.29,0,0,0,29.58,16a4.58,4.58,0,0,0,3.62.32A5.72,5.72,0,0,0,36.11,13.23Z" style="fill:#04b2d9"/><path d="M36.49,13.45a7.55,7.55,0,0,0,.78-3c0-1.23-1.22-4.55-.45-5.35a.44.44,0,0,0-.42-.73h0l.54.54h0a.45.45,0,0,0-.74-.43c-.85.77-4.82-.78-6.21-.63a8,8,0,0,0-4,1.76,4.83,4.83,0,0,0-1.27,5.91,10.46,10.46,0,0,0,5.48,5.18c2.9,1,5-.77,6.33-3.23.27-.5-.49-.94-.76-.44-1.9,3.56-5.11,3.72-7.92,1.05C25.64,12,23.63,8.94,26.47,6.35c2.3-2.1,4.75-1.5,7.53-1.12.65.09,2.23.39,2.82-.15l-.73-.43h0a.45.45,0,0,0,.54.55h0l-.43-.74c-.46.48-.32,1.72-.28,2.3.14,2.22.8,4.05-.19,6.25C35.5,13.52,36.26,14,36.49,13.45Z" style="fill:#140022"/><path d="M26.46,6.18c2.34-.29,4.93.05,6.6,1.88s1.91,4.59,1.42,6.86c-.06.25.33.36.38.11.48-2.23.28-5-1.18-6.87C31.93,6,29.11,5.45,26.46,5.78c-.25,0-.25.43,0,.4Z" style="fill:#140022"/><path d="M35.42,6.32h0A.3.3,0,0,0,35,5.88h0c-.28.27.15.7.43.43Z" style="fill:#140022"/><path d="M26.76,35.8a6.83,6.83,0,0,0,1.94.79c2.13.46,4.45-.62,6.47.17h0c-.43-2.13,1-4.23.94-6.41a6.55,6.55,0,0,0-.45-2A5.73,5.73,0,0,0,33.09,25a4.62,4.62,0,0,0-3.63-.07,8.29,8.29,0,0,0-2.73,1.81,8.35,8.35,0,0,0-2.25,2.38,4.57,4.57,0,0,0-.56,3.59A5.77,5.77,0,0,0,26.76,35.8Z" style="fill:#04b2d9"/><path d="M26.54,36.18a7.42,7.42,0,0,0,3,1c1,.08,4.64-.87,5.36-.06.32.36.79,0,.73-.43h0l-.54.54h0c.47.15.68-.42.43-.74-.62-.79,1-4.29,1-5.32a7.39,7.39,0,0,0-.75-3.72c-1.08-2.3-3.12-3.72-5.72-3.15a10.13,10.13,0,0,0-6.34,5.39c-1.15,2.84.46,5.06,2.82,6.53.48.3.93-.47.45-.76C23.13,33,24,29.59,27,27c2.88-2.42,6.68-2.83,8.21,1.4.81,2.26,0,3.94-.42,6.1-.14.71-.44,1.94,0,2.55l.43-.73h0c-.35-.11-.58.23-.54.54h0l.74-.43C35.06,36,33.76,36,33.2,36c-2.31,0-4,.58-6.21-.61C26.49,35.15,26,35.91,26.54,36.18Z" style="fill:#140022"/><path d="M34.45,26.65c.14,2.53-.51,5.35-2.79,6.81a8.38,8.38,0,0,1-6.48.58.2.2,0,0,0-.11.39c2.32.67,5.28.61,7.24-1s2.68-4.28,2.54-6.82c0-.25-.42-.25-.4,0Z" style="fill:#140022"/><path d="M33.72,35.58v0c.25.3.68-.13.43-.43h0c-.25-.3-.68.13-.43.42Z" style="fill:#140022"/><path d="M34.5,27.27a6.7,6.7,0,0,0,1.93-.81c1.82-1.2,2.68-3.6,4.67-4.49h0c-1.82-1.2-2.29-3.71-3.89-5.18a6.94,6.94,0,0,0-1.77-1.11,5.76,5.76,0,0,0-4.19-.52,4.6,4.6,0,0,0-2.6,2.54A8.17,8.17,0,0,0,28,20.91a8.22,8.22,0,0,0,.11,3.28,4.63,4.63,0,0,0,2.16,2.92A5.71,5.71,0,0,0,34.5,27.27Z" style="fill:#04b2d9"/><path d="M34.62,27.7a7.07,7.07,0,0,0,3-1.62c.69-.66,2.52-3.71,3.54-3.67.48,0,.53-.58.22-.82h0v.76h0c.42-.22.17-.78-.22-.82-1-.11-2.31-3.57-3-4.43a6.83,6.83,0,0,0-2.54-1.85c-2.52-1.14-5.36-1-6.93,1.56A10.19,10.19,0,0,0,28,25.12c1.24,2.78,3.89,3.21,6.63,2.58.55-.13.32-1-.24-.85-4.39,1-6.25-2.05-5.92-5.94.34-4.09,3.16-7,7.38-4.54,2,1.16,2.44,3.18,3.84,4.86.34.4.84,1.12,1.43,1.18l-.23-.82h0a.45.45,0,0,0,0,.76h0l.23-.82c-.65,0-1.65,1-2,1.42-1.53,1.59-2.44,3.19-4.72,3.9C33.84,27,34.07,27.87,34.62,27.7Z" style="fill:#140022"/><path d="M33.4,15.38c2,1.78,3.57,4.34,2.79,7.13a8.54,8.54,0,0,1-4,4.66c-.23.13,0,.47.2.35C37.48,24.64,38,19,33.69,15.1c-.2-.17-.48.11-.29.28Z" style="fill:#140022"/><path d="M39.24,22.18h0c.39,0,.38-.57,0-.6h0c-.39,0-.38.57,0,.6Z" style="fill:#140022"/><path d="M22.26,35.34A6.59,6.59,0,0,0,24,36.54c2,.91,4.47.38,6.28,1.59h0c.05-2.18,1.93-3.9,2.33-6a6.72,6.72,0,0,0,0-2.1,5.72,5.72,0,0,0-1.78-3.82,4.58,4.58,0,0,0-3.52-.86,8.37,8.37,0,0,0-3.07,1.16A8.31,8.31,0,0,0,21.5,28.3a4.63,4.63,0,0,0-1.34,3.37A5.81,5.81,0,0,0,22.26,35.34Z" style="fill:#04b2d9"/><path d="M22,35.65a7.19,7.19,0,0,0,2.93,1.66c1.14.29,4.46.07,5,1a.45.45,0,0,0,.82-.23h0l-.66.38h0a.44.44,0,0,0,.6-.6c-.49-1,1.84-3.83,2.19-5a7.29,7.29,0,0,0,.08-3.74c-.58-2.66-2.4-4.49-5.24-4.32A10.13,10.13,0,0,0,20.45,29c-1.48,2.48-.39,4.81,1.5,6.67a.44.44,0,0,0,.62-.62c-3.14-3.1-1.76-6.36,1.87-8.18,3.08-1.54,6.7-1.66,7.61,2.54.56,2.58-.69,4.25-1.64,6.46-.25.57-.86,1.85-.54,2.51l.61-.61h0a.45.45,0,0,0-.66.38h0l.82-.22c-.31-.57-1.75-.84-2.25-.95-2.16-.48-4-.38-5.81-1.93C22.14,34.66,21.52,35.28,22,35.65Z" style="fill:#140022"/><path d="M31.77,28.1c-.39,2.3-1.39,4.55-3.53,5.72s-5.06.61-7.14-.54c-.23-.12-.43.23-.2.35,5.15,2.83,10.29.32,11.25-5.42,0-.25-.34-.36-.38-.11Z" style="fill:#140022"/><path d="M29.08,36.65v0c.18.34.7,0,.52-.3v0c-.17-.34-.69,0-.52.3Z" style="fill:#140022"/><path d="M29,33a7,7,0,0,0,2.08.28c2.17-.1,4.14-1.73,6.3-1.48h0c-1-1.95-.09-4.35-.72-6.43a6.63,6.63,0,0,0-1-1.87A5.76,5.76,0,0,0,32.36,21a4.63,4.63,0,0,0-3.53.86,8.49,8.49,0,0,0-2.18,2.44,8.36,8.36,0,0,0-1.57,2.88,4.58,4.58,0,0,0,.37,3.61A5.78,5.78,0,0,0,29,33Z" style="fill:#04b2d9"/><path d="M28.88,33.45a7,7,0,0,0,3.38.11c.94-.22,4.07-1.89,4.9-1.35.3.19.79-.14.64-.5h0l-.42.56h0c.49,0,.53-.59.22-.82-.79-.61-.16-4.36-.34-5.39a7.37,7.37,0,0,0-1.68-3.43c-1.74-2.09-4.21-2.85-6.65-1.4-2.15,1.3-4.33,4.47-4.47,7-.16,2.89,1.89,4.43,4.42,5.21.54.17.77-.68.23-.84-3.82-1.19-4.53-4.23-2.57-7.47S32,19.75,34.9,23.23c1.74,2.06,1.38,4.17,1.58,6.65.06.72.06,1.86.68,2.33l.22-.82h0a.45.45,0,0,0-.43.55h0l.65-.49c-.55-.36-1.87,0-2.45.2-2.13.59-3.72,1.5-6,1C28.56,32.48,28.33,33.32,28.88,33.45Z" style="fill:#140022"/><path d="M34.1,22.24c.78,2.41.87,5.3-1,7.29A8.38,8.38,0,0,1,27,31.74a.2.2,0,0,0,0,.4c2.42.06,5.26-.76,6.76-2.77s1.5-4.82.72-7.24c-.08-.24-.47-.14-.39.11Z" style="fill:#140022"/><path d="M35.67,31.06h0c.31.22.61-.3.3-.52h0c-.31-.23-.61.29-.3.52Z" style="fill:#140022"/><path d="M32.71,11a6.73,6.73,0,0,0,0-2.1C32.36,6.73,30.5,5,30.48,2.8h0c-1.82,1.19-4.31.62-6.3,1.51a6.55,6.55,0,0,0-1.73,1.18,5.77,5.77,0,0,0-2.14,3.63,4.59,4.59,0,0,0,1.29,3.39,8.08,8.08,0,0,0,2.7,1.87,8.29,8.29,0,0,0,3.05,1.2,4.59,4.59,0,0,0,3.53-.81A5.77,5.77,0,0,0,32.71,11Z" style="fill:#04b2d9"/><path d="M33.15,11a7.18,7.18,0,0,0-.42-3.59c-.35-.87-2.27-3.56-1.87-4.36a.44.44,0,0,0-.6-.6h0l.66.38h0a.44.44,0,0,0-.82-.22c-.62,1.06-4.13.69-5.36,1.07a7.23,7.23,0,0,0-3.12,2c-1.78,1.87-2.36,4.28-.83,6.51a10,10,0,0,0,7.68,3.87c2.88-.16,4.2-2.36,4.67-5,.1-.55-.75-.79-.85-.23-.31,1.76-.83,3.51-2.84,4.17-1.76.58-3.41-.23-4.93-1-3.08-1.61-5.13-4.68-2.28-7.7,1.66-1.76,3.42-1.91,5.63-2.25.75-.11,2.53-.25,3-1L30,2.79h0a.44.44,0,0,0,.66.38h0l-.61-.61c-.32.65.26,1.9.49,2.46.85,2.06,1.94,3.59,1.68,5.94C32.21,11.53,33.09,11.52,33.15,11Z" style="fill:#140022"/><path d="M21.4,7.22c5.05-2.33,9.72.34,10.28,5.85,0,.25.42.26.4,0-.59-5.89-5.55-8.65-10.89-6.19-.23.1,0,.45.21.34Z" style="fill:#140022"/><path d="M29.91,4.62v0c.18-.34-.34-.64-.52-.3v0c-.18.34.34.64.52.3Z" style="fill:#140022"/><path d="M35.94,18.1A6.73,6.73,0,0,0,37,16.3c.76-2,0-4.49,1.12-6.38h0C36,10,34.11,8.28,31.94,8a6.62,6.62,0,0,0-2.08.14,5.79,5.79,0,0,0-3.69,2.06,4.62,4.62,0,0,0-.6,3.58,8.39,8.39,0,0,0,1.38,3,8.51,8.51,0,0,0,2,2.58,4.58,4.58,0,0,0,3.46,1.08A5.72,5.72,0,0,0,35.94,18.1Z" style="fill:#04b2d9"/><path d="M36.32,18.32a6.87,6.87,0,0,0,1.41-3.09c.18-1.05-.13-4.43.64-4.93a.44.44,0,0,0-.22-.82h0l.38.66h0a.45.45,0,0,0-.61-.6c-1.06.59-3.91-1.5-5.15-1.8A7.31,7.31,0,0,0,29,7.93c-2.47.71-4.19,2.51-4,5.2a10.12,10.12,0,0,0,4.67,7.22c2.58,1.32,4.83.08,6.55-1.94.37-.43-.25-1.06-.62-.62-1.16,1.35-2.49,2.59-4.54,2.16-1.81-.39-2.87-1.92-3.76-3.38-1.79-3-2.11-6.61,1.94-7.8,2.31-.67,3.91.08,6,.91.7.28,2.31,1.07,3.11.62l-.6-.61h0a.45.45,0,0,0,.38.66h0l-.23-.82c-.45.3-.65,1.41-.74,1.89-.44,2.31-.11,4.41-1.62,6.45C35.23,18.33,36,18.77,36.32,18.32Z" style="fill:#140022"/><path d="M28.07,9.15c5.49.51,8.25,5.14,5.92,10.24-.11.23.23.43.34.2,2.47-5.39-.44-10.3-6.26-10.84-.26,0-.25.37,0,.4Z" style="fill:#140022"/><path d="M36.74,11.2h0c.33-.2,0-.72-.3-.52h0c-.33.21,0,.73.31.52Z" style="fill:#140022"/><path d="M13.94,4.94a7.06,7.06,0,0,0-2-.66c-2.16-.3-4.39.93-6.47.29h0C6.05,6.67,4.75,8.86,5,11a6.76,6.76,0,0,0,.6,2,5.76,5.76,0,0,0,2.8,3.15A4.64,4.64,0,0,0,12,16a8.42,8.42,0,0,0,2.6-2,8.44,8.44,0,0,0,2.08-2.53A4.62,4.62,0,0,0,17,7.85,5.75,5.75,0,0,0,13.94,4.94Z" style="fill:#04b2d9"/><path d="M14.16,4.56a7.57,7.57,0,0,0-3-.76c-1.25,0-4.53,1.23-5.35.45a.45.45,0,0,0-.74.43h0l.54-.54h0a.45.45,0,0,0-.43.74c.78.85-.77,4.82-.61,6.21a8,8,0,0,0,1.77,4,4.81,4.81,0,0,0,5.91,1.26,10.39,10.39,0,0,0,5.17-5.49c1-2.9-.78-5-3.24-6.33-.5-.26-.95.5-.45.76,3.57,1.89,3.74,5.11,1.08,7.93-2.06,2.16-5.11,4.19-7.71,1.35C5,12.31,5.56,9.86,5.94,7.08c.08-.66.39-2.23-.16-2.82L5.36,5h0a.44.44,0,0,0,.54-.54h0l-.74.43c.5.46,1.72.32,2.31.28,2.22-.15,4.05-.81,6.24.16C14.23,5.55,14.68,4.79,14.16,4.56Z" style="fill:#140022"/><path d="M6.91,14.61C6.62,12.28,7,9.68,8.78,8s4.57-1.92,6.85-1.43c.25,0,.36-.34.11-.39-2.23-.48-5-.27-6.87,1.2C6.69,9.15,6.18,12,6.51,14.61c0,.26.43.26.4,0Z" style="fill:#140022"/><path d="M7,5.66l0,0c-.27-.28-.69.15-.42.43h0c.27.28.7-.15.43-.42Z" style="fill:#140022"/><path d="M6.05,27.85a7.06,7.06,0,0,0-.56,2c-.19,2.16,1.16,4.34.62,6.44h0c2.07-.69,4.33.5,6.48.16a6.89,6.89,0,0,0,2-.69,5.76,5.76,0,0,0,3-3,4.57,4.57,0,0,0-.37-3.61,8.33,8.33,0,0,0-2.13-2.49,8.35,8.35,0,0,0-2.63-1.95,4.59,4.59,0,0,0-3.63-.12A5.74,5.74,0,0,0,6.05,27.85Z" style="fill:#04b2d9"/><path d="M5.63,27.73a6.92,6.92,0,0,0-.53,3.36c.1,1.05,1.29,4.24.69,4.92a.44.44,0,0,0,.43.73h0l-.54-.54h0a.45.45,0,0,0,.74.43c.8-.8,4.85.49,6.17.29A7.8,7.8,0,0,0,16,35.41a4.8,4.8,0,0,0,1.7-6.08A10.17,10.17,0,0,0,11.47,24c-2.83-.59-4.68,1.2-5.8,3.61-.24.51.52.95.76.44,3.83-8.21,14.14,1.88,9.62,6.19-2.3,2.19-4.63,1.67-7.43,1.48-.66-.05-2.25-.3-2.82.27l.73.43h0A.45.45,0,0,0,6,35.89H6l.43.74c.36-.41.26-1.53.22-2-.2-2.35-1.07-4.29-.16-6.64C6.68,27.44,5.83,27.21,5.63,27.73Z" style="fill:#140022"/><path d="M16,34.38c-2.42.43-5,.13-6.82-1.7-1.6-1.62-2-4.42-1.61-6.59,0-.26-.34-.37-.38-.11-.38,2.32,0,5.23,1.7,7,1.9,2,4.66,2.25,7.22,1.79.25,0,.15-.43-.11-.38Z" style="fill:#140022"/><path d="M7.13,34.7l0,0c-.26.28.16.7.43.42h0c.27-.28-.16-.71-.42-.43Z" style="fill:#140022"/><path d="M7.05,27.27a6.7,6.7,0,0,1-1.93-.81C3.3,25.26,2.43,22.86.45,22h0c1.82-1.2,2.29-3.71,3.89-5.18a6.77,6.77,0,0,1,1.77-1.11,5.76,5.76,0,0,1,4.19-.52,4.6,4.6,0,0,1,2.6,2.54,8.35,8.35,0,0,1,.63,3.21,8.41,8.41,0,0,1-.11,3.28,4.63,4.63,0,0,1-2.16,2.92A5.71,5.71,0,0,1,7.05,27.27Z" style="fill:#04b2d9"/><path d="M7.17,26.85C4.86,26.13,4,24.55,2.45,23c-.39-.4-1.36-1.45-2-1.42l.23.82h0a.45.45,0,0,0,0-.76h0l-.22.82c.59-.06,1.07-.76,1.43-1.18,1.39-1.67,1.81-3.7,3.84-4.86a6,6,0,0,1,5-.52c1.9.79,2.21,3.35,2.34,5.06.32,3.93-1.53,7-5.92,5.94-.56-.13-.79.72-.24.85,2.72.62,5.4.21,6.63-2.58a10.11,10.11,0,0,0-.64-8.31C11.32,14.3,8.56,14.1,6,15.25A7,7,0,0,0,3.46,17.1c-.68.8-2,4.32-3,4.43-.39,0-.64.6-.22.82h0v-.76h0c-.31.24-.26.84.22.82,1,0,2.9,3.06,3.53,3.67a7.17,7.17,0,0,0,3,1.62C7.47,27.87,7.7,27,7.17,26.85Z" style="fill:#140022"/><path d="M7.86,15.1C3.53,19,4.07,24.64,9.21,27.52c.22.12.43-.22.2-.35a8.7,8.7,0,0,1-4.06-4.66c-.76-2.77.8-5.35,2.8-7.13.19-.17-.1-.45-.29-.28Z" style="fill:#140022"/><path d="M2.31,21.58h0c-.38,0-.39.63,0,.6h0c.38,0,.38-.63,0-.6Z" style="fill:#140022"/><path d="M19.29,35.34a6.59,6.59,0,0,1-1.71,1.2c-2,.91-4.48.38-6.28,1.59h0c-.05-2.18-1.94-3.9-2.33-6A6.72,6.72,0,0,1,9,30a5.72,5.72,0,0,1,1.78-3.82,4.58,4.58,0,0,1,3.52-.86,8.37,8.37,0,0,1,3.07,1.16,8.31,8.31,0,0,1,2.72,1.83,4.58,4.58,0,0,1,1.33,3.37A5.75,5.75,0,0,1,19.29,35.34Z" style="fill:#04b2d9"/><path d="M19,35c-1.8,1.55-3.65,1.47-5.81,1.93-.54.11-1.94.39-2.25.95l.82.22h0a.45.45,0,0,0-.66-.38h0l.61.61c.31-.67-.29-1.93-.54-2.51C10.17,33.66,9,32,9.5,29.39c.91-4.24,4.54-4.08,7.61-2.54,3.62,1.82,5,5.08,1.87,8.18a.44.44,0,0,0,.62.62c1.77-1.75,2.91-3.92,1.69-6.35s-4.78-4.3-7.4-4.46a4.82,4.82,0,0,0-5.15,4,7.64,7.64,0,0,0-.11,3.74c.32,1.26,2.76,4.33,2.29,5.36a.44.44,0,0,0,.6.6h0l-.66-.38h0a.44.44,0,0,0,.82.23c.51-.93,4-.79,5-1a7.14,7.14,0,0,0,2.93-1.66C20,35.28,19.41,34.66,19,35Z" style="fill:#140022"/><path d="M9.4,28.21c1,5.73,6.09,8.26,11.25,5.42.23-.12,0-.47-.2-.35-2.08,1.15-5,1.71-7.14.54S10.17,30.4,9.78,28.1c0-.25-.43-.14-.38.11Z" style="fill:#140022"/><path d="M12,36.35v0c-.18.34.34.65.52.3v0c.18-.34-.34-.64-.51-.3Z" style="fill:#140022"/><path d="M12.55,33a6.9,6.9,0,0,1-2.07.28c-2.17-.1-4.14-1.73-6.31-1.48h0c1-1.95.09-4.35.72-6.43a6.63,6.63,0,0,1,1-1.87A5.76,5.76,0,0,1,9.19,21a4.6,4.6,0,0,1,3.52.86,8.38,8.38,0,0,1,2.19,2.44,8.36,8.36,0,0,1,1.57,2.88,4.58,4.58,0,0,1-.37,3.61A5.78,5.78,0,0,1,12.55,33Z" style="fill:#04b2d9"/><path d="M12.44,32.61c-2.35.55-3.89-.37-6-1-.63-.17-1.88-.58-2.45-.2l.6.6h0a.44.44,0,0,0-.38-.66h0l.31.75c.59-.47.57-1.95.61-2.66.15-2.63-.06-4.73,2-6.77,5-5,14.11,7.19,5.37,9.9-.54.16-.31,1,.23.84,2.37-.73,4.4-2.13,4.44-4.84s-2.26-6-4.49-7.38a4.85,4.85,0,0,0-6.41,1.13,7.47,7.47,0,0,0-1.83,3.31c-.3,1.26.46,5.07-.52,5.84a.45.45,0,0,0,.31.76h0l-.38-.67h0c-.17.36.2.86.6.6.84-.54,4,1.15,4.9,1.35a7,7,0,0,0,3.38-.11C13.22,33.32,13,32.48,12.44,32.61Z" style="fill:#140022"/><path d="M7.06,22.13c-.78,2.42-.86,5.11.72,7.24s4.34,2.83,6.76,2.77c.25,0,.26-.41,0-.4a8.42,8.42,0,0,1-6.12-2.21c-1.83-2-1.75-4.89-1-7.29.08-.25-.31-.35-.39-.11Z" style="fill:#140022"/><path d="M5.58,30.54h0c-.31.22,0,.74.3.52h0c.31-.22,0-.75-.3-.52Z" style="fill:#140022"/><path d="M8.84,11a6.73,6.73,0,0,1,0-2.1C9.19,6.73,11,5,11.07,2.8h0c1.82,1.19,4.31.62,6.3,1.51A6.55,6.55,0,0,1,19.1,5.49a5.77,5.77,0,0,1,2.14,3.63A4.59,4.59,0,0,1,20,12.51a8.18,8.18,0,0,1-2.7,1.87,8.29,8.29,0,0,1-3.05,1.2,4.59,4.59,0,0,1-3.53-.81A5.77,5.77,0,0,1,8.84,11Z" style="fill:#04b2d9"/><path d="M9.28,11C9,8.62,10.11,7.09,11,5c.23-.57.8-1.8.49-2.46l-.61.61h0a.45.45,0,0,0,.66-.38h0L10.69,3c.44.78,2.26.92,3,1,2.22.35,4,.49,5.63,2.25,2.87,3,.78,6.11-2.28,7.7-1.52.79-3.17,1.6-4.94,1-2-.66-2.52-2.41-2.83-4.17-.1-.56-.95-.32-.85.23.44,2.47,1.6,4.6,4.3,5s6.53-1.62,8.05-3.85A4.84,4.84,0,0,0,20.18,6a7.58,7.58,0,0,0-3-2.19c-1.21-.44-5.12-.16-5.7-1.19a.44.44,0,0,0-.82.22h0l.66-.38h0c-.4-.24-.78.22-.6.6.42.88-1.52,3.48-1.87,4.36A7.08,7.08,0,0,0,8.39,11C8.45,11.52,9.34,11.53,9.28,11Z" style="fill:#140022"/><path d="M20.35,6.88C15,4.42,10.06,7.18,9.47,13.07c0,.26.38.25.4,0,.56-5.51,5.23-8.18,10.28-5.85.23.11.44-.24.2-.34Z" style="fill:#140022"/><path d="M12.16,4.32v0c-.19-.34-.7,0-.52.3v0c.18.34.7,0,.52-.3Z" style="fill:#140022"/><path d="M5.61,18.1a6.73,6.73,0,0,1-1.08-1.8c-.76-2,0-4.49-1.12-6.38h0C5.58,10,7.44,8.28,9.6,8a6.66,6.66,0,0,1,2.09.14,5.79,5.79,0,0,1,3.69,2.06,4.62,4.62,0,0,1,.6,3.58,8.57,8.57,0,0,1-1.38,3,8.51,8.51,0,0,1-2,2.58,4.59,4.59,0,0,1-3.46,1.08A5.72,5.72,0,0,1,5.61,18.1Z" style="fill:#04b2d9"/><path d="M6,17.88c-1.52-2.06-1.17-4.12-1.62-6.45-.11-.54-.26-1.57-.75-1.89l-.22.82h0a.44.44,0,0,0,.38-.66h0l-.6.61c.8.45,2.4-.34,3.11-.62,2.1-.82,3.68-1.58,6-.91,4.08,1.2,3.74,4.86,1.94,7.8-.9,1.46-1.94,3-3.76,3.38-2.06.43-3.38-.81-4.54-2.16-.37-.44-1,.19-.62.62,1.62,1.9,3.71,3.16,6.21,2.11s4.82-4.7,5-7.39A4.85,4.85,0,0,0,12.86,8a7.52,7.52,0,0,0-3.73-.36c-1.28.23-4.46,2.44-5.5,1.86a.45.45,0,0,0-.61.6H3l.38-.66h0a.44.44,0,0,0-.22.82c.77.51.47,3.93.64,4.93a7,7,0,0,0,1.41,3.09C5.56,18.77,6.32,18.33,6,17.88Z" style="fill:#140022"/><path d="M13.48,8.75c-5.82.54-8.73,5.45-6.26,10.84.1.23.45,0,.34-.2C5.23,14.29,8,9.66,13.48,9.15c.25,0,.26-.43,0-.4Z" style="fill:#140022"/><path d="M5.12,10.68h0c-.33-.2-.63.32-.3.52h0c.33.21.63-.31.31-.52Z" style="fill:#140022"/><path d="M15,34.18a6.73,6.73,0,0,0,1,1.86c1.33,1.72,3.8,2.39,4.84,4.3h0c1-1.91,3.51-2.58,4.84-4.3a6.73,6.73,0,0,0,1-1.86A5.74,5.74,0,0,0,26.77,30,4.64,4.64,0,0,0,24,27.58a8.49,8.49,0,0,0-3.25-.37,8.52,8.52,0,0,0-3.26.37A4.67,4.67,0,0,0,14.78,30,5.74,5.74,0,0,0,15,34.18Z" style="fill:#04b2d9"/><path d="M14.53,34.3a7.31,7.31,0,0,0,1.84,2.83c.85.76,3.92,2.17,4,3.21a.44.44,0,0,0,.82.22H20.4a.44.44,0,0,0,.82-.22c0-1.16,3.33-2.54,4.23-3.45a7.45,7.45,0,0,0,1.83-3.42c.65-2.59-.15-5-2.68-6.12a10.26,10.26,0,0,0-8,.15c-2.7,1.43-2.92,4.13-2.08,6.8.17.54,1,.31.85-.23-1.39-4.39,1.48-6.41,5.4-6.42s7,2,5.39,6.42c-.83,2.25-2.58,3-4.28,4.37-.49.41-1.54,1.19-1.55,1.9l.82-.22h0a.44.44,0,0,0-.76,0h0l.82.22c0-.68-1.12-1.54-1.55-1.9C18,37,16.27,36.27,15.38,34.07,15.17,33.55,14.32,33.77,14.53,34.3Z" style="fill:#140022"/><path d="M26.7,32.16c-1.64,2.16-4,3.83-6.86,3.28a8.39,8.39,0,0,1-5-3.61c-.15-.21-.49,0-.35.21,3.29,4.9,9,5,12.52.32.15-.2-.19-.4-.35-.2Z" style="fill:#140022"/><path d="M20.42,38.47v0a.3.3,0,0,0,.6,0v0a.3.3,0,0,0-.6,0Z" style="fill:#140022"/><path d="M26.59,6.59a6.87,6.87,0,0,0-1-1.86C24.29,3,21.82,2.35,20.78.44h0c-1,1.91-3.51,2.58-4.84,4.29a6.87,6.87,0,0,0-1,1.86,5.77,5.77,0,0,0-.18,4.22,4.62,4.62,0,0,0,2.74,2.38,8.33,8.33,0,0,0,3.26.38A8.3,8.3,0,0,0,24,13.19a4.59,4.59,0,0,0,2.74-2.38A5.77,5.77,0,0,0,26.59,6.59Z" style="fill:#04b2d9"/><path d="M27,6.47a7.27,7.27,0,0,0-1.84-2.82c-.84-.76-3.94-2.2-4-3.22A.44.44,0,0,0,20.4.21h.75a.44.44,0,0,0-.82.22C20.28,1.62,17,3,16.1,3.89A7.42,7.42,0,0,0,14.27,7.3c-.65,2.59.15,5,2.68,6.12a10.21,10.21,0,0,0,8-.15c2.7-1.43,2.92-4.13,2.08-6.8-.17-.54-1-.31-.85.24,1.39,4.38-1.48,6.4-5.39,6.42s-7-2-5.4-6.42c.83-2.26,2.58-3,4.28-4.38.5-.41,1.52-1.18,1.55-1.9l-.82.23h0a.45.45,0,0,0,.76,0h0L20.34.43c0,.67,1.14,1.56,1.55,1.9,1.69,1.41,3.39,2.18,4.28,4.38C26.38,7.23,27.23,7,27,6.47Z" style="fill:#140022"/><path d="M14.85,8.61c1.64-2.16,4-3.82,6.86-3.27a8.37,8.37,0,0,1,5,3.6c.15.21.49,0,.35-.2-3.29-4.91-9-5-12.52-.33-.15.21.2.41.35.2Z" style="fill:#140022"/><path d="M21.13,2.3v0a.3.3,0,0,0-.6,0v0a.3.3,0,0,0,.6,0Z" style="fill:#140022"/><circle cx="20.87" cy="20.1" r="12.95" transform="translate(-6.07 9.43) rotate(-22.31)" style="fill:#5ed7f2"/><polygon points="9.94 13.4 31.85 13.4 20.87 32.7 9.94 13.4" style="fill:none;stroke:#089fb7;stroke-linecap:round;stroke-linejoin:round;stroke-width:0.86921px"/><path d="M20.87,32.62C14.1,32.28,8.36,27.15,8.36,20.1A12.68,12.68,0,0,1,20.87,7.59,12.55,12.55,0,0,1,33.26,18.86c.73,7.53-5,13.39-12.39,13.76-.56,0-.56.91,0,.88,7.29-.37,13.4-5.83,13.4-13.4A13.53,13.53,0,0,0,20.87,6.71,13.53,13.53,0,0,0,7.48,20.1c0,7.57,6.11,13,13.39,13.4C21.44,33.53,21.44,32.65,20.87,32.62Z" style="fill:#140022"/><path d="M14,16.65h13a1.18,1.18,0,0,0,0-2.35H14a1.18,1.18,0,0,0,0,2.35Z" style="fill:#fff"/><path d="M23.38,16.19c.7,2.24-2.18,1.35-3.41,1.32a4.08,4.08,0,0,0-3.12,1.13,3.41,3.41,0,0,0,.89,5.26c1.29.79,2.47-1.24,1.18-2a1,1,0,0,1,.22-2A4.56,4.56,0,0,1,21,20a5.59,5.59,0,0,0,3-.16c1.75-.73,2.18-2.54,1.65-4.23-.45-1.44-2.72-.82-2.26.62Z" style="fill:#fff"/><path d="M20.94,27.65c-1-1-2.28-3.13-.18-3.74a4.24,4.24,0,0,1,4,1.06c1.1,1,2.77-.63,1.66-1.66-2-1.85-5.2-2.61-7.62-1.11-2.85,1.75-1.32,5.23.43,7.11,1,1.11,2.69-.55,1.66-1.66Z" style="fill:#fff"/><path d="M23.92,12.94a1.17,1.17,0,0,0,0-2.34,1.17,1.17,0,0,0,0,2.34Z" style="fill:#fff"/></g></g></svg>