<svg xmlns="http://www.w3.org/2000/svg" viewBox="0 0 41.53 42.47"><title>Asset 7</title><g id="Layer_2" data-name="Layer 2"><g id="OBJECTS"><path d="M36.39,23.67A6.69,6.69,0,0,0,38,22.35c1.37-1.64,1.5-4.14,3.12-5.54h0c-2-.6-3.2-2.83-5.12-3.75a6.47,6.47,0,0,0-2-.55,5.65,5.65,0,0,0-4.08.71,4.55,4.55,0,0,0-1.72,3.12,8.27,8.27,0,0,0,.32,3.2,8.35,8.35,0,0,0,1,3,4.55,4.55,0,0,0,2.86,2.13A5.72,5.72,0,0,0,36.39,23.67Z" style="fill:#9600b8"/><path d="M36.61,24a7.08,7.08,0,0,0,2.32-2.36c.58-1,1.21-4.2,2.27-4.46a.43.43,0,0,0,0-.83h0l.19.72h0c.34-.32,0-.79-.42-.72-1.11.19-3.11-2.69-4.18-3.36a7.17,7.17,0,0,0-3.52-1c-2.48-.14-4.69,1-5.37,3.49a10,10,0,0,0,1.75,8c1.94,2.29,4.58,1.92,7,.56a.44.44,0,0,0-.44-.75c-3.89,2.23-6.48,0-7.27-3.87s.68-7.07,5-6.47c2.28.31,3.42,1.83,5.11,3.16.48.37,1.49,1.23,2.19,1.11l-.42-.72h0a.44.44,0,0,0,.19.72h0v-.83c-.62.15-1.24,1.44-1.48,1.89-1,1.93-1.38,3.7-3.32,5C35.71,23.6,36.15,24.35,36.61,24Z" style="fill:#140022"/><path d="M32,12.8c2.38,1.11,4.59,3.06,4.66,5.91a8.35,8.35,0,0,1-2.48,5.53c-.18.18.1.46.27.27,4-4.15,2.92-9.64-2.25-12-.23-.11-.43.23-.2.34Z" style="fill:#140022"/><path d="M39.39,17.53h0c.37-.08.21-.65-.16-.57h0c-.37.08-.21.65.16.57Z" style="fill:#140022"/><path d="M32.18,32.29a6.67,6.67,0,0,0,2-.18c2.07-.56,3.61-2.54,5.73-2.76h0c-1.33-1.66-1-4.15-2.06-6a6.42,6.42,0,0,0-1.31-1.58A5.67,5.67,0,0,0,32.83,20a4.54,4.54,0,0,0-3.2,1.58,8.27,8.27,0,0,0-1.57,2.81,8.2,8.2,0,0,0-.89,3.09,4.5,4.5,0,0,0,1.12,3.38A5.69,5.69,0,0,0,32.18,32.29Z" style="fill:#9600b8"/><path d="M32.18,32.72a6.85,6.85,0,0,0,3.25-.63c.85-.4,3.52-2.68,4.41-2.32a.44.44,0,0,0,.49-.64h0l-.26.63h0a.44.44,0,0,0,.1-.79c-1-.49-1.15-4.14-1.58-5.17a7.13,7.13,0,0,0-2.33-2.89c-2-1.52-4.4-1.84-6.4-.16a9.89,9.89,0,0,0-3.1,7.57c.28,3,2.7,4.18,5.42,4.4.55,0,.55-.82,0-.86-4.29-.35-5.25-3.66-3.75-7.26,1.34-3.23,4-5.51,7.33-3,1.93,1.51,2.23,3.37,2.8,5.58.17.67.49,2.17,1.18,2.5l.1-.79h0a.43.43,0,0,0-.26.63h0l.49-.64c-.58-.23-1.8.46-2.31.74-1.91,1-3.25,2.21-5.58,2.19A.43.43,0,0,0,32.18,32.72Z" style="fill:#140022"/><path d="M34.77,20.87c2.76,4.73.6,9.54-4.78,10.61-.25.05-.14.43.11.38,5.69-1.13,7.88-6.27,5-11.19-.12-.22-.46,0-.34.2Z" style="fill:#140022"/><path d="M38.16,29h0c.35.15.5-.42.16-.56h0c-.35-.15-.5.42-.16.57Z" style="fill:#140022"/><path d="M29.87,7.71a6.79,6.79,0,0,0-.47-2c-.85-2-3-3.2-3.56-5.27h0C24.38,2,21.87,2,20.18,3.34A6.89,6.89,0,0,0,18.8,4.86a5.64,5.64,0,0,0-1.19,4,4.52,4.52,0,0,0,2,2.93,8.13,8.13,0,0,0,3,1.16,8.25,8.25,0,0,0,3.19.44A4.55,4.55,0,0,0,29,11.76,5.65,5.65,0,0,0,29.87,7.71Z" style="fill:#9600b8"/><path d="M30.3,7.71a7,7,0,0,0-1.06-3.14c-.61-.93-3.19-3-3-4a.43.43,0,0,0-.72-.42h0l.72.19h0a.44.44,0,0,0-.84,0c-.33,1.12-3.78,1.59-4.87,2.25A7.29,7.29,0,0,0,18,5.37c-1.33,2.42-1,5.07,1.34,6.7,2.06,1.43,5.63,2.31,8,1.37s3.09-3.29,2.94-5.73c0-.55-.9-.56-.87,0,.24,3.78-2.28,5.74-5.9,5S16.43,9.56,19,5.44C20.26,3.3,22.18,3,24.26,2c.53-.25,1.8-.78,2-1.44h-.84a.45.45,0,0,0,.73.19h0L25.43.32c-.15.65.68,1.74,1,2.19,1.25,1.75,2.69,2.9,3,5.2C29.51,8.25,30.37,8.26,30.3,7.71Z" style="fill:#140022"/><path d="M18.21,6.76C20.29,5.1,23,4.1,25.53,5.32A8.27,8.27,0,0,1,29.37,10c.08.24.46.14.38-.1-1.93-5.47-7.34-6.93-11.82-3.38-.2.16.08.44.28.28Z" style="fill:#140022"/><path d="M25.72,2.3v0c.09-.37-.48-.52-.57-.16v0c-.09.37.48.53.57.16Z" style="fill:#140022"/><path d="M19.36,37.54a6.67,6.67,0,0,0,1.38,1.52c1.7,1.29,4.21,1.31,5.68,2.86h0c.51-2.07,2.68-3.33,3.52-5.29a6.59,6.59,0,0,0,.45-2,5.62,5.62,0,0,0-.89-4A4.54,4.54,0,0,0,26.31,29a8.25,8.25,0,0,0-3.18.46,8.23,8.23,0,0,0-3,1.18,4.52,4.52,0,0,0-2,3A5.65,5.65,0,0,0,19.36,37.54Z" style="fill:#9600b8"/><path d="M19,37.76A7,7,0,0,0,21.44,40c1,.51,4.29,1.1,4.57,2.06a.43.43,0,0,0,.83,0h0l-.72.19h0a.43.43,0,0,0,.72-.42c-.25-1.13,2.53-3.23,3.16-4.33a7.39,7.39,0,0,0,.87-3.57c0-2.48-1.16-4.64-3.71-5.22a10,10,0,0,0-7.91,2.1c-2.21,2-1.74,4.65-.26,7,.29.47,1,0,.74-.43-2.4-3.79-.26-6.45,3.51-7.45,3.49-.92,7,.1,6.75,4.39C29.85,36.74,28.37,38,27,39.8c-.35.49-1.18,1.55-1,2.24l.72-.42h0a.43.43,0,0,0-.72.19h.83c-.18-.63-1.47-1.18-1.95-1.4-2-.92-3.76-1.22-5.16-3.08C19.4,36.89,18.65,37.32,19,37.76Z" style="fill:#140022"/><path d="M30,32.67c-1.08,2.61-3,4.78-6,4.79a8.18,8.18,0,0,1-5.28-2.13c-.19-.16-.47.11-.28.28,4.37,3.84,9.79,2.46,12-2.83.09-.24-.29-.34-.38-.11Z" style="fill:#140022"/><path d="M25.62,40.25h0a.29.29,0,0,0,.57-.15v0a.3.3,0,0,0-.57.16Z" style="fill:#140022"/><path d="M35.52,14.5a6.81,6.81,0,0,0,.66-1.95c.3-2.11-.9-4.31-.27-6.35h0c-2.06.56-4.21-.73-6.34-.5a6.84,6.84,0,0,0-2,.57A5.68,5.68,0,0,0,24.5,9a4.51,4.51,0,0,0,.18,3.56,8.08,8.08,0,0,0,1.95,2.56,8.24,8.24,0,0,0,2.48,2,4.55,4.55,0,0,0,3.55.32A5.67,5.67,0,0,0,35.52,14.5Z" style="fill:#9600b8"/><path d="M35.9,14.72a7.5,7.5,0,0,0,.76-3c0-1.21-1.2-4.47-.44-5.26a.44.44,0,0,0-.42-.72h0l.53.53h0a.43.43,0,0,0-.72-.42c-.84.76-4.73-.77-6.09-.62a7.87,7.87,0,0,0-4,1.73,4.73,4.73,0,0,0-1.25,5.8,10.28,10.28,0,0,0,5.38,5.09c2.84.94,4.93-.76,6.22-3.17.26-.49-.49-.93-.75-.44-1.86,3.5-5,3.66-7.78,1-2.12-2-4.1-5-1.31-7.57,2.26-2.06,4.66-1.47,7.38-1.1.65.09,2.2.39,2.78-.14l-.72-.42h0a.43.43,0,0,0,.53.53h0l-.42-.72c-.46.47-.32,1.69-.28,2.26.14,2.18.78,4-.18,6.13C34.93,14.79,35.67,15.23,35.9,14.72Z" style="fill:#140022"/><path d="M26.05,7.58c2.29-.28,4.84,0,6.48,1.85s1.87,4.5,1.39,6.73a.2.2,0,0,0,.38.1c.47-2.18.27-4.94-1.17-6.74-1.71-2.14-4.48-2.65-7.08-2.33-.25,0-.25.42,0,.39Z" style="fill:#140022"/><path d="M34.84,7.72l0,0c.27-.26-.15-.68-.42-.42v0c-.28.26.14.68.41.42Z" style="fill:#140022"/><path d="M26.35,36.65a6.46,6.46,0,0,0,1.9.78c2.09.45,4.36-.6,6.35.17h0c-.42-2.1,1-4.16.93-6.29a6.64,6.64,0,0,0-.44-2A5.67,5.67,0,0,0,32.56,26,4.56,4.56,0,0,0,29,26a8.23,8.23,0,0,0-2.68,1.77,8.21,8.21,0,0,0-2.21,2.34,4.52,4.52,0,0,0-.55,3.52A5.66,5.66,0,0,0,26.35,36.65Z" style="fill:#9600b8"/><path d="M26.13,37A7.14,7.14,0,0,0,29,38c1,.08,4.54-.85,5.26-.06.32.35.78,0,.72-.42h0l-.53.53h0c.34.11.72-.33.49-.64-.7-.93.86-4.18,1-5.31a7.14,7.14,0,0,0-.74-3.65c-1.06-2.26-3.06-3.65-5.61-3.09a9.91,9.91,0,0,0-6.22,5.29c-1.13,2.79.45,5,2.77,6.4.47.3.9-.45.43-.74-3.33-2.08-3.25-5.15-.58-7.73s6.51-3.77,8.42.27c1.05,2.2.45,4-.06,6.23-.15.67-.56,2.17-.11,2.77l.49-.64h0c-.34-.11-.58.24-.53.54h0l.72-.42c-.43-.48-1.69-.42-2.24-.41-2.28,0-3.9.56-6.11-.61C26.07,36,25.64,36.76,26.13,37Z" style="fill:#140022"/><path d="M33.89,27.68c.14,2.48-.5,5.24-2.74,6.68a8.22,8.22,0,0,1-6.36.57.2.2,0,0,0-.11.38c2.28.66,5.19.6,7.11-.94s2.63-4.2,2.49-6.69c0-.25-.41-.25-.39,0Z" style="fill:#140022"/><path d="M33.18,36.44v0c.24.29.66-.13.42-.42h0c-.24-.29-.66.12-.41.41Z" style="fill:#140022"/><path d="M28.54,33.94a6.67,6.67,0,0,0,2,.27c2.14-.1,4.07-1.7,6.19-1.46h0c-.94-1.92-.08-4.27-.7-6.32a6.75,6.75,0,0,0-.94-1.83,5.63,5.63,0,0,0-3.28-2.52,4.53,4.53,0,0,0-3.46.84,8.38,8.38,0,0,0-2.15,2.4,8.4,8.4,0,0,0-1.54,2.83,4.5,4.5,0,0,0,.37,3.54A5.63,5.63,0,0,0,28.54,33.94Z" style="fill:#9600b8"/><path d="M28.42,34.35a6.91,6.91,0,0,0,3.32.11c.93-.22,4-1.85,4.81-1.33.4.26.75-.23.59-.59h0l-.38.65h0c.47,0,.53-.57.22-.81-.78-.59-.16-4.28-.34-5.28A7.21,7.21,0,0,0,35,23.73c-1.71-2.05-4.14-2.8-6.53-1.37a10,10,0,0,0-4.39,6.87c-.15,2.84,1.86,4.36,4.34,5.12.53.17.76-.67.23-.83-3.75-1.16-4.45-4.15-2.53-7.33s5.34-5.29,8.21-1.88c1.71,2,1.36,4.1,1.56,6.54,0,.7.06,1.82.66,2.28l.22-.81h0a.44.44,0,0,0-.37.65h0l.59-.59c-.54-.34-1.83,0-2.41.21-2.08.57-3.65,1.47-5.92.93C28.11,33.39,27.88,34.23,28.42,34.35Z" style="fill:#140022"/><path d="M33.55,23.34c.76,2.37.85,5.2-.95,7.16a8.24,8.24,0,0,1-6,2.17.2.2,0,0,0,0,.39c2.37.06,5.17-.74,6.63-2.72s1.48-4.73.71-7.1c-.08-.24-.46-.14-.38.1Z" style="fill:#140022"/><path d="M35.09,32h0c.31.22.61-.29.3-.51h0c-.32-.22-.61.29-.3.51Z" style="fill:#140022"/><path d="M35.36,19.28a6.73,6.73,0,0,0,1-1.77c.75-2,.05-4.4,1.11-6.26h0c-2.13.11-4-1.61-6.08-1.85a6.76,6.76,0,0,0-2.05.14,5.67,5.67,0,0,0-3.62,2,4.56,4.56,0,0,0-.59,3.52A8.25,8.25,0,0,0,26.53,18a8.21,8.21,0,0,0,2,2.53,4.53,4.53,0,0,0,3.4,1.07A5.67,5.67,0,0,0,35.36,19.28Z" style="fill:#9600b8"/><path d="M35.73,19.5a6.9,6.9,0,0,0,1.38-3c.18-1-.13-4.33.63-4.84a.43.43,0,0,0-.22-.8h0l.37.65h0a.44.44,0,0,0-.59-.6c-1,.59-3.84-1.47-5.06-1.76a7.38,7.38,0,0,0-3.67.18c-2.43.71-4.11,2.47-3.92,5.11a9.89,9.89,0,0,0,4.58,7.09c2.53,1.29,4.74.08,6.43-1.91.36-.42-.25-1-.61-.61-1.14,1.34-2.44,2.55-4.46,2.12-1.78-.37-2.81-1.88-3.69-3.32-1.76-2.88-2.07-6.48,1.9-7.64,2.28-.67,3.85.07,5.88.89.7.27,2.27,1,3.06.6L37.15,11h0a.44.44,0,0,0,.38.65h0l-.22-.8c-.45.3-.64,1.38-.73,1.85-.43,2.28-.11,4.33-1.59,6.33C34.65,19.51,35.4,19.94,35.73,19.5Z" style="fill:#140022"/><path d="M27.63,10.49c5.38.5,8.1,5,5.81,10-.11.23.23.43.34.2,2.42-5.29-.44-10.11-6.15-10.64-.25,0-.25.37,0,.39Z" style="fill:#140022"/><path d="M36.14,12.51h0c.32-.2,0-.71-.3-.51h0a.3.3,0,0,0,.3.51Z" style="fill:#140022"/><path d="M33.94,28.29a6.75,6.75,0,0,0,1.89-.81c1.79-1.17,2.64-3.53,4.59-4.4h0C38.64,21.9,38.17,19.44,36.6,18a6.57,6.57,0,0,0-1.74-1.1,5.64,5.64,0,0,0-4.11-.5,4.49,4.49,0,0,0-2.55,2.49A8.24,8.24,0,0,0,27.57,22a8.3,8.3,0,0,0,.12,3.22,4.47,4.47,0,0,0,2.11,2.86A5.68,5.68,0,0,0,33.94,28.29Z" style="fill:#9600b8"/><path d="M34.06,28.7A6.89,6.89,0,0,0,37,27.11c.67-.64,2.47-3.64,3.46-3.6.47,0,.54-.57.22-.8h0v.74h0c.43-.22.17-.75-.21-.8-1-.14-2.25-3.49-3-4.36A6.75,6.75,0,0,0,35,16.48c-2.48-1.12-5.27-.94-6.81,1.54a10,10,0,0,0-.62,8.15c1.21,2.73,3.81,3.15,6.51,2.53.54-.12.31-.95-.23-.83-4.32,1-6.14-2-5.82-5.83.33-4,3.1-6.84,7.25-4.46,2,1.14,2.39,3.12,3.77,4.77.34.41.82,1.09,1.4,1.16l-.22-.8h0a.43.43,0,0,0,0,.74h0l.21-.8c-.63,0-1.62,1-2,1.39-1.5,1.57-2.4,3.13-4.63,3.83C33.3,28,33.52,28.87,34.06,28.7Z" style="fill:#140022"/><path d="M32.86,16.61c2,1.75,3.5,4.26,2.74,7a8.43,8.43,0,0,1-4,4.58c-.22.12,0,.46.2.34,5-2.83,5.58-8.39,1.32-12.2-.19-.16-.47.11-.28.28Z" style="fill:#140022"/><path d="M38.59,23.28h0c.38,0,.38-.56,0-.59h0c-.38,0-.37.56,0,.59Z" style="fill:#140022"/><path d="M21.92,36.2a6.46,6.46,0,0,0,1.68,1.18c1.94.9,4.4.37,6.17,1.56h0c.05-2.13,1.9-3.83,2.29-5.93a7,7,0,0,0,0-2,5.66,5.66,0,0,0-1.75-3.76,4.52,4.52,0,0,0-3.46-.84,7.89,7.89,0,0,0-3,1.14,8.25,8.25,0,0,0-2.67,1.79,4.49,4.49,0,0,0-1.31,3.32A5.61,5.61,0,0,0,21.92,36.2Z" style="fill:#9600b8"/><path d="M21.62,36.51a7,7,0,0,0,2.88,1.62c1.14.3,4.34.07,4.9,1a.43.43,0,0,0,.8-.22h0l-.65.37h0a.43.43,0,0,0,.59-.59c-.47-1,1.8-3.75,2.16-4.92a7.36,7.36,0,0,0,.07-3.67c-.57-2.61-2.36-4.41-5.15-4.24A9.89,9.89,0,0,0,20.15,30c-1.46,2.43-.38,4.72,1.47,6.55a.43.43,0,0,0,.61-.61c-3.08-3-1.73-6.24,1.84-8,3-1.51,6.58-1.63,7.47,2.5.54,2.53-.68,4.17-1.61,6.33-.25.57-.84,1.81-.53,2.47l.59-.6h0a.44.44,0,0,0-.65.38h0l.8-.22c-.32-.56-1.7-.83-2.21-.94-2.12-.46-3.93-.37-5.7-1.89C21.81,35.54,21.19,36.14,21.62,36.51Z" style="fill:#140022"/><path d="M31.26,29.1c-.38,2.26-1.36,4.47-3.47,5.61s-5,.6-7-.52a.2.2,0,0,0-.2.34c5.05,2.78,10.1.31,11.05-5.33,0-.24-.34-.35-.38-.1Z" style="fill:#140022"/><path d="M28.62,37.49v0c.18.34.69,0,.51-.3h0c-.17-.34-.68,0-.51.29Z" style="fill:#140022"/><path d="M32.19,12.28a7.11,7.11,0,0,0,0-2.06C31.84,8.12,30,6.4,30,4.26h0c-1.79,1.17-4.23.61-6.18,1.48a6.57,6.57,0,0,0-1.7,1.16A5.65,5.65,0,0,0,20,10.47a4.51,4.51,0,0,0,1.27,3.33,8.39,8.39,0,0,0,2.64,1.83,8.26,8.26,0,0,0,3,1.18,4.53,4.53,0,0,0,3.47-.8A5.66,5.66,0,0,0,32.19,12.28Z" style="fill:#9600b8"/><path d="M32.62,12.28a7.07,7.07,0,0,0-.42-3.53c-.34-.86-2.22-3.47-1.83-4.27.18-.38-.2-.83-.59-.6h0l.65.37h0A.44.44,0,0,0,29.62,4c-.59,1-4.07.67-5.26,1a7.31,7.31,0,0,0-3.07,2c-1.74,1.83-2.31,4.2-.81,6.39A9.83,9.83,0,0,0,28,17.28c2.83-.16,4.13-2.32,4.58-4.89.1-.54-.73-.77-.83-.23-.31,1.73-.82,3.44-2.78,4.1-1.73.57-3.36-.23-4.85-1-3-1.58-5-4.59-2.24-7.56C23.53,6,25.27,5.82,27.44,5.49c.72-.11,2.49-.25,2.93-1l-.81-.21h0a.43.43,0,0,0,.65.37h0L29.62,4c-.31.64.25,1.86.48,2.41.83,2,1.9,3.52,1.65,5.83C31.7,12.83,32.56,12.83,32.62,12.28Z" style="fill:#140022"/><path d="M21.08,8.6c5-2.28,9.55.33,10.09,5.74,0,.25.42.25.39,0C31,8.56,26.12,5.85,20.88,8.26c-.23.11,0,.45.2.34Z" style="fill:#140022"/><path d="M29.44,6.05V6c.18-.33-.33-.63-.51-.3v0c-.18.34.33.63.51.3Z" style="fill:#140022"/><path d="M4.86,21.44A6.87,6.87,0,0,0,3.49,23c-1.11,1.83-.88,4.32-2.27,5.94h0c2.12.3,3.59,2.33,5.63,3a6.35,6.35,0,0,0,2,.25,5.62,5.62,0,0,0,3.93-1.3,4.47,4.47,0,0,0,1.24-3.33,8.16,8.16,0,0,0-.78-3.13,8.11,8.11,0,0,0-1.47-2.86,4.55,4.55,0,0,0-3.14-1.69A5.67,5.67,0,0,0,4.86,21.44Z" style="fill:#9600b8"/><path d="M4.56,21.14a6.81,6.81,0,0,0-1.94,2.68c-.3.8-.76,4.38-1.52,4.68-.35.14-.46.74,0,.83h0L.85,28.7h0a.44.44,0,0,0,.49.63C2.38,29,5,31.54,6,32a7.25,7.25,0,0,0,3.63.53c2.51-.22,4.52-1.6,4.85-4.24a9.9,9.9,0,0,0-3.14-7.84c-2.28-1.8-4.67-.95-6.75.69-.44.34.17.95.61.61,3.94-3.1,6.81-.25,8,3.49,1.1,3.46-.36,6.44-4.28,6.46-2.36,0-3.6-1.31-5.51-2.4-.57-.32-1.63-1-2.28-.8l.49.64h0a.43.43,0,0,0-.26-.63h0v.83c.64-.25.92-1.23,1.15-1.83.8-2.16.86-4.07,2.69-5.75C5.58,21.37,5,20.76,4.56,21.14Z" style="fill:#140022"/><path d="M10.8,31.54C5.54,30,3.83,25,7,20.53c.15-.21-.19-.4-.34-.2-3.38,4.73-1.43,10,4,11.59.24.07.34-.31.1-.38Z" style="fill:#140022"/><path d="M2.83,27.93h0c-.35.14-.2.71.15.57H3c.35-.13.2-.7-.16-.57Z" style="fill:#140022"/><path d="M7.77,12.27a6.5,6.5,0,0,0-2,.43c-2,.82-3.25,3-5.33,3.47h0c1.54,1.48,1.53,4,2.81,5.7a6.66,6.66,0,0,0,1.5,1.4,5.68,5.68,0,0,0,3.95,1.26,4.5,4.5,0,0,0,3-2,8.27,8.27,0,0,0,1.2-3,8.27,8.27,0,0,0,.49-3.18A4.53,4.53,0,0,0,11.8,13.2,5.61,5.61,0,0,0,7.77,12.27Z" style="fill:#9600b8"/><path d="M7.77,11.84a7,7,0,0,0-3.16,1c-.94.59-3.09,3.15-4.07,2.91a.43.43,0,0,0-.42.72h0l.19-.72h0a.43.43,0,0,0,0,.83C1.42,17,1.84,20.4,2.48,21.5a7.31,7.31,0,0,0,2.76,2.62c2.4,1.36,5,1.08,6.72-1.24,1.47-2,2.4-5.6,1.5-8s-3.26-3.14-5.69-3c-.56,0-.56.89,0,.86,3.83-.18,5.71,2.33,4.91,6s-3.29,7-7.36,4.45C3.2,21.8,2.9,19.87,2,17.77c-.24-.54-.74-1.8-1.41-2v.83h0a.43.43,0,0,0,.19-.72h0l-.42.72c.64.16,1.77-.67,2.21-1C4.29,14.38,5.46,13,7.77,12.7,8.31,12.64,8.32,11.77,7.77,11.84Z" style="fill:#140022"/><path d="M6.66,24C5.2,22,4.18,19.61,5,17.2c.73-2.15,2.94-3.71,5-4.4.24-.08.14-.46-.1-.38-5.47,1.83-7.07,7.19-3.59,11.73.15.2.49,0,.34-.2Z" style="fill:#140022"/><path d="M2.29,16.32h0a.3.3,0,0,0-.16.57h0a.3.3,0,0,0,.16-.57Z" style="fill:#140022"/><path d="M13.75,6.37a6.5,6.5,0,0,0-1.95-.65c-2.11-.3-4.31.91-6.35.28h0C6,8.06,4.73,10.21,5,12.34a6.88,6.88,0,0,0,.59,2A5.62,5.62,0,0,0,8.3,17.4a4.51,4.51,0,0,0,3.56-.18,8.25,8.25,0,0,0,2.55-2,8.15,8.15,0,0,0,2-2.49,4.5,4.5,0,0,0,.31-3.55A5.61,5.61,0,0,0,13.75,6.37Z" style="fill:#9600b8"/><path d="M14,6a7.28,7.28,0,0,0-3-.75c-1.22,0-4.45,1.21-5.26.45A.43.43,0,0,0,5,6.11H5l.53-.53h0a.43.43,0,0,0-.42.72c.77.84-.75,4.73-.6,6.1a7.8,7.8,0,0,0,1.74,4,4.71,4.71,0,0,0,5.8,1.23,10.19,10.19,0,0,0,5.07-5.39C18.09,9.35,16.39,7.27,14,6c-.49-.26-.93.49-.43.75,3.5,1.85,3.67,5,1.05,7.77-2,2.13-5,4.12-7.57,1.34C5,13.59,5.53,11.19,5.9,8.47c.09-.65.38-2.2-.15-2.78l-.42.72h0a.43.43,0,0,0,.53-.53h0l-.72.42c.49.45,1.69.31,2.26.28,2.18-.15,4-.8,6.14.16C14,7,14.48,6.22,14,6Z" style="fill:#140022"/><path d="M6.86,15.86c-.29-2.3,0-4.84,1.83-6.49S13.18,7.49,15.42,8c.24,0,.35-.33.1-.38-2.18-.47-4.95-.27-6.74,1.18-2.14,1.72-2.64,4.49-2.32,7.09,0,.25.43.25.4,0Z" style="fill:#140022"/><path d="M7,7.06H7a.3.3,0,0,0-.42.42h0A.3.3,0,0,0,7,7.06Z" style="fill:#140022"/><path d="M22,4.93A6.66,6.66,0,0,0,20.6,3.42c-1.7-1.3-4.21-1.31-5.68-2.86h0c-.52,2.07-2.69,3.33-3.52,5.29a6.84,6.84,0,0,0-.46,2,5.67,5.67,0,0,0,.89,4A4.54,4.54,0,0,0,15,13.48,8.46,8.46,0,0,0,18.22,13a8.18,8.18,0,0,0,3-1.18,4.51,4.51,0,0,0,2-2.95A5.73,5.73,0,0,0,22,4.93Z" style="fill:#9600b8"/><path d="M22.36,4.72A7.08,7.08,0,0,0,19.9,2.5c-1-.51-4.29-1.1-4.56-2.06a.44.44,0,0,0-.84,0h0l.72-.19h0a.43.43,0,0,0-.72.42C14.75,1.8,12,3.9,11.35,5a7.29,7.29,0,0,0-.88,3.57c0,2.48,1.17,4.64,3.72,5.21a10,10,0,0,0,7.91-2.09c2.2-2,1.73-4.65.26-7-.3-.47-1.05,0-.75.43,2.4,3.79.27,6.45-3.51,7.45-3.49.92-7-.1-6.75-4.39.15-2.47,1.62-3.68,3-5.53.35-.49,1.19-1.55,1-2.24l-.72.42h0a.44.44,0,0,0,.73-.19H14.5c.18.62,1.48,1.18,1.95,1.4,2,.92,3.77,1.22,5.16,3.08C21.94,5.59,22.69,5.16,22.36,4.72Z" style="fill:#140022"/><path d="M11.35,9.8c1.07-2.61,3-4.77,6-4.78a8.2,8.2,0,0,1,5.28,2.12c.19.17.47-.11.28-.27C18.56,3,13.14,4.41,11,9.7c-.1.23.28.34.38.1Z" style="fill:#140022"/><path d="M15.73,2.23v0a.3.3,0,0,0-.57.16v0a.3.3,0,0,0,.57-.16Z" style="fill:#140022"/><path d="M11.48,34.77a6.56,6.56,0,0,0,.47,2c.85,2,3,3.2,3.55,5.27h0c1.46-1.56,4-1.59,5.65-2.9a6.65,6.65,0,0,0,1.38-1.52,5.69,5.69,0,0,0,1.2-4,4.55,4.55,0,0,0-2-2.94,8.24,8.24,0,0,0-3-1.15,8.31,8.31,0,0,0-3.19-.44,4.52,4.52,0,0,0-3.19,1.6A5.65,5.65,0,0,0,11.48,34.77Z" style="fill:#9600b8"/><path d="M11.05,34.77a7.06,7.06,0,0,0,1,3.14c.61.93,3.2,3,3,4a.44.44,0,0,0,.73.42h0l-.72-.19h0a.43.43,0,0,0,.83,0c.32-1.11,3.79-1.6,4.87-2.25a7.39,7.39,0,0,0,2.58-2.8c1.32-2.42,1-5.07-1.35-6.7C20,29,16.39,28.1,14,29s-3.09,3.29-2.93,5.73c0,.55.89.56.86,0-.24-3.78,2.28-5.74,5.91-5s7.09,3.16,4.57,7.27c-1.31,2.15-3.23,2.49-5.31,3.46-.52.25-1.8.78-2,1.44h.83a.44.44,0,0,0-.72-.19h0l.72.42c.14-.65-.69-1.74-1-2.19-1.26-1.75-2.7-2.9-3-5.2C11.84,34.23,11,34.22,11.05,34.77Z" style="fill:#140022"/><path d="M23.14,35.72c-2.09,1.65-4.76,2.65-7.33,1.43A8.2,8.2,0,0,1,12,32.52c-.09-.24-.47-.14-.38.1,1.93,5.47,7.33,6.93,11.82,3.38.19-.16-.09-.44-.28-.28Z" style="fill:#140022"/><path d="M15.62,40.18v0a.29.29,0,0,0,.57.15h0c.09-.37-.48-.53-.57-.16Z" style="fill:#140022"/><path d="M6,28.85a6.85,6.85,0,0,0-.54,2c-.19,2.13,1.13,4.26.6,6.33h0c2-.67,4.25.5,6.36.16a6.5,6.5,0,0,0,1.94-.68,5.61,5.61,0,0,0,2.94-2.91A4.52,4.52,0,0,0,17,30.19a8.19,8.19,0,0,0-2.09-2.45,8.22,8.22,0,0,0-2.59-1.91,4.5,4.5,0,0,0-3.56-.12A5.63,5.63,0,0,0,6,28.85Z" style="fill:#9600b8"/><path d="M5.6,28.74A6.74,6.74,0,0,0,5.08,32c.1,1,1.27,4.17.68,4.83a.43.43,0,0,0,.42.72h0l-.53-.53h0a.43.43,0,0,0,.72.42c.79-.79,4.77.48,6.06.29a7.77,7.77,0,0,0,3.37-1.49,4.7,4.7,0,0,0,1.67-6,10,10,0,0,0-6.14-5.22c-2.78-.58-4.59,1.18-5.69,3.54-.23.5.51.94.75.44,3.75-8.06,13.88,1.84,9.44,6.07-2.26,2.16-4.54,1.65-7.3,1.45-.64,0-2.21-.29-2.77.27l.72.42h0A.43.43,0,0,0,6,36.75H6l.42.72c.36-.4.26-1.51.22-2-.2-2.3-1-4.2-.16-6.51C6.63,28.45,5.79,28.22,5.6,28.74Z" style="fill:#140022"/><path d="M15.8,35.26c-2.38.43-4.93.13-6.7-1.66C7.53,32,7.18,29.25,7.53,27.12c0-.25-.34-.35-.38-.1-.37,2.28,0,5.13,1.67,6.85,1.86,1.92,4.58,2.22,7.09,1.77.25,0,.14-.42-.11-.38Z" style="fill:#140022"/><path d="M7.07,35.58h0c-.25.28.16.7.42.42h0c.26-.28-.15-.7-.41-.42Z" style="fill:#140022"/><path d="M12.4,33.94a6.74,6.74,0,0,1-2,.27c-2.13-.1-4.07-1.7-6.19-1.46h0c.94-1.92.08-4.27.7-6.32a6.75,6.75,0,0,1,.94-1.83,5.69,5.69,0,0,1,3.28-2.52,4.53,4.53,0,0,1,3.46.84,8.09,8.09,0,0,1,2.15,2.4,8.23,8.23,0,0,1,1.54,2.83,4.54,4.54,0,0,1-.36,3.54A5.69,5.69,0,0,1,12.4,33.94Z" style="fill:#9600b8"/><path d="M12.28,33.52c-2.3.54-3.82-.36-5.92-.93C5.73,32.41,4.52,32,4,32.38l.59.59h0a.44.44,0,0,0-.37-.65h0l.3.74c.58-.45.56-1.91.6-2.61C5.22,27.87,5,25.81,7,23.8c4.9-4.91,13.84,7.07,5.26,9.72-.53.16-.3,1,.23.83,2.32-.71,4.32-2.09,4.36-4.75s-2.22-5.93-4.41-7.24a4.74,4.74,0,0,0-6.29,1.1,7.46,7.46,0,0,0-1.8,3.25c-.29,1.23.45,5-.51,5.74-.3.23,0,.75.31.74h0l-.38-.65h0c-.15.36.19.85.59.59.83-.53,4,1.13,4.81,1.33a6.91,6.91,0,0,0,3.32-.11C13.05,34.23,12.82,33.39,12.28,33.52Z" style="fill:#140022"/><path d="M7,23.24c-.76,2.37-.85,5,.71,7.1s4.26,2.78,6.63,2.72a.2.2,0,0,0,0-.39,8.28,8.28,0,0,1-6-2.17c-1.79-1.95-1.71-4.8-1-7.16.08-.24-.3-.34-.38-.1Z" style="fill:#140022"/><path d="M5.55,31.49h0c-.31.22,0,.73.3.51h0c.31-.22,0-.73-.29-.51Z" style="fill:#140022"/><path d="M7,28.29a6.75,6.75,0,0,1-1.89-.81C3.31,26.31,2.46,24,.51,23.08h0C2.3,21.9,2.76,19.44,4.33,18a6.74,6.74,0,0,1,1.74-1.1,5.65,5.65,0,0,1,4.11-.5,4.49,4.49,0,0,1,2.55,2.49A8.24,8.24,0,0,1,13.36,22a8.3,8.3,0,0,1-.11,3.22,4.52,4.52,0,0,1-2.12,2.86A5.68,5.68,0,0,1,7,28.29Z" style="fill:#9600b8"/><path d="M7.11,27.87C4.84,27.16,4,25.61,2.48,24c-.39-.39-1.34-1.42-2-1.39l.22.8h0a.43.43,0,0,0,0-.74h0l-.22.8c.58-.07,1-.74,1.4-1.16,1.36-1.64,1.78-3.63,3.76-4.77a5.92,5.92,0,0,1,5-.51c1.86.78,2.16,3.29,2.3,5,.31,3.86-1.51,6.82-5.82,5.83-.54-.12-.78.71-.23.83,2.67.62,5.3.21,6.5-2.53A9.89,9.89,0,0,0,12.76,18c-1.57-2.47-4.29-2.67-6.8-1.54a7,7,0,0,0-2.49,1.81c-.68.81-1.95,4.22-3,4.36-.38.05-.64.58-.22.8h0v-.74h0c-.32.23-.25.82.22.8,1,0,2.84,3,3.46,3.6A6.87,6.87,0,0,0,6.88,28.7C7.41,28.87,7.64,28,7.11,27.87Z" style="fill:#140022"/><path d="M7.79,16.33c-4.25,3.8-3.72,9.37,1.32,12.2.22.12.42-.22.2-.34a8.54,8.54,0,0,1-4-4.58c-.75-2.72.78-5.25,2.74-7,.19-.17-.09-.44-.28-.28Z" style="fill:#140022"/><path d="M2.34,22.69h0c-.38,0-.38.62,0,.59h0c.37,0,.38-.62,0-.59Z" style="fill:#140022"/><path d="M19,36.2a6.46,6.46,0,0,1-1.68,1.18c-1.94.9-4.39.37-6.16,1.56h0c-.05-2.13-1.89-3.83-2.29-5.93a7,7,0,0,1,0-2,5.71,5.71,0,0,1,1.75-3.76,4.52,4.52,0,0,1,3.46-.84,7.89,7.89,0,0,1,3,1.14,8.25,8.25,0,0,1,2.67,1.79,4.49,4.49,0,0,1,1.31,3.32A5.61,5.61,0,0,1,19,36.2Z" style="fill:#9600b8"/><path d="M18.71,35.9c-1.78,1.52-3.59,1.44-5.71,1.89-.54.12-1.89.38-2.21.94l.81.22h0a.44.44,0,0,0-.65-.38h0l.59.6c.31-.66-.28-1.9-.52-2.47-.95-2.15-2.15-3.83-1.61-6.33.9-4.17,4.45-4,7.47-2.5,3.56,1.79,4.92,5,1.84,8-.4.39.21,1,.61.61,1.73-1.72,2.85-3.85,1.65-6.24s-4.69-4.22-7.26-4.37a4.74,4.74,0,0,0-5.06,3.89,7.41,7.41,0,0,0-.1,3.68c.31,1.22,2.71,4.27,2.24,5.26a.43.43,0,0,0,.59.59h0L10.73,39h0a.44.44,0,0,0,.81.22c.53-.93,3.88-.77,4.89-1a6.91,6.91,0,0,0,2.89-1.62C19.74,36.14,19.13,35.54,18.71,35.9Z" style="fill:#140022"/><path d="M9.3,29.2c.94,5.63,6,8.11,11.05,5.33a.2.2,0,0,0-.2-.34c-2,1.12-4.87,1.67-7,.52A7.39,7.39,0,0,1,9.68,29.1c0-.25-.42-.14-.38.1Z" style="fill:#140022"/><path d="M11.8,37.2h0c-.17.34.33.64.51.3v0c.17-.33-.34-.63-.51-.29Z" style="fill:#140022"/><path d="M8.75,12.28a6.47,6.47,0,0,1,0-2.06c.36-2.1,2.18-3.82,2.21-6h0c1.79,1.17,4.23.61,6.18,1.48a6.57,6.57,0,0,1,1.7,1.16,5.61,5.61,0,0,1,2.1,3.57,4.54,4.54,0,0,1-1.26,3.33A8.44,8.44,0,0,1,17,15.63a8.28,8.28,0,0,1-3,1.18,4.55,4.55,0,0,1-3.48-.8A5.61,5.61,0,0,1,8.75,12.28Z" style="fill:#9600b8"/><path d="M9.18,12.28C8.93,10,10,8.48,10.83,6.45c.23-.55.79-1.77.48-2.41l-.59.59h0a.43.43,0,0,0,.65-.37h0l-.8.21c.44.78,2.2.91,2.93,1C15.68,5.83,17.4,6,19,7.7c2.81,3,.77,6-2.24,7.56-1.49.77-3.11,1.57-4.84,1-2-.66-2.48-2.37-2.79-4.1-.09-.54-.93-.31-.83.23.43,2.42,1.57,4.52,4.22,4.87s6.41-1.59,7.9-3.78a4.76,4.76,0,0,0-.57-6.13,7.63,7.63,0,0,0-3-2.15c-1.2-.43-5-.14-5.6-1.16a.43.43,0,0,0-.8.22h0l.65-.37h0c-.39-.23-.77.22-.59.6.42.85-1.49,3.43-1.83,4.27a7.07,7.07,0,0,0-.42,3.53C8.37,12.83,9.24,12.83,9.18,12.28Z" style="fill:#140022"/><path d="M20.05,8.26c-5.24-2.41-10.1.3-10.68,6.08,0,.25.37.25.39,0,.55-5.41,5.14-8,10.09-5.74.23.11.43-.23.2-.34Z" style="fill:#140022"/><path d="M12,5.75v0c-.18-.33-.69,0-.51.3v0c.17.33.68,0,.51-.3Z" style="fill:#140022"/><path d="M5.58,19.28a6.5,6.5,0,0,1-1.06-1.77c-.75-2,0-4.4-1.1-6.26h0c2.13.11,4-1.61,6.08-1.85a6.73,6.73,0,0,1,2.05.14,5.65,5.65,0,0,1,3.62,2,4.56,4.56,0,0,1,.59,3.52A8.25,8.25,0,0,1,14.4,18a8.07,8.07,0,0,1-2,2.53A4.53,4.53,0,0,1,9,21.59,5.62,5.62,0,0,1,5.58,19.28Z" style="fill:#9600b8"/><path d="M6,19.06c-1.49-2-1.14-4-1.59-6.33-.1-.53-.25-1.54-.73-1.85l-.22.8h0A.44.44,0,0,0,3.79,11h0l-.59.59c.77.45,2.36-.33,3.05-.6,2.06-.81,3.61-1.56,5.88-.89,4,1.17,3.67,4.77,1.9,7.64-.88,1.44-1.91,2.95-3.69,3.32-2,.43-3.32-.78-4.46-2.12-.36-.42-1,.19-.61.61,1.59,1.87,3.64,3.11,6.1,2.07S16.1,17,16.29,14.4a4.77,4.77,0,0,0-3.59-5A7.36,7.36,0,0,0,9,9.05c-1.25.23-4.4,2.4-5.41,1.82a.44.44,0,0,0-.59.6H3l.37-.65h0a.43.43,0,0,0-.22.8c.76.51.46,3.86.64,4.84a6.83,6.83,0,0,0,1.37,3C5.53,19.94,6.28,19.51,6,19.06Z" style="fill:#140022"/><path d="M13.3,10.1c-5.71.53-8.57,5.35-6.14,10.64.1.23.44,0,.34-.2-2.29-5,.42-9.55,5.8-10,.25,0,.26-.42,0-.39Z" style="fill:#140022"/><path d="M5.09,12h0c-.33-.2-.62.31-.3.51h0c.32.2.62-.31.29-.51Z" style="fill:#140022"/><path d="M14.76,35.07a6.45,6.45,0,0,0,1,1.82c1.31,1.69,3.73,2.35,4.76,4.22h0c1-1.87,3.44-2.53,4.76-4.22a6.71,6.71,0,0,0,.95-1.82,5.71,5.71,0,0,0,.17-4.14,4.53,4.53,0,0,0-2.69-2.34,8.16,8.16,0,0,0-3.19-.37,8.24,8.24,0,0,0-3.2.37,4.55,4.55,0,0,0-2.69,2.34A5.66,5.66,0,0,0,14.76,35.07Z" style="fill:#9600b8"/><path d="M14.34,35.18A7,7,0,0,0,16.15,38C17,38.71,20,40.09,20,41.11a.44.44,0,0,0,.81.22H20.1a.43.43,0,0,0,.8-.22c0-1.14,3.28-2.49,4.16-3.39a7.24,7.24,0,0,0,1.79-3.35c.64-2.54-.14-4.9-2.63-6a10.06,10.06,0,0,0-7.84.15c-2.66,1.4-2.87,4.06-2,6.67.17.53,1,.31.83-.23-1.36-4.3,1.46-6.28,5.3-6.3s6.88,2,5.29,6.3c-.81,2.22-2.53,2.91-4.2,4.3-.48.4-1.51,1.17-1.52,1.86l.8-.21h0a.44.44,0,0,0-.75,0h0l.81.21c0-.66-1.11-1.51-1.53-1.86-1.66-1.38-3.33-2.14-4.2-4.3C15,34.45,14.13,34.67,14.34,35.18Z" style="fill:#140022"/><path d="M26.29,33.08c-1.62,2.13-3.95,3.76-6.74,3.22a8.27,8.27,0,0,1-4.87-3.54c-.14-.21-.48,0-.34.2,3.23,4.82,8.83,4.88,12.28.32.16-.2-.18-.4-.33-.2Z" style="fill:#140022"/><path d="M20.12,39.28v0a.3.3,0,0,0,.59,0v0a.3.3,0,0,0-.59,0Z" style="fill:#140022"/><path d="M26.18,8a6.86,6.86,0,0,0-.95-1.82c-1.32-1.69-3.73-2.34-4.76-4.22h0c-1,1.88-3.45,2.53-4.76,4.22a6.58,6.58,0,0,0-1,1.82,5.66,5.66,0,0,0-.18,4.14,4.55,4.55,0,0,0,2.69,2.34,8.24,8.24,0,0,0,3.2.37,8.16,8.16,0,0,0,3.19-.37,4.53,4.53,0,0,0,2.69-2.34A5.71,5.71,0,0,0,26.18,8Z" style="fill:#9600b8"/><path d="M26.6,7.87a7.17,7.17,0,0,0-1.81-2.78C24,4.35,20.92,2.93,20.9,1.94a.43.43,0,0,0-.8-.22h.74a.44.44,0,0,0-.81.22C20,3.11,16.77,4.42,15.88,5.33a7.31,7.31,0,0,0-1.8,3.35c-.63,2.54.15,4.9,2.63,6a10.09,10.09,0,0,0,7.85-.15c2.65-1.4,2.86-4.06,2-6.67-.17-.53-1-.31-.84.23,1.37,4.3-1.45,6.28-5.29,6.3s-6.89-2-5.3-6.3c.82-2.22,2.54-2.91,4.2-4.3.49-.41,1.5-1.16,1.53-1.86l-.81.22h0a.44.44,0,0,0,.75,0h0L20,1.94c0,.65,1.12,1.52,1.52,1.86,1.66,1.38,3.33,2.14,4.2,4.3C26,8.61,26.8,8.38,26.6,7.87Z" style="fill:#140022"/><path d="M14.65,10c1.61-2.13,4-3.76,6.74-3.22a8.27,8.27,0,0,1,4.87,3.54c.14.21.48,0,.34-.2-3.23-4.82-8.83-4.88-12.29-.32-.15.2.19.4.34.2Z" style="fill:#140022"/><path d="M20.82,3.77v0a.3.3,0,0,0-.59,0v0a.3.3,0,0,0,.59,0Z" style="fill:#140022"/><circle cx="20.56" cy="21.25" r="12.72" style="fill:#d519ff"/><path d="M20.56,33.53c-6.65-.36-12.28-5.35-12.28-12.28A12.46,12.46,0,0,1,20.56,9a12.36,12.36,0,0,1,12.15,11c.77,7.42-4.91,13.2-12.15,13.59-.55,0-.55.9,0,.87C27.7,34,33.71,28.7,33.71,21.25A13.28,13.28,0,0,0,20.56,8.1,13.26,13.26,0,0,0,7.45,20.55C7.05,28.27,13.14,34,20.56,34.4,21.12,34.43,21.12,33.56,20.56,33.53Z" style="fill:#140022"/><path d="M24.58,15.27a1.15,1.15,0,0,0,0-2.3,1.15,1.15,0,0,0,0,2.3Z" style="fill:#fff"/><path d="M20.47,17.21a7.14,7.14,0,0,0,8.22,0c1.21-.83.06-2.83-1.16-2a4.92,4.92,0,0,1-5.89,0c-1.23-.84-2.38,1.15-1.17,2Z" style="fill:#fff"/><path d="M15.94,19.71c2.21-1.86,3.54,1.21,2,1.64-.87.24-1.23,1.7-.28,2.11,2.17.92,1.49,3.35-.66,3.54-1.94.18-2.84-1.41-2.77-3.17.07-1.48-2.23-1.48-2.3,0-.17,3.93,3.23,6.66,7,5.06a4,4,0,0,0-.11-7.42l-.28,2.1c2.36-.65,3-3.47,1.77-5.47-1.46-2.43-4.24-1.51-6,0-1.14,1,.5,2.58,1.63,1.63Z" style="fill:#fff"/><path d="M18.13,23.58a3.54,3.54,0,0,0,3.87.67c.76-.31,1.36-.89,2.12-1.2a1.8,1.8,0,0,1,1.66,0c.55.43.71,2.24-.41,2.23a1.15,1.15,0,0,0,0,2.3c2.69,0,4.07-3.44,2.62-5.57a3.81,3.81,0,0,0-3.42-1.46c-1.37.12-3.63,2.39-4.81,1.4s-2.77.67-1.63,1.63Z" style="fill:#fff"/></g></g></svg>