<svg xmlns="http://www.w3.org/2000/svg" viewBox="0 0 44.84 44.84">
    <title>Asset 3</title>
    <g id="Layer_2" data-name="Layer 2">
        <g id="OBJECTS">
        <g>
            <path
                d="M35.39,30.94a9.8,9.8,0,0,0,2.72-1.42c2.52-2,3.5-5.57,6.29-7.1h0c-2.79-1.53-3.77-5.14-6.29-7.1a10.07,10.07,0,0,0-2.72-1.42,8.45,8.45,0,0,0-6.17-.25,6.72,6.72,0,0,0-3.49,4,12.2,12.2,0,0,0-.55,4.77,12.18,12.18,0,0,0,.55,4.77,6.77,6.77,0,0,0,3.49,4A8.46,8.46,0,0,0,35.39,30.94Z"
                style="fill:#bf0b2c" />
            <path
                d="M35.51,31.36a10.21,10.21,0,0,0,4.05-2.64c1.17-1.3,3.2-5.81,4.85-5.86a.44.44,0,0,0,.22-.82v.76a.44.44,0,0,0-.22-.82c-1.86-.05-3.79-4.88-5.2-6.26a10.72,10.72,0,0,0-4.92-2.63c-3.7-.92-7.11.21-8.72,3.84a14.73,14.73,0,0,0,.22,11.49c2,3.88,5.9,4.15,9.72,2.94.54-.17.31-1-.23-.84-6.56,2.07-9.64-2.25-9.66-8.1s3.07-10.5,9.66-8.09c3.34,1.22,4.4,3.79,6.5,6.32.55.65,1.67,2.18,2.63,2.21L44.19,22h0a.44.44,0,0,0,0,.76h0l.22-.82c-.9,0-2.19,1.68-2.63,2.22-2.09,2.51-3.24,5-6.5,6.32C34.76,30.73,35,31.58,35.51,31.36Z"
                style="fill:#140022" />
            <path
                d="M32.43,13.74c3.17,2.41,5.61,5.89,4.8,10A12.28,12.28,0,0,1,32,31.06c-.31.21,0,.72.3.5,7.19-4.81,7.28-13.17.48-18.32-.3-.23-.6.28-.3.5Z"
                style="fill:#140022" />
            <path d="M41.67,23h0a.44.44,0,0,0,0-.88h0a.44.44,0,0,0,0,.88Z" style="fill:#140022" />
        </g>
        <g>
            <path
                d="M30.94,9.45a9.8,9.8,0,0,0-1.42-2.72c-2-2.51-5.57-3.5-7.1-6.29h0c-1.53,2.79-5.14,3.78-7.1,6.29A10.07,10.07,0,0,0,13.9,9.45a8.45,8.45,0,0,0-.25,6.17,6.69,6.69,0,0,0,4,3.49,12.2,12.2,0,0,0,4.77.55,12.18,12.18,0,0,0,4.77-.55,6.74,6.74,0,0,0,4-3.49A8.46,8.46,0,0,0,30.94,9.45Z"
                style="fill:#bf0b2c" />
            <path
                d="M31.36,9.33a10.28,10.28,0,0,0-2.64-4c-1.3-1.17-5.81-3.2-5.86-4.85A.44.44,0,0,0,22,.21h.76A.44.44,0,0,0,22,.43c-.08,1.9-4.86,3.78-6.26,5.2a10.77,10.77,0,0,0-2.63,4.92c-.92,3.7.21,7.11,3.84,8.72a14.78,14.78,0,0,0,11.49-.21c3.88-2,4.15-5.91,2.94-9.73-.17-.54-1-.31-.84.24,2.07,6.55-2.25,9.63-8.1,9.65s-10.5-3.07-8.09-9.65c1.22-3.35,3.79-4.4,6.32-6.5.67-.56,2.17-1.67,2.21-2.64L22,.66h0a.45.45,0,0,0,.76,0h0L22,.43c0,.9,1.68,2.19,2.22,2.64,2.51,2.09,5,3.23,6.32,6.5C30.73,10.08,31.58,9.86,31.36,9.33Z"
                style="fill:#140022" />
            <path
                d="M13.74,12.41c2.41-3.17,5.89-5.6,10-4.8a12.32,12.32,0,0,1,7.27,5.28c.21.31.72,0,.5-.3-4.81-7.18-13.17-7.28-18.32-.48-.23.31.28.6.5.3Z"
                style="fill:#140022" />
            <path d="M23,3.17v0a.44.44,0,0,0-.88,0v0a.44.44,0,0,0,.88,0Z" style="fill:#140022" />
        </g>
        <g>
            <path
                d="M9.45,13.9a9.8,9.8,0,0,0-2.72,1.42c-2.51,2-3.5,5.57-6.29,7.1h0c2.79,1.53,3.78,5.14,6.29,7.1a9.8,9.8,0,0,0,2.72,1.42,8.46,8.46,0,0,0,6.17.26,6.74,6.74,0,0,0,3.49-4,12.2,12.2,0,0,0,.55-4.77,12.2,12.2,0,0,0-.55-4.77,6.69,6.69,0,0,0-3.49-4A8.45,8.45,0,0,0,9.45,13.9Z"
                style="fill:#bf0b2c" />
            <path
                d="M9.33,13.48a10.28,10.28,0,0,0-4,2.64C4.11,17.42,2.08,21.93.43,22a.44.44,0,0,0-.22.82V22a.44.44,0,0,0,.22.82c1.89.08,3.78,4.86,5.2,6.26a10.77,10.77,0,0,0,4.92,2.63c3.7.92,7.11-.2,8.72-3.84a14.78,14.78,0,0,0-.21-11.49c-2-3.88-5.91-4.15-9.73-2.94-.54.17-.31,1,.24.85,6.55-2.08,9.63,2.24,9.65,8.09s-3.07,10.5-9.65,8.09c-3.35-1.22-4.4-3.79-6.5-6.31C2.51,23.53,1.4,22,.43,22l.23.82h0a.45.45,0,0,0,0-.76h0l-.23.82c.9,0,2.19-1.68,2.64-2.22,2.09-2.51,3.23-5,6.5-6.31C10.08,14.12,9.86,13.27,9.33,13.48Z"
                style="fill:#140022" />
            <path
                d="M12.41,31.1c-3.17-2.4-5.6-5.89-4.8-10a12.35,12.35,0,0,1,5.28-7.27c.31-.2,0-.71-.3-.5C5.41,18.1,5.31,26.45,12.11,31.6c.31.23.6-.28.3-.5Z"
                style="fill:#140022" />
            <path d="M3.17,21.9h0a.44.44,0,0,0,0,.88h0a.44.44,0,0,0,0-.88Z" style="fill:#140022" />
        </g>
        <g>
            <path
                d="M13.9,35.39a9.8,9.8,0,0,0,1.42,2.72c2,2.52,5.57,3.5,7.1,6.29h0c1.53-2.79,5.14-3.77,7.1-6.29a9.8,9.8,0,0,0,1.42-2.72,8.46,8.46,0,0,0,.26-6.17,6.77,6.77,0,0,0-4-3.49,12.2,12.2,0,0,0-4.77-.55,12.2,12.2,0,0,0-4.77.55,6.72,6.72,0,0,0-4,3.49A8.45,8.45,0,0,0,13.9,35.39Z"
                style="fill:#bf0b2c" />
            <path
                d="M13.48,35.51a10.21,10.21,0,0,0,2.64,4.05c1.3,1.17,5.81,3.2,5.86,4.85a.44.44,0,0,0,.82.22H22a.44.44,0,0,0,.82-.22c.06-1.86,4.88-3.79,6.26-5.2a10.72,10.72,0,0,0,2.63-4.92c.92-3.7-.2-7.11-3.84-8.72a14.74,14.74,0,0,0-11.49.22c-3.88,2-4.15,5.9-2.94,9.72.17.54,1,.31.85-.23-2.08-6.56,2.24-9.64,8.09-9.66s10.5,3.07,8.09,9.66c-1.22,3.34-3.79,4.4-6.31,6.5-.66.55-2.19,1.67-2.22,2.63l.82-.22h0a.44.44,0,0,0-.76,0h0l.82.22c0-.9-1.68-2.19-2.22-2.63-2.51-2.09-5-3.24-6.31-6.5C14.12,34.76,13.27,35,13.48,35.51Z"
                style="fill:#140022" />
            <path
                d="M31.1,32.43c-2.4,3.17-5.89,5.61-10,4.8A12.31,12.31,0,0,1,13.78,32c-.2-.31-.71,0-.5.3,4.82,7.19,13.17,7.28,18.32.48.23-.3-.28-.6-.5-.3Z"
                style="fill:#140022" />
            <path d="M21.9,41.67v0a.44.44,0,0,0,.88,0v0a.44.44,0,0,0-.88,0Z" style="fill:#140022" />
        </g>
            <circle cx="22.52" cy="22.42" r="12.95" transform="translate(-4.5 39.15) rotate(-76.64)"
                style="fill:#f52f2c" />
            <rect x="12.8" y="13.9" width="19.44" height="17.04"
                style="fill:none;stroke:#a30527;stroke-linecap:round;stroke-linejoin:round;stroke-width:0.464453px" />
            <path
                d="M22.52,34.94C15.75,34.59,10,29.47,10,22.42A12.67,12.67,0,0,1,22.52,9.91,12.55,12.55,0,0,1,34.91,21.17c.73,7.54-5,13.4-12.39,13.77-.56,0-.57.9,0,.88,7.28-.37,13.39-5.83,13.39-13.4A13.51,13.51,0,0,0,22.52,9,13.53,13.53,0,0,0,9.13,22.42c0,7.57,6.11,13,13.39,13.4C23.09,35.84,23.08,35,22.52,34.94Z"
                style="fill:#140022" />
            <path d="M15.09,20H30a1.18,1.18,0,0,0,0-2.35H15.09a1.18,1.18,0,0,0,0,2.35Z" style="fill:#fff" />
            <path d="M26.41,19.1V29.86a1.18,1.18,0,0,0,2.35,0V19.1a1.18,1.18,0,0,0-2.35,0Z" style="fill:#fff" />
            <path
                d="M21.37,27.73C20,27.42,18.68,26.34,19,24.78c.25-1.33,2-2.27,3-1s2.94,0,2-1.18a4.06,4.06,0,0,0-7,.6c-1.44,3,.7,6.12,3.7,6.79,1.48.33,2.1-1.93.63-2.26Z"
                style="fill:#fff" />
            <path
                d="M24,24.79a1.66,1.66,0,0,1,1.09-1.56,4.06,4.06,0,0,1,1-.3,4.9,4.9,0,0,1,.54,0c.32,0,.6.19.09-.12v-2h0l1.61.42h0a1.17,1.17,0,0,0-2,1.18v0a1.2,1.2,0,0,0,1.61.42l0,0a1.18,1.18,0,0,0,0-2c-1.09-.65-3.09,0-4.12.5a4,4,0,0,0-2.16,3.54,1.18,1.18,0,0,0,2.35,0Z"
                style="fill:#fff" />
            <path d="M19.37,16.63a1.18,1.18,0,0,0,0-2.35,1.18,1.18,0,0,0,0,2.35Z" style="fill:#fff" />
        </g>
    </g>
</svg>