<svg xmlns="http://www.w3.org/2000/svg" viewBox="0 0 41.55 40.77"><title>Asset 5</title><g id="Layer_2" data-name="Layer 2"><g id="OBJECTS"><path d="M34.5,27.27a6.7,6.7,0,0,0,1.93-.81c1.82-1.2,2.69-3.6,4.67-4.49h0c-1.82-1.2-2.29-3.71-3.89-5.18a7.08,7.08,0,0,0-1.77-1.12,5.75,5.75,0,0,0-4.19-.51,4.6,4.6,0,0,0-2.6,2.54A8.35,8.35,0,0,0,28,20.91a8.42,8.42,0,0,0,.11,3.28,4.63,4.63,0,0,0,2.16,2.92A5.71,5.71,0,0,0,34.5,27.27Z" style="fill:#70af1a"/><path d="M34.62,27.7a7,7,0,0,0,3-1.63c.7-.65,2.52-3.7,3.54-3.66.47,0,.55-.58.22-.82h0v.76h0c.43-.23.17-.77-.22-.82-1-.14-2.29-3.56-3-4.44a7,7,0,0,0-2.53-1.84c-2.53-1.15-5.37-1-6.93,1.56A10.19,10.19,0,0,0,28,25.12c1.24,2.78,3.89,3.21,6.63,2.58.55-.13.32-1-.24-.85-4.39,1-6.25-2.05-5.92-5.94.34-4.09,3.16-7,7.38-4.54,2,1.16,2.44,3.18,3.84,4.85.35.42.84,1.11,1.43,1.19l-.22-.82h0a.45.45,0,0,0,0,.76h0l.23-.82c-.65,0-1.65,1-2,1.42-1.52,1.59-2.44,3.19-4.72,3.9C33.85,27,34.08,27.87,34.62,27.7Z" style="fill:#140022"/><path d="M33.4,15.38c2,1.78,3.57,4.34,2.8,7.13a8.67,8.67,0,0,1-4.06,4.66c-.23.13,0,.47.2.35C37.48,24.64,38,19,33.69,15.1c-.19-.17-.48.11-.29.28Z" style="fill:#140022"/><path d="M39.24,22.18h0c.39,0,.38-.57,0-.6h0c-.38,0-.38.58,0,.61Z" style="fill:#140022"/><path d="M22.26,35.34A6.59,6.59,0,0,0,24,36.54c2,.91,4.48.37,6.28,1.59h0c.05-2.18,1.94-3.91,2.33-6.05a6.66,6.66,0,0,0,0-2.09,5.72,5.72,0,0,0-1.78-3.82,4.58,4.58,0,0,0-3.52-.87,8.57,8.57,0,0,0-3.07,1.17A8.15,8.15,0,0,0,21.5,28.3a4.57,4.57,0,0,0-1.33,3.37A5.75,5.75,0,0,0,22.26,35.34Z" style="fill:#70af1a"/><path d="M22,35.65a7.06,7.06,0,0,0,2.93,1.65c1.15.3,4.44.07,5,1.06a.44.44,0,0,0,.82-.23h0l-.66.38h0a.44.44,0,0,0,.6-.6c-.49-1,1.84-3.84,2.2-5a7.4,7.4,0,0,0,.07-3.74c-.58-2.66-2.4-4.49-5.24-4.32A10.09,10.09,0,0,0,20.45,29c-1.48,2.48-.39,4.81,1.5,6.67.4.4,1-.23.62-.63-3.14-3.09-1.76-6.35,1.87-8.17,3.08-1.54,6.7-1.66,7.61,2.54.56,2.58-.68,4.25-1.64,6.46-.24.56-.86,1.85-.54,2.5l.61-.6h0a.45.45,0,0,0-.66.38h0l.82-.22c-.32-.57-1.74-.84-2.25-1-2.16-.47-4-.37-5.81-1.93C22.14,34.66,21.52,35.28,22,35.65Z" style="fill:#140022"/><path d="M31.77,28.1c-.39,2.3-1.39,4.55-3.53,5.71s-5.06.62-7.14-.53c-.22-.12-.43.22-.2.35,5.15,2.83,10.29.31,11.25-5.42.05-.25-.34-.36-.38-.11Z" style="fill:#140022"/><path d="M29.09,36.65v0c.17.34.69,0,.51-.3v0c-.17-.35-.69,0-.51.3Z" style="fill:#140022"/><path d="M29,33a6.9,6.9,0,0,0,2.07.28c2.17-.11,4.14-1.73,6.31-1.49h0c-1-1.95-.09-4.35-.72-6.44a6.71,6.71,0,0,0-1-1.86A5.76,5.76,0,0,0,32.36,21a4.56,4.56,0,0,0-3.52.86,8.25,8.25,0,0,0-2.19,2.44,8.36,8.36,0,0,0-1.57,2.88,4.58,4.58,0,0,0,.37,3.61A5.78,5.78,0,0,0,29,33Z" style="fill:#70af1a"/><path d="M28.88,33.45a7,7,0,0,0,3.38.11c.94-.22,4.07-1.89,4.9-1.35.3.19.79-.14.64-.5h0l-.42.55h0c.49,0,.53-.58.22-.82-.79-.6-.16-4.35-.34-5.38a7.33,7.33,0,0,0-1.68-3.43c-1.74-2.09-4.21-2.86-6.65-1.4a10.18,10.18,0,0,0-4.47,7c-.16,2.89,1.89,4.43,4.42,5.21.54.17.77-.68.23-.85-3.82-1.18-4.53-4.22-2.57-7.46S32,19.75,34.9,23.22c1.74,2.07,1.39,4.18,1.58,6.66.06.72.06,1.85.68,2.32l.22-.82h0a.45.45,0,0,0-.43.56h0l.64-.49c-.55-.36-1.87,0-2.45.2-2.13.59-3.72,1.5-6,1C28.56,32.47,28.33,33.32,28.88,33.45Z" style="fill:#140022"/><path d="M34.1,22.24c.78,2.4.87,5.3-1,7.28A8.37,8.37,0,0,1,27,31.74c-.26,0-.26.39,0,.4,2.42.06,5.27-.76,6.76-2.77s1.5-4.83.72-7.24c-.08-.24-.47-.14-.39.11Z" style="fill:#140022"/><path d="M35.67,31.05l0,0c.31.22.61-.3.3-.52h0c-.31-.23-.61.29-.3.51Z" style="fill:#140022"/><path d="M32.71,11a6.66,6.66,0,0,0,0-2.09C32.36,6.73,30.51,5,30.48,2.8h0c-1.82,1.19-4.31.62-6.3,1.5a7.06,7.06,0,0,0-1.73,1.18,5.82,5.82,0,0,0-2.14,3.64,4.61,4.61,0,0,0,1.29,3.39,8.49,8.49,0,0,0,2.7,1.87,8.46,8.46,0,0,0,3.05,1.2,4.59,4.59,0,0,0,3.53-.81A5.78,5.78,0,0,0,32.71,11Z" style="fill:#70af1a"/><path d="M33.15,11a7.1,7.1,0,0,0-.42-3.59C32.38,6.5,30.47,3.83,30.86,3a.45.45,0,0,0-.6-.61h0l.66.38h0a.44.44,0,0,0-.82-.22c-.62,1.06-4.13.69-5.36,1.06a7.4,7.4,0,0,0-3.12,2.05c-1.78,1.87-2.36,4.28-.83,6.51a10,10,0,0,0,7.68,3.87c2.88-.16,4.2-2.36,4.67-5,.1-.55-.75-.79-.85-.23-.31,1.76-.83,3.5-2.83,4.17-1.77.58-3.42-.23-4.94-1-3.08-1.61-5.13-4.68-2.28-7.7,1.66-1.76,3.42-1.92,5.63-2.25.75-.11,2.53-.25,3-1L30,2.79h0a.45.45,0,0,0,.66.38h0l-.61-.6c-.31.65.26,1.89.49,2.46.85,2.06,1.94,3.59,1.68,5.93C32.21,11.53,33.1,11.52,33.15,11Z" style="fill:#140022"/><path d="M21.4,7.22c5.05-2.33,9.72.33,10.28,5.85,0,.25.43.25.4,0-.59-5.89-5.55-8.65-10.88-6.2-.24.11,0,.46.2.35Z" style="fill:#140022"/><path d="M29.91,4.62v0c.18-.34-.33-.64-.52-.3v0c-.18.34.34.64.52.3Z" style="fill:#140022"/><path d="M35.94,18.1A6.89,6.89,0,0,0,37,16.3c.76-2,0-4.49,1.12-6.38h0C36,10,34.11,8.28,32,8a7,7,0,0,0-2.09.15,5.73,5.73,0,0,0-3.69,2.05,4.63,4.63,0,0,0-.6,3.58,8.53,8.53,0,0,0,1.38,3,8.51,8.51,0,0,0,2,2.58,4.63,4.63,0,0,0,3.46,1.08A5.72,5.72,0,0,0,35.94,18.1Z" style="fill:#70af1a"/><path d="M36.32,18.32a6.92,6.92,0,0,0,1.41-3.09c.18-1.05-.12-4.44.64-4.93a.44.44,0,0,0-.22-.82h0l.38.66h0a.45.45,0,0,0-.61-.6c-1,.6-3.92-1.51-5.15-1.8A7.42,7.42,0,0,0,29,7.92c-2.47.72-4.19,2.51-4,5.21a10.12,10.12,0,0,0,4.67,7.22c2.58,1.31,4.83.08,6.55-1.94.37-.43-.25-1.06-.62-.63-1.16,1.36-2.48,2.6-4.54,2.16-1.81-.38-2.86-1.91-3.76-3.38-1.79-2.94-2.11-6.6,1.94-7.79,2.32-.67,3.91.08,6,.91.69.28,2.33,1.07,3.11.62l-.6-.61h0a.44.44,0,0,0,.38.66h0l-.22-.82c-.46.29-.66,1.41-.75,1.89-.44,2.31-.11,4.41-1.62,6.44C35.23,18.33,36,18.77,36.32,18.32Z" style="fill:#140022"/><path d="M28.07,9.14c5.49.51,8.25,5.15,5.92,10.25-.11.23.24.43.34.2,2.47-5.39-.44-10.3-6.26-10.85-.26,0-.25.38,0,.4Z" style="fill:#140022"/><path d="M36.74,11.2h0c.33-.2,0-.72-.3-.52h0a.3.3,0,0,0,.31.52Z" style="fill:#140022"/><path d="M7.05,27.27a6.7,6.7,0,0,1-1.93-.81C3.3,25.26,2.44,22.86.45,22h0c1.82-1.2,2.29-3.71,3.89-5.18a7.26,7.26,0,0,1,1.77-1.12,5.76,5.76,0,0,1,4.19-.51,4.6,4.6,0,0,1,2.6,2.54,8.17,8.17,0,0,1,.63,3.21,8.23,8.23,0,0,1-.11,3.28,4.63,4.63,0,0,1-2.16,2.92A5.71,5.71,0,0,1,7.05,27.27Z" style="fill:#70af1a"/><path d="M7.17,26.85C4.86,26.13,4,24.55,2.45,23c-.39-.4-1.36-1.45-2-1.42l.23.82h0a.45.45,0,0,0,0-.76h0l-.23.82c.59-.08,1.07-.76,1.43-1.19,1.39-1.66,1.81-3.69,3.84-4.85a6,6,0,0,1,5-.52c1.9.79,2.21,3.35,2.34,5.06.32,3.93-1.53,7-5.92,5.94-.56-.13-.79.72-.24.85,2.72.62,5.41.2,6.63-2.58a10.15,10.15,0,0,0-.63-8.31C11.32,14.3,8.56,14.09,6,15.25a7,7,0,0,0-2.54,1.84c-.69.83-2,4.31-3,4.44-.39,0-.65.59-.22.82h0v-.76h0c-.33.23-.25.84.22.82,1,0,2.9,3.06,3.54,3.66A7,7,0,0,0,6.93,27.7C7.47,27.87,7.71,27,7.17,26.85Z" style="fill:#140022"/><path d="M7.86,15.1C3.53,19,4.07,24.64,9.21,27.52c.22.12.43-.22.2-.35a8.64,8.64,0,0,1-4-4.66c-.77-2.77.8-5.35,2.79-7.13.19-.17-.09-.45-.29-.28Z" style="fill:#140022"/><path d="M2.31,21.57h0c-.38,0-.39.63,0,.6h0c.38,0,.39-.64,0-.61Z" style="fill:#140022"/><path d="M19.29,35.34a6.59,6.59,0,0,1-1.71,1.2c-2,.91-4.47.37-6.28,1.59h0C11.25,36,9.37,34.22,9,32.08A6.66,6.66,0,0,1,9,30a5.72,5.72,0,0,1,1.78-3.82,4.58,4.58,0,0,1,3.52-.87,8.57,8.57,0,0,1,3.07,1.17,8.15,8.15,0,0,1,2.72,1.83,4.61,4.61,0,0,1,1.34,3.37A5.81,5.81,0,0,1,19.29,35.34Z" style="fill:#70af1a"/><path d="M19,35c-1.8,1.56-3.65,1.48-5.81,1.93-.55.12-1.93.39-2.25,1l.82.22h0a.45.45,0,0,0-.66-.38h0l.61.6c.31-.66-.29-1.93-.54-2.5-1-2.2-2.19-3.91-1.64-6.46.92-4.24,4.54-4.09,7.61-2.54,3.62,1.82,5,5.08,1.87,8.17-.4.4.22,1,.62.63,1.77-1.75,2.91-3.92,1.69-6.35s-4.78-4.31-7.4-4.46a4.82,4.82,0,0,0-5.15,4,7.69,7.69,0,0,0-.11,3.75c.32,1.24,2.77,4.35,2.29,5.36-.18.38.2.84.6.6h0l-.66-.38h0a.44.44,0,0,0,.82.23c.52-.94,4-.79,5-1.06a7.12,7.12,0,0,0,2.93-1.65C20,35.28,19.41,34.66,19,35Z" style="fill:#140022"/><path d="M9.4,28.21c1,5.73,6.09,8.26,11.25,5.42a.2.2,0,0,0-.2-.35c-2.08,1.15-5,1.71-7.14.53S10.17,30.4,9.78,28.1c0-.25-.42-.14-.38.11Z" style="fill:#140022"/><path d="M12,36.35v0c-.18.34.34.64.52.3v0c.17-.34-.35-.65-.52-.3Z" style="fill:#140022"/><path d="M12.56,33a7,7,0,0,1-2.08.28c-2.17-.11-4.14-1.73-6.3-1.49h0c1-1.95.09-4.35.72-6.44a6.71,6.71,0,0,1,1-1.86A5.76,5.76,0,0,1,9.19,21a4.59,4.59,0,0,1,3.53.86,8.36,8.36,0,0,1,2.18,2.44,8.36,8.36,0,0,1,1.57,2.88,4.58,4.58,0,0,1-.37,3.61A5.78,5.78,0,0,1,12.56,33Z" style="fill:#70af1a"/><path d="M12.44,32.6c-2.35.56-3.89-.37-6-1-.63-.17-1.87-.58-2.45-.2l.6.6h0c.12-.28,0-.69-.38-.67h0l.31.75c.59-.46.57-1.94.61-2.66.15-2.62-.06-4.72,2-6.77,5-5,14.1,7.2,5.36,9.9-.54.17-.31,1,.23.85,2.37-.73,4.4-2.13,4.44-4.84s-2.26-6-4.49-7.38a4.84,4.84,0,0,0-6.41,1.13,7.49,7.49,0,0,0-1.83,3.3c-.3,1.27.46,5.08-.52,5.85a.44.44,0,0,0,.31.75h0l-.38-.66h0c-.16.37.2.87.6.61.84-.55,4,1.15,4.9,1.35a7,7,0,0,0,3.38-.11C13.22,33.32,13,32.47,12.44,32.6Z" style="fill:#140022"/><path d="M7.06,22.13c-.78,2.41-.86,5.11.72,7.24s4.34,2.83,6.76,2.77c.26,0,.26-.41,0-.4a8.38,8.38,0,0,1-6.12-2.22c-1.83-2-1.75-4.88-1-7.28.08-.25-.31-.35-.39-.11Z" style="fill:#140022"/><path d="M5.58,30.54h0c-.31.22,0,.74.3.52l0,0c.32-.22,0-.74-.3-.51Z" style="fill:#140022"/><path d="M8.84,11a6.66,6.66,0,0,1,0-2.09C9.19,6.73,11.05,5,11.07,2.8h0c1.82,1.19,4.31.62,6.3,1.5A7.06,7.06,0,0,1,19.1,5.48a5.82,5.82,0,0,1,2.14,3.64A4.61,4.61,0,0,1,20,12.51a8.38,8.38,0,0,1-2.7,1.87,8.46,8.46,0,0,1-3.05,1.2,4.59,4.59,0,0,1-3.53-.81A5.78,5.78,0,0,1,8.84,11Z" style="fill:#70af1a"/><path d="M9.28,11C9,8.62,10.11,7.09,11,5c.24-.58.79-1.8.49-2.46l-.61.6h0a.45.45,0,0,0,.66-.38h0L10.69,3c.44.79,2.26.92,3,1,2.22.35,4,.49,5.63,2.25,2.87,3,.78,6.11-2.28,7.7-1.52.79-3.17,1.6-4.93,1-2-.67-2.53-2.41-2.84-4.17-.1-.56-.95-.32-.85.23.44,2.47,1.61,4.6,4.3,5s6.53-1.62,8.05-3.85A4.84,4.84,0,0,0,20.18,6a7.49,7.49,0,0,0-3-2.19c-1.21-.44-5.12-.16-5.7-1.19a.44.44,0,0,0-.82.22h0l.66-.38h0c-.41-.24-.78.23-.6.61.41.89-1.52,3.47-1.87,4.35A7.1,7.1,0,0,0,8.4,11C8.46,11.52,9.34,11.53,9.28,11Z" style="fill:#140022"/><path d="M20.36,6.87c-5.34-2.45-10.3.31-10.89,6.2,0,.25.38.25.4,0,.56-5.52,5.23-8.18,10.28-5.85.24.11.44-.24.21-.35Z" style="fill:#140022"/><path d="M12.16,4.32v0c-.18-.34-.7,0-.52.3v0c.18.34.7,0,.52-.3Z" style="fill:#140022"/><path d="M5.61,18.1a6.89,6.89,0,0,1-1.08-1.8c-.76-2,0-4.49-1.12-6.38h0c2.17.1,4-1.64,6.2-1.89a6.94,6.94,0,0,1,2.08.15,5.73,5.73,0,0,1,3.69,2.05,4.63,4.63,0,0,1,.6,3.58,8.36,8.36,0,0,1-1.38,3,8.51,8.51,0,0,1-2,2.58,4.62,4.62,0,0,1-3.46,1.08A5.72,5.72,0,0,1,5.61,18.1Z" style="fill:#70af1a"/><path d="M6,17.87c-1.52-2.05-1.17-4.11-1.62-6.44-.1-.55-.26-1.57-.74-1.89l-.23.82h0a.45.45,0,0,0,.38-.66h0l-.6.61C4,10.75,5.6,10,6.29,9.68c2.1-.82,3.68-1.58,6-.91C16.36,10,16,13.63,14.22,16.56c-.9,1.46-1.94,3-3.76,3.38-2.05.44-3.38-.8-4.54-2.16-.37-.43-1,.2-.62.63,1.62,1.9,3.71,3.16,6.21,2.11s4.82-4.7,5-7.39A4.84,4.84,0,0,0,12.86,8a7.52,7.52,0,0,0-3.73-.36c-1.25.23-4.49,2.45-5.5,1.86a.45.45,0,0,0-.61.6H3l.38-.66h0a.44.44,0,0,0-.22.82c.77.51.47,3.93.64,4.93a7,7,0,0,0,1.41,3.09C5.56,18.77,6.32,18.33,6,17.87Z" style="fill:#140022"/><path d="M13.48,8.74c-5.82.55-8.73,5.46-6.26,10.85.11.23.45,0,.34-.2C5.23,14.29,8,9.65,13.48,9.14c.25,0,.26-.42,0-.4Z" style="fill:#140022"/><path d="M5.12,10.68h0c-.33-.2-.63.32-.3.52h0a.3.3,0,0,0,.31-.52Z" style="fill:#140022"/><path d="M15,34.18a6.87,6.87,0,0,0,1,1.86c1.34,1.71,3.8,2.39,4.85,4.29h0c1-1.9,3.51-2.58,4.85-4.29a6.84,6.84,0,0,0,1-1.86A5.74,5.74,0,0,0,26.77,30,4.61,4.61,0,0,0,24,27.58a8.28,8.28,0,0,0-3.25-.37,8.33,8.33,0,0,0-3.26.37A4.63,4.63,0,0,0,14.78,30,5.74,5.74,0,0,0,15,34.18Z" style="fill:#70af1a"/><path d="M14.53,34.3a7.2,7.2,0,0,0,1.84,2.82c.85.77,3.92,2.18,4,3.22a.44.44,0,0,0,.82.22H20.4a.44.44,0,0,0,.82-.22c0-1.16,3.34-2.54,4.23-3.45a7.41,7.41,0,0,0,1.83-3.42c.65-2.59-.15-5-2.68-6.12a10.26,10.26,0,0,0-8,.15c-2.7,1.43-2.92,4.13-2.08,6.8.17.54,1,.31.85-.24-1.39-4.38,1.49-6.4,5.4-6.41s7,2,5.39,6.41c-.83,2.26-2.58,3-4.28,4.38-.48.41-1.54,1.19-1.55,1.9l.82-.22h0a.45.45,0,0,0-.76,0h0l.82.22c0-.68-1.13-1.54-1.56-1.9C18,37,16.27,36.26,15.38,34.06,15.17,33.55,14.32,33.77,14.53,34.3Z" style="fill:#140022"/><path d="M26.7,32.16c-1.64,2.16-4,3.83-6.86,3.27a8.37,8.37,0,0,1-5-3.6c-.14-.21-.49,0-.35.2,3.29,4.91,9,5,12.52.33.15-.2-.19-.4-.35-.2Z" style="fill:#140022"/><path d="M20.42,38.47v0a.3.3,0,0,0,.6,0v0a.3.3,0,0,0-.6,0Z" style="fill:#140022"/><path d="M26.59,6.59a6.84,6.84,0,0,0-1-1.86C24.29,3,21.82,2.34,20.78.44h0C19.73,2.34,17.27,3,15.93,4.73a6.87,6.87,0,0,0-1,1.86,5.74,5.74,0,0,0-.18,4.21,4.63,4.63,0,0,0,2.74,2.39,8.33,8.33,0,0,0,3.26.37A8.28,8.28,0,0,0,24,13.19a4.61,4.61,0,0,0,2.74-2.39A5.74,5.74,0,0,0,26.59,6.59Z" style="fill:#70af1a"/><path d="M27,6.47a7.09,7.09,0,0,0-1.84-2.82c-.83-.76-3.94-2.2-4-3.22A.44.44,0,0,0,20.4.21h.76a.44.44,0,0,0-.82.22C20.28,1.62,17,3,16.1,3.88A7.5,7.5,0,0,0,14.27,7.3c-.65,2.59.15,5,2.68,6.12a10.26,10.26,0,0,0,8-.15c2.71-1.43,2.92-4.13,2.08-6.8-.17-.54-1-.31-.85.23,1.39,4.39-1.48,6.41-5.39,6.42s-7-2-5.4-6.42c.83-2.25,2.58-2.95,4.28-4.37.5-.42,1.52-1.18,1.56-1.9L20.4.65h0a.45.45,0,0,0,.76,0h0L20.34.43c0,.67,1.14,1.55,1.55,1.9,1.69,1.41,3.39,2.18,4.28,4.37C26.38,7.22,27.23,7,27,6.47Z" style="fill:#140022"/><path d="M14.85,8.61c1.64-2.16,4-3.83,6.86-3.27a8.42,8.42,0,0,1,5,3.6c.14.21.49,0,.34-.21-3.29-4.9-9-5-12.52-.32-.15.2.2.4.35.2Z" style="fill:#140022"/><path d="M21.13,2.3v0a.3.3,0,0,0-.6,0v0a.3.3,0,0,0,.6,0Z" style="fill:#140022"/><circle cx="20.87" cy="20.1" r="12.95" transform="translate(-3.51 35.77) rotate(-76.64)" style="fill:#b9d40b"/><polygon points="31.85 26.67 9.94 26.67 20.91 7.37 31.85 26.67" style="fill:none;stroke:#097609;stroke-linecap:round;stroke-linejoin:round;stroke-width:0.469373px"/><polygon points="9.94 13.47 31.85 13.47 20.87 32.77 9.94 13.47" style="fill:none;stroke:#097609;stroke-linecap:round;stroke-linejoin:round;stroke-width:0.469373px"/><path d="M20.87,32.62C14.11,32.27,8.36,27.15,8.36,20.1A12.67,12.67,0,0,1,20.87,7.59,12.55,12.55,0,0,1,33.26,18.85c.73,7.54-5,13.4-12.39,13.77-.56,0-.56.9,0,.88,7.29-.37,13.4-5.83,13.4-13.4A13.52,13.52,0,0,0,20.87,6.71,13.53,13.53,0,0,0,7.48,20.1c0,7.57,6.11,13,13.39,13.4C21.44,33.52,21.44,32.64,20.87,32.62Z" style="fill:#140022"/><path d="M14.79,16.55H26.7a1.18,1.18,0,0,0,0-2.35H14.79a1.18,1.18,0,0,0,0,2.35Z" style="fill:#fff"/><path d="M16.17,18.15c-.7,2.05-2,3.47-1,5.71a5.51,5.51,0,0,0,4.39,3A6,6,0,0,0,24.67,25c1.61-1.75,1.44-3.86,1.81-6l-2.31-.31.27,9.09c0,1.5,2.39,1.51,2.35,0l-.27-9.09c0-1.26-2.08-1.67-2.31-.31-.41,2.48-.14,5.71-3.41,6.18a3.21,3.21,0,0,1-3.62-2.06c-.3-1.24.86-2.53,1.25-3.68.48-1.44-1.78-2.05-2.26-.63Z" style="fill:#fff"/><path d="M24,13.1a1.18,1.18,0,0,0,0-2.35,1.18,1.18,0,0,0,0,2.35Z" style="fill:#fff"/></g></g></svg>