<svg xmlns="http://www.w3.org/2000/svg" xmlns:xlink="http://www.w3.org/1999/xlink" viewBox="0 0 379.51 359.07"><defs><linearGradient id="Degradado_sin_nombre_7" x1="47.34" y1="132.87" x2="197.75" y2="132.87" gradientTransform="matrix(0.15, 0.99, -0.99, 0.15, 287.75, -39.93)" gradientUnits="userSpaceOnUse"><stop offset="0" stop-color="#f548b9"/><stop offset="1" stop-color="#8f4bff"/></linearGradient><linearGradient id="Degradado_sin_nombre_7-2" x1="43.54" y1="141.85" x2="193.94" y2="141.85" gradientTransform="translate(313.73 -51.71) rotate(72.92)" xlink:href="#Degradado_sin_nombre_7"/><linearGradient id="Degradado_sin_nombre_7-3" x1="170.48" y1="124.84" x2="320.89" y2="124.84" gradientTransform="translate(160.23 -137.16) rotate(45)" xlink:href="#Degradado_sin_nombre_7"/><linearGradient id="Degradado_sin_nombre_7-4" x1="52.3" y1="159.2" x2="202.7" y2="159.2" gradientTransform="matrix(-0.98, 0.2, -0.2, -0.98, 420.2, 290.4)" xlink:href="#Degradado_sin_nombre_7"/><linearGradient id="Degradado_sin_nombre_7-5" x1="187.85" y1="198.4" x2="338.29" y2="198.4" gradientTransform="translate(217.34 -127.91) rotate(45)" xlink:href="#Degradado_sin_nombre_7"/><linearGradient id="Degradado_sin_nombre_7-6" x1="70.88" y1="161.04" x2="221.29" y2="161.04" gradientTransform="translate(226.51 448.92) rotate(-133.33)" xlink:href="#Degradado_sin_nombre_7"/><linearGradient id="Degradado_sin_nombre_7-7" x1="134.68" y1="252.12" x2="285.11" y2="252.12" gradientTransform="translate(239.75 -74.57) rotate(45)" xlink:href="#Degradado_sin_nombre_7"/><linearGradient id="Degradado_sin_nombre_7-8" x1="83.06" y1="147.05" x2="233.47" y2="147.05" gradientTransform="translate(-45.14 251.21) rotate(-42.33)" xlink:href="#Degradado_sin_nombre_7"/><linearGradient id="Degradado_sin_nombre_7-9" x1="60.95" y1="235.47" x2="211.36" y2="235.47" gradientTransform="translate(206.39 -27.31) rotate(45)" xlink:href="#Degradado_sin_nombre_7"/><linearGradient id="Degradado_sin_nombre_7-10" x1="76.44" y1="128.68" x2="226.84" y2="128.68" gradientTransform="matrix(0.95, -0.3, 0.3, 0.95, -68.61, 125.29)" xlink:href="#Degradado_sin_nombre_7"/><linearGradient id="Degradado_sin_nombre_7-11" x1="36" y1="164.12" x2="186.42" y2="164.12" gradientTransform="translate(148.62 -30.57) rotate(45)" xlink:href="#Degradado_sin_nombre_7"/><linearGradient id="Degradado_sin_nombre_7-12" x1="56.61" y1="124.85" x2="207.02" y2="124.85" gradientTransform="translate(126.89 -56.64) rotate(45)" xlink:href="#Degradado_sin_nombre_7"/><linearGradient id="Degradado_sin_nombre_7-13" x1="42.59" y1="198.48" x2="340.28" y2="198.48" gradientTransform="matrix(1, 0, 0, 1, 0, 0)" xlink:href="#Degradado_sin_nombre_7"/><radialGradient id="Degradado_sin_nombre_3" cx="-149.33" cy="275.47" r="30.41" gradientTransform="matrix(0.31, 0, 0, -0.31, 100.25, 116.67)" gradientUnits="userSpaceOnUse"><stop offset="0" stop-color="#f2ba6b" stop-opacity="0.98"/><stop offset="0.47" stop-color="#bc7b0a" stop-opacity="0"/><stop offset="1" stop-color="#326005" stop-opacity="0"/></radialGradient><radialGradient id="Degradado_sin_nombre_3-2" cx="-255.8" cy="-157.42" r="30.41" xlink:href="#Degradado_sin_nombre_3"/><radialGradient id="Degradado_sin_nombre_3-3" cx="-261.04" cy="93.93" r="30.41" xlink:href="#Degradado_sin_nombre_3"/><radialGradient id="Degradado_sin_nombre_3-4" cx="133.45" cy="343.54" r="30.41" xlink:href="#Degradado_sin_nombre_3"/><radialGradient id="Degradado_sin_nombre_3-5" cx="-60.3" cy="-611.26" r="30.41" xlink:href="#Degradado_sin_nombre_3"/><radialGradient id="Degradado_sin_nombre_3-6" cx="-172.02" cy="-539.69" r="30.41" gradientTransform="matrix(0.12, 0.29, 0.29, -0.12, 222.65, 269.78)" xlink:href="#Degradado_sin_nombre_3"/><radialGradient id="Degradado_sin_nombre_3-7" cx="-177.26" cy="-297.06" r="30.41" xlink:href="#Degradado_sin_nombre_3"/><radialGradient id="Degradado_sin_nombre_3-8" cx="-90.92" cy="40.24" r="30.41" xlink:href="#Degradado_sin_nombre_3"/><radialGradient id="Degradado_sin_nombre_3-9" cx="26.16" cy="187.25" r="30.41" xlink:href="#Degradado_sin_nombre_3"/><radialGradient id="Degradado_sin_nombre_3-10" cx="3994.05" cy="-275.96" r="51.94" gradientTransform="translate(1356.95 116.67) rotate(180) scale(0.31)" xlink:href="#Degradado_sin_nombre_3"/><radialGradient id="Degradado_sin_nombre_3-11" cx="4036.84" cy="-579.59" r="51.94" gradientTransform="translate(544.03 1488.97) rotate(-102.38) scale(0.31)" xlink:href="#Degradado_sin_nombre_3"/><radialGradient id="Degradado_sin_nombre_3-12" cx="4004.75" cy="-55.44" r="51.94" gradientTransform="translate(1003.22 1005.26) rotate(-135) scale(0.31)" xlink:href="#Degradado_sin_nombre_3"/><radialGradient id="Degradado_sin_nombre_3-13" cx="462.16" cy="275.47" r="30.41" gradientTransform="translate(466.12 116.67) rotate(180) scale(0.31)" xlink:href="#Degradado_sin_nombre_3"/><radialGradient id="Degradado_sin_nombre_3-14" cx="355.69" cy="-157.42" r="30.41" gradientTransform="translate(466.12 116.67) rotate(180) scale(0.31)" xlink:href="#Degradado_sin_nombre_3"/><radialGradient id="Degradado_sin_nombre_3-15" cx="350.45" cy="93.93" r="30.41" gradientTransform="translate(466.12 116.67) rotate(180) scale(0.31)" xlink:href="#Degradado_sin_nombre_3"/><radialGradient id="Degradado_sin_nombre_3-16" cx="744.94" cy="343.54" r="30.41" gradientTransform="translate(466.12 116.67) rotate(180) scale(0.31)" xlink:href="#Degradado_sin_nombre_3"/><radialGradient id="Degradado_sin_nombre_3-17" cx="551.19" cy="-611.26" r="30.41" gradientTransform="translate(466.12 116.67) rotate(180) scale(0.31)" xlink:href="#Degradado_sin_nombre_3"/><radialGradient id="Degradado_sin_nombre_3-18" cx="439.47" cy="-539.69" r="30.41" gradientTransform="matrix(-0.29, -0.12, 0.12, -0.29, 520.37, 182.42)" xlink:href="#Degradado_sin_nombre_3"/><radialGradient id="Degradado_sin_nombre_3-19" cx="434.24" cy="-297.06" r="30.41" gradientTransform="translate(466.12 116.67) rotate(180) scale(0.31)" xlink:href="#Degradado_sin_nombre_3"/><radialGradient id="Degradado_sin_nombre_3-20" cx="520.57" cy="40.24" r="30.41" gradientTransform="translate(466.12 116.67) rotate(180) scale(0.31)" xlink:href="#Degradado_sin_nombre_3"/><radialGradient id="Degradado_sin_nombre_3-21" cx="637.65" cy="187.25" r="30.41" gradientTransform="translate(466.12 116.67) rotate(180) scale(0.31)" xlink:href="#Degradado_sin_nombre_3"/><radialGradient id="Degradado_sin_nombre_3-22" cx="3382.56" cy="-275.96" r="51.94" gradientTransform="matrix(0.31, 0, 0, -0.31, -790.58, 116.67)" xlink:href="#Degradado_sin_nombre_3"/><radialGradient id="Degradado_sin_nombre_3-23" cx="3425.35" cy="-579.59" r="51.94" gradientTransform="matrix(0.22, 0.22, 0.22, -0.22, -349.7, -586.05)" xlink:href="#Degradado_sin_nombre_3"/><radialGradient id="Degradado_sin_nombre_3-24" cx="3393.26" cy="-55.44" r="51.94" gradientTransform="matrix(0.3, 0.07, 0.07, -0.3, -757.85, -127.79)" xlink:href="#Degradado_sin_nombre_3"/><radialGradient id="Degradado_sin_nombre_6" cx="3742.97" cy="-360.96" r="627.7" gradientTransform="translate(1788.78 110.16) rotate(180) scale(0.43 0.35)" gradientUnits="userSpaceOnUse"><stop offset="0" stop-color="#8500f2" stop-opacity="0.98"/><stop offset="0.47" stop-color="#bc00ab" stop-opacity="0"/><stop offset="1" stop-color="#600b00" stop-opacity="0"/></radialGradient><radialGradient id="Degradado_sin_nombre_676" cx="191.27" cy="134.29" r="335.12" gradientUnits="userSpaceOnUse"><stop offset="0" stop-color="#4920a5" stop-opacity="0.98"/><stop offset="0.06" stop-color="#3c1884" stop-opacity="0.98"/><stop offset="0.14" stop-color="#2c105f" stop-opacity="0.99"/><stop offset="0.22" stop-color="#200942" stop-opacity="0.99"/><stop offset="0.3" stop-color="#18042d"/><stop offset="0.38" stop-color="#130120"/><stop offset="0.46" stop-color="#11001c"/></radialGradient><linearGradient id="Degradado_sin_nombre_7-14" x1="168.55" y1="277.09" x2="168.55" y2="93.04" gradientTransform="matrix(1, 0, 0, 1, 0, 0)" xlink:href="#Degradado_sin_nombre_7"/><linearGradient id="Degradado_sin_nombre_7-15" x1="212.72" y1="277.09" x2="212.72" y2="93.04" gradientTransform="matrix(1, 0, 0, 1, 0, 0)" xlink:href="#Degradado_sin_nombre_7"/><linearGradient id="Degradado_sin_nombre_7-16" x1="190.86" y1="277.09" x2="190.86" y2="93.04" gradientTransform="matrix(1, 0, 0, 1, 0, 0)" xlink:href="#Degradado_sin_nombre_7"/><linearGradient id="Degradado_sin_nombre_7-17" x1="64.39" y1="277.09" x2="64.39" y2="93.04" gradientTransform="matrix(1, 0, 0, 1, 0, 0)" xlink:href="#Degradado_sin_nombre_7"/><linearGradient id="Degradado_sin_nombre_7-18" x1="321" y1="277.09" x2="321" y2="93.04" gradientTransform="matrix(1, 0, 0, 1, 0, 0)" xlink:href="#Degradado_sin_nombre_7"/><linearGradient id="Degradado_sin_nombre_7-19" x1="209.98" y1="277.09" x2="209.98" y2="93.04" gradientTransform="matrix(1, 0, 0, 1, 0, 0)" xlink:href="#Degradado_sin_nombre_7"/><linearGradient id="Degradado_sin_nombre_7-20" x1="169.23" y1="277.09" x2="169.23" y2="93.04" gradientTransform="matrix(1, 0, 0, 1, 0, 0)" xlink:href="#Degradado_sin_nombre_7"/><linearGradient id="Degradado_sin_nombre_7-21" x1="58.78" y1="277.09" x2="58.78" y2="93.04" gradientTransform="matrix(1, 0, 0, 1, 0, 0)" xlink:href="#Degradado_sin_nombre_7"/><linearGradient id="Degradado_sin_nombre_7-22" x1="120.23" y1="277.09" x2="120.23" y2="93.04" gradientTransform="matrix(1, 0, 0, 1, 0, 0)" xlink:href="#Degradado_sin_nombre_7"/><linearGradient id="Degradado_sin_nombre_7-23" x1="189.76" y1="277.09" x2="189.76" y2="93.04" gradientTransform="matrix(1, 0, 0, 1, 0, 0)" xlink:href="#Degradado_sin_nombre_7"/><linearGradient id="Degradado_sin_nombre_7-24" x1="321.17" y1="277.09" x2="321.17" y2="93.04" gradientTransform="matrix(1, 0, 0, 1, 0, 0)" xlink:href="#Degradado_sin_nombre_7"/><linearGradient id="Degradado_sin_nombre_7-25" x1="259.72" y1="277.09" x2="259.72" y2="93.04" gradientTransform="matrix(1, 0, 0, 1, 0, 0)" xlink:href="#Degradado_sin_nombre_7"/><linearGradient id="Degradado_sin_nombre_7-26" x1="190.96" y1="277.09" x2="190.96" y2="93.04" gradientTransform="matrix(1, 0, 0, 1, 0, 0)" xlink:href="#Degradado_sin_nombre_7"/></defs><title>completeBody</title><g style="isolation:isolate"><g id="Layer_2" data-name="Layer 2"><g id="OBJECTS"><circle cx="174.08" cy="100.61" r="75.09" transform="translate(-20.15 152.56) rotate(-45)" style="fill:none;stroke-miterlimit:10;stroke-width:0.230572px;stroke:url(#Degradado_sin_nombre_7)"/><circle cx="213.02" cy="103.46" r="75.09" transform="translate(-11.37 27.76) rotate(-7.26)" style="fill:none;stroke-miterlimit:10;stroke-width:0.230572px;stroke:url(#Degradado_sin_nombre_7-2)"/><circle cx="245.69" cy="124.84" r="75.09" transform="translate(-16.31 210.29) rotate(-45)" style="fill:none;stroke-miterlimit:10;stroke-width:0.230572px;stroke:url(#Degradado_sin_nombre_7-3)"/><circle cx="263.89" cy="159.37" r="75.09" transform="translate(-35.4 233.28) rotate(-45)" style="fill:none;stroke-miterlimit:10;stroke-width:0.230572px;stroke:url(#Degradado_sin_nombre_7-4)"/><circle cx="263.07" cy="198.4" r="75.09" transform="translate(-63.24 244.13) rotate(-45)" style="fill:none;stroke-miterlimit:10;stroke-width:0.230572px;stroke:url(#Degradado_sin_nombre_7-5)"/><circle cx="243.43" cy="232.14" r="75.09" transform="translate(-92.85 240.12) rotate(-45)" style="fill:none;stroke-miterlimit:10;stroke-width:0.230572px;stroke:url(#Degradado_sin_nombre_7-6)"/><circle cx="209.89" cy="252.12" r="75.09" transform="translate(-116.8 222.26) rotate(-45)" style="fill:none;stroke-miterlimit:10;stroke-width:0.230572px;stroke:url(#Degradado_sin_nombre_7-7)"/><circle cx="170.87" cy="253.33" r="75.09" transform="translate(-112.48 367.74) rotate(-77.99)" style="fill:none;stroke-miterlimit:10;stroke-width:0.230572px;stroke:url(#Degradado_sin_nombre_7-8)"/><circle cx="136.16" cy="235.47" r="75.09" transform="translate(-126.63 165.25) rotate(-45)" style="fill:none;stroke-miterlimit:10;stroke-width:0.230572px;stroke:url(#Degradado_sin_nombre_7-9)"/><circle cx="114.46" cy="203.02" r="75.09" transform="translate(-110.04 140.4) rotate(-45)" style="fill:none;stroke-miterlimit:10;stroke-width:0.230572px;stroke:url(#Degradado_sin_nombre_7-10)"/><circle cx="111.21" cy="164.12" r="75.09" transform="translate(-83.48 126.71) rotate(-45)" style="fill:none;stroke-miterlimit:10;stroke-width:0.230572px;stroke:url(#Degradado_sin_nombre_7-11)"/><circle cx="131.81" cy="124.85" r="75.09" transform="translate(-49.68 129.78) rotate(-45)" style="fill:none;stroke-miterlimit:10;stroke-width:0.230572px;stroke:url(#Degradado_sin_nombre_7-12)"/><polygon points="191.43 70.5 338.68 70.5 265.06 198.02 191.43 325.54 117.81 198.02 44.19 70.5 191.43 70.5" style="fill:none;stroke-miterlimit:10;stroke-width:1.84457px;stroke:url(#Degradado_sin_nombre_7-13)"/><g style="mix-blend-mode:color-dodge"><circle cx="53.66" cy="30.73" r="9.49" style="mix-blend-mode:hard-light;fill:url(#Degradado_sin_nombre_3)"/><circle cx="20.44" cy="165.79" r="9.49" style="mix-blend-mode:hard-light;fill:url(#Degradado_sin_nombre_3-2)"/><circle cx="18.81" cy="87.37" r="9.49" style="mix-blend-mode:hard-light;fill:url(#Degradado_sin_nombre_3-3)"/><circle cx="141.89" cy="9.49" r="9.49" style="mix-blend-mode:hard-light;fill:url(#Degradado_sin_nombre_3-4)"/><circle cx="81.43" cy="307.39" r="9.49" style="mix-blend-mode:hard-light;fill:url(#Degradado_sin_nombre_3-5)"/><circle cx="46.58" cy="285.06" r="9.49" transform="translate(-234.45 218.33) rotate(-67.36)" style="mix-blend-mode:hard-light;fill:url(#Degradado_sin_nombre_3-6)"/><circle cx="44.95" cy="209.36" r="9.49" style="mix-blend-mode:hard-light;fill:url(#Degradado_sin_nombre_3-7)"/><circle cx="71.88" cy="104.12" r="9.49" style="mix-blend-mode:hard-light;fill:url(#Degradado_sin_nombre_3-8)"/><circle cx="108.41" cy="58.25" r="9.49" style="mix-blend-mode:hard-light;fill:url(#Degradado_sin_nombre_3-9)"/><circle cx="110.81" cy="202.77" r="16.2" style="mix-blend-mode:hard-light;fill:url(#Degradado_sin_nombre_3-10)"/><circle cx="97.46" cy="297.51" r="16.2" transform="translate(-214.02 328.93) rotate(-77.62)" style="mix-blend-mode:hard-light;fill:url(#Degradado_sin_nombre_3-11)"/><circle cx="107.47" cy="133.97" r="16.2" transform="translate(-63.26 115.23) rotate(-45)" style="mix-blend-mode:hard-light;fill:url(#Degradado_sin_nombre_3-12)"/></g><g style="mix-blend-mode:color-dodge"><circle cx="321.92" cy="30.73" r="9.49" style="mix-blend-mode:hard-light;fill:url(#Degradado_sin_nombre_3-13)"/><circle cx="355.15" cy="165.79" r="9.49" style="mix-blend-mode:hard-light;fill:url(#Degradado_sin_nombre_3-14)"/><circle cx="356.78" cy="87.37" r="9.49" style="mix-blend-mode:hard-light;fill:url(#Degradado_sin_nombre_3-15)"/><circle cx="233.7" cy="9.49" r="9.49" style="mix-blend-mode:hard-light;fill:url(#Degradado_sin_nombre_3-16)"/><circle cx="294.15" cy="307.39" r="9.49" style="mix-blend-mode:hard-light;fill:url(#Degradado_sin_nombre_3-17)"/><circle cx="329" cy="285.06" r="9.49" transform="translate(-84.37 148.6) rotate(-22.64)" style="mix-blend-mode:hard-light;fill:url(#Degradado_sin_nombre_3-18)"/><circle cx="330.64" cy="209.36" r="9.49" style="mix-blend-mode:hard-light;fill:url(#Degradado_sin_nombre_3-19)"/><circle cx="303.7" cy="104.12" r="9.49" style="mix-blend-mode:hard-light;fill:url(#Degradado_sin_nombre_3-20)"/><circle cx="267.17" cy="58.25" r="9.49" style="mix-blend-mode:hard-light;fill:url(#Degradado_sin_nombre_3-21)"/><circle cx="264.78" cy="202.77" r="16.2" style="mix-blend-mode:hard-light;fill:url(#Degradado_sin_nombre_3-22)"/><circle cx="278.13" cy="297.51" r="16.2" transform="translate(-128.91 283.8) rotate(-45)" style="mix-blend-mode:hard-light;fill:url(#Degradado_sin_nombre_3-23)"/><circle cx="268.12" cy="133.97" r="16.2" transform="translate(-23.72 65.67) rotate(-13.38)" style="mix-blend-mode:hard-light;fill:url(#Degradado_sin_nombre_3-24)"/></g><rect x="59.92" y="155.55" width="260.46" height="158.85" style="mix-blend-mode:hard-light;fill:url(#Degradado_sin_nombre_6)"/><path d="M378.18,281a4.55,4.55,0,0,0-3.11-.83,11.29,11.29,0,0,1-1.73-.13c-.26,0-.52-.06-.79-.09a5.37,5.37,0,0,0,.57-.5l.65-.58a5,5,0,0,0,1.48-1.7,2.27,2.27,0,0,0-.93-2.95,4.66,4.66,0,0,0-3.2-.47,20.82,20.82,0,0,0-4.78,2.41,16.86,16.86,0,0,1-5.3,2.49,9,9,0,0,1-1.38.18c.41-.29.81-.59,1.2-.91a4.15,4.15,0,0,0,1.06-1.2,4.35,4.35,0,0,0,.38-1.93l.16-3.82a22,22,0,0,0,0-2.3c-.19-3.2-1.67-6.11-3.31-9.06a5.31,5.31,0,0,0-.41-.65l.1,0,0,.11a1.76,1.76,0,0,0,.77-2.27,2.8,2.8,0,0,0-1.71-1.45,8.94,8.94,0,0,0-4.08-.15l-.79.08c-.88.09-1.8.12-2.69.14-2.43.08-4.95.16-7.13,1.36a13.26,13.26,0,0,0-1.37.88,18.58,18.58,0,0,1-7,2.84c-.88.19-1.8.34-2.68.48a23.74,23.74,0,0,0-6,1.51,23.26,23.26,0,0,0-2.21,1.18c-.65.37-1.32.76-2,1.07a14,14,0,0,1-7.47,1.19,22.37,22.37,0,0,1-4.18-1.67l-2.17-1c-6-2.87-12.23-5.84-17.47-9.86-.78-.6-1.54-1.24-2.27-1.86-1.09-.92-2.22-1.87-3.43-2.7a42.09,42.09,0,0,0-5.38-2.89c-4.47-2.16-9.43-4.55-11-8.69-.19-.76-.34-1.52-.46-2.28,0-.2,0-.4,0-.6h-.08a74.66,74.66,0,0,1-.4-12.33,68.35,68.35,0,0,0-.64-13.92,71.74,71.74,0,0,0-3.07-10.5A58,58,0,0,1,260.65,185c-.12-1-.29-2-.46-3a24.22,24.22,0,0,1-.54-5.6c.07-1.23.26-2.49.47-3.83.43-2.75.88-5.61.12-8.24a55.13,55.13,0,0,0-4.81-12,.35.35,0,0,0,.09-.38h0l.11,0c-1.3-3.51-4.11-6.55-8.84-9.57a34.42,34.42,0,0,0-8.72-4.16,50.83,50.83,0,0,0-10.8-1.57l-1.48-.11a47.35,47.35,0,0,1-12.35-2.86v0c-4.23-2.1-6.73-5.32-7.44-9.64a22.42,22.42,0,0,1,0-5l-.11,0a.49.49,0,0,0,0-.12,29.39,29.39,0,0,0,6.6-9.43l.11-.4a.33.33,0,0,0,.22-.18l.1,0a22,22,0,0,1,6-7.68l.57-.44A9.61,9.61,0,0,0,222.21,98a9.41,9.41,0,0,0,.93-3.52c.36-3,.7-6.1,1-9.13l0-.39-4.53-1.21,1.68-6a21.49,21.49,0,0,0-1.26-15.09c-3.74-7.79-11.73-17.19-28.6-17.74h-1.65C173,45.39,165,54.79,161.22,62.58A21.49,21.49,0,0,0,160,77.67l1.7,6.11-.37.07-4,1.08,0,.39c.29,3,.63,6.1,1,9.13a9.21,9.21,0,0,0,.92,3.52,9.61,9.61,0,0,0,2.66,2.73l.57.44a21.86,21.86,0,0,1,6,7.68l.1,0,0,0,.16.57a28.67,28.67,0,0,0,5.15,8,37.93,37.93,0,0,1,0,6.57c-.72,4.38-3.28,7.63-7.62,9.73v0a43.7,43.7,0,0,1-11.44,2.72l-2.2.17a50.92,50.92,0,0,0-10.8,1.57,34.42,34.42,0,0,0-8.72,4.16c-4.73,3-7.54,6.06-8.84,9.57l.11,0h0a.34.34,0,0,0,.1.38,54.62,54.62,0,0,0-4.82,12c-.75,2.63-.31,5.49.12,8.24.21,1.34.41,2.6.48,3.83a24.24,24.24,0,0,1-.55,5.6c-.17,1-.34,2-.45,3a59.21,59.21,0,0,1-3.37,12.59,71.77,71.77,0,0,0-3.08,10.5,67.63,67.63,0,0,0-.63,13.92,74.67,74.67,0,0,1-.41,12.33h-.08c0,.2,0,.4,0,.6-.13.76-.28,1.52-.46,2.28-1.54,4.14-6.49,6.53-11,8.69a41.92,41.92,0,0,0-5.37,2.89c-1.21.83-2.34,1.78-3.44,2.7-.73.62-1.49,1.26-2.26,1.86-5.25,4-11.47,7-17.48,9.86l-2.17,1a22.27,22.27,0,0,1-4.17,1.67,14.07,14.07,0,0,1-7.48-1.19c-.68-.31-1.35-.7-2-1.07a22.1,22.1,0,0,0-2.21-1.18,23.74,23.74,0,0,0-6-1.51c-.88-.14-1.8-.29-2.67-.48a19.74,19.74,0,0,1-5.83-2.13,7.13,7.13,0,0,1-1-.79,6.65,6.65,0,0,0-1.1-.84,12.94,12.94,0,0,0-3.5-1.3,27.88,27.88,0,0,0-10-.7c-1,.11-2.42.4-3,1.54a5.06,5.06,0,0,0-.08,3l.11,0a.35.35,0,0,0,.36.27l-.07.12c-1.63,3-3.12,5.86-3.31,9.06a19.63,19.63,0,0,0,0,2.3l.15,3.82A4.64,4.64,0,0,0,18,276.7a4,4,0,0,0,1.07,1.2c.38.32.79.62,1.2.91a9.27,9.27,0,0,1-1.39-.18,17,17,0,0,1-5.3-2.49,20.75,20.75,0,0,0-4.77-2.41,4.68,4.68,0,0,0-3.21.47,2.28,2.28,0,0,0-.93,2.95,5,5,0,0,0,1.49,1.7c.28.24.47.42.64.59a6.19,6.19,0,0,0,.55.47l-1.53.14c-.48.06-1,.11-1.47.15a5.91,5.91,0,0,0-2,.37,2,2,0,0,0-1.28,1.31,2.74,2.74,0,0,0-1,1.65,4,4,0,0,0,.58,3.1,5.32,5.32,0,0,0,3.51,2.17A14.49,14.49,0,0,0,7,289h.25c1.62,0,3.26.09,4.88.21a2,2,0,0,0,1,1,3.27,3.27,0,0,0,1.4.23h.91a79.93,79.93,0,0,0,17.38-1.83c2.56-.48,5.46-1,9.14-1.57,3-.45,5.51-1,8-1.59a63.91,63.91,0,0,1,11.82-1.88v-.11a.41.41,0,0,0,.19-.08l2.5-.4c22.12-3.55,36.74-5.89,57.48-16.1,3.61-1.78,7.37-3.76,10.24-6.72,3.23-3.34,5.74-8.34,7.48-14.85.2,2.14.46,4.27.72,6.36.41,3.35.85,6.81,1,10.23a47.83,47.83,0,0,1-1.2,12.67h0c-9.58,5-21.27,8.35-31.63,11.05-3.64.95-7.39,1.93-11,3-10,2.91-17.65,6.11-24.05,10.09a52.75,52.75,0,0,0-10.25,8.15,24.84,24.84,0,0,0-1.81,2.2,24.51,24.51,0,0,1-1.71,2.09,19.37,19.37,0,0,1-2,1.71,15.09,15.09,0,0,0-2.83,2.67c-2.22,2.93-3.07,6.64-3.56,9.53-1.91,11.25.38,21.09,6.31,27,4.49,4.49,11.46,7,19.25,7h.92c7.21-.18,14.25-2.3,21.06-4.34l.12,0c28.94-8.67,60.67-17.61,94.31-26.58l0-.11a.35.35,0,0,0,.23-.21c28,8.63,65.86,18.78,99.18,26.61,5,1.18,10.66,2.51,16.39,2.51h.25c4.48,0,10.87-1,15.93-5.18s8.07-11.5,8.16-19.89c.07-5.85-1.19-10.72-3.75-14.47a25.39,25.39,0,0,0-9.28-7.76c-.78-.42-1.62-.78-2.43-1.12a21.86,21.86,0,0,1-3.18-1.57,8.86,8.86,0,0,1-1.91-1.86c-.3-.36-.61-.73-.95-1.08-5.44-5.59-13.33-10.8-23.45-15.47a61.19,61.19,0,0,0-12.59-4.4c-2.21-.48-4.49-.8-6.69-1.11-1.23-.17-2.46-.35-3.69-.55-5.3-.87-11.31-3.31-17.12-5.67-3.23-1.32-6.28-2.55-9.12-3.49a59.53,59.53,0,0,1-.35-11.63c.17-3.35.59-6.73,1-10,.24-1.93.48-3.91.67-5.9,1.73,6.29,4.2,11.13,7.37,14.39,2.87,3,6.63,4.94,10.23,6.72,20.75,10.21,35.36,12.55,57.48,16.1l2.5.4a.4.4,0,0,0,.2.08v.11a63.91,63.91,0,0,1,11.82,1.88c2.44.56,5,1.14,8,1.59,3.67.54,6.57,1.09,9.14,1.57a79.9,79.9,0,0,0,17.37,1.83h.91a3.33,3.33,0,0,0,1.41-.23,2.07,2.07,0,0,0,1-1c1.63-.12,3.26-.2,4.88-.21,2,0,3.51-.12,5.16-1.49a4.48,4.48,0,0,0,.74-.76,4.62,4.62,0,0,0,.71-1.71C379.63,283.67,379.73,282.13,378.18,281ZM33.75,268.25c-.4,1.75-.61,3.53-.89,5.3a1.39,1.39,0,0,1-1.34,1,9.52,9.52,0,0,1-3.68-1.38c-1.05-.52-2.69-.66-3.5-1.51s-.67-2.09-.61-3.12a24.48,24.48,0,0,1,.41-4.36l0-.09a1.46,1.46,0,0,1,1.59-2.06c2.4.5,6.23,1.37,7.77,3.5A3,3,0,0,1,33.75,268.25Z" style="fill:url(#Degradado_sin_nombre_676)"/><path d="M181.38,161.67a11.25,11.25,0,0,0-3.26-2.67,10.88,10.88,0,0,0-3.46-.78c-1.06-.13-2.14-.22-3.22-.31a39.34,39.34,0,0,1-9.06-1.48c-3.76-1.27-7.1-3.54-10.34-5.74a.46.46,0,0,0-.64.13.46.46,0,0,0,.12.64c3.29,2.23,6.69,4.54,10.57,5.84a40,40,0,0,0,9.27,1.53c1.08.09,2.15.18,3.19.3a7.57,7.57,0,0,1,6.16,3.17l4.27,4.54a.46.46,0,1,0,.67-.64Z" style="fill:url(#Degradado_sin_nombre_7-14)"/><path d="M229.23,150.69c-3.24,2.2-6.58,4.47-10.34,5.74a39.34,39.34,0,0,1-9.06,1.48c-1.09.09-2.16.18-3.22.31a10.88,10.88,0,0,0-3.46.78,11,11,0,0,0-3.26,2.67l-4.27,4.53a.46.46,0,0,0,0,.66.47.47,0,0,0,.65,0l4.27-4.54a7.57,7.57,0,0,1,6.16-3.17c1-.12,2.11-.21,3.19-.3a40,40,0,0,0,9.27-1.53c3.88-1.3,7.28-3.61,10.57-5.84a.46.46,0,0,0,.12-.64A.46.46,0,0,0,229.23,150.69Z" style="fill:url(#Degradado_sin_nombre_7-15)"/><path d="M190.86,201.11a.46.46,0,0,0,.46-.46V173.48a.45.45,0,0,0-.46-.46.46.46,0,0,0-.46.46v27.17A.47.47,0,0,0,190.86,201.11Z" style="fill:url(#Degradado_sin_nombre_7-16)"/><path d="M70.46,349.76c-3.54-2-7.55-4.35-9.7-8.13-2.58-4.51-1.84-10.11-.76-14a.45.45,0,0,0-.32-.56.46.46,0,0,0-.57.32c-1.12,4.07-1.89,9.93.85,14.72,2.28,4,6.58,6.47,10,8.47a.49.49,0,0,0,.23.06.45.45,0,0,0,.4-.23A.46.46,0,0,0,70.46,349.76Z" style="fill:url(#Degradado_sin_nombre_7-17)"/><path d="M318.34,341a.46.46,0,0,0,.23-.06,11.37,11.37,0,0,0,5-13.23.45.45,0,0,0-.58-.28.47.47,0,0,0-.29.59,10.42,10.42,0,0,1-4.56,12.12.47.47,0,0,0-.18.63A.45.45,0,0,0,318.34,341Z" style="fill:url(#Degradado_sin_nombre_7-18)"/><path d="M201.93,259.5a.47.47,0,0,0,.31.12.45.45,0,0,0,.34-.15,34.66,34.66,0,0,0,8.84-25.23l0-.22a6,6,0,0,1,.22-2.72,5.66,5.66,0,0,1,1.29-1.65l.17-.17a26.57,26.57,0,0,0,5.06-7.31.46.46,0,0,0-.22-.61.47.47,0,0,0-.62.22,25.49,25.49,0,0,1-4.88,7.05l-.17.17a5,5,0,0,0-1.77,5.08l0,.22a33.71,33.71,0,0,1-8.6,24.55A.46.46,0,0,0,201.93,259.5Z" style="fill:url(#Degradado_sin_nombre_7-19)"/><path d="M168.71,234.3l0-.23A5,5,0,0,0,167,229l-.17-.18a25.64,25.64,0,0,1-4.88-7.05.46.46,0,0,0-.61-.22.47.47,0,0,0-.23.61,26.57,26.57,0,0,0,5.06,7.31l.18.17a5.79,5.79,0,0,1,1.28,1.65,5.94,5.94,0,0,1,.22,2.71l0,.23a34.7,34.7,0,0,0,8.84,25.23.45.45,0,0,0,.34.15.47.47,0,0,0,.31-.12.46.46,0,0,0,0-.65A33.75,33.75,0,0,1,168.71,234.3Z" style="fill:url(#Degradado_sin_nombre_7-20)"/><path d="M55.83,268.61a.43.43,0,0,0-.48.43.46.46,0,0,0,.43.49,8.17,8.17,0,0,1,5.63,2.71.49.49,0,0,0,.35.15.51.51,0,0,0,.31-.11.47.47,0,0,0,0-.66A9.14,9.14,0,0,0,55.83,268.61Z" style="fill:url(#Degradado_sin_nombre_7-21)"/><path d="M117.15,243.46a.46.46,0,0,0-.51.4.46.46,0,0,0,.41.51,7.49,7.49,0,0,1,5.89,4.3.45.45,0,0,0,.42.27.39.39,0,0,0,.18,0,.45.45,0,0,0,.24-.6A8.39,8.39,0,0,0,117.15,243.46Z" style="fill:url(#Degradado_sin_nombre_7-22)"/><path d="M378.18,281a4.52,4.52,0,0,0-3.11-.83,11.16,11.16,0,0,1-1.72-.13l-.71-.08.39-.38c.2-.21.43-.44.74-.71a5,5,0,0,0,1.49-1.7,2.28,2.28,0,0,0-.93-2.95,4.68,4.68,0,0,0-3.21-.47,20.75,20.75,0,0,0-4.77,2.41,17,17,0,0,1-5.3,2.49,9.27,9.27,0,0,1-1.39.18c.41-.29.82-.59,1.2-.91a3.92,3.92,0,0,0,1.07-1.2,4.64,4.64,0,0,0,.38-1.93l.15-3.82a19.57,19.57,0,0,0,0-2.3c-.19-3.2-1.68-6.11-3.31-9.06q-.14-.24-.3-.48a2.22,2.22,0,0,0,.81-2.35,2.79,2.79,0,0,0-1.72-1.45,8.89,8.89,0,0,0-4.07-.15l-.8.08c-.88.09-1.8.12-2.69.14-2.43.08-4.94.16-7.13,1.36a13.89,13.89,0,0,0-1.37.88,18.44,18.44,0,0,1-7,2.84c-.88.19-1.79.34-2.68.48a23.77,23.77,0,0,0-6,1.51,23.26,23.26,0,0,0-2.21,1.18c-.65.37-1.32.76-2,1.07a11.72,11.72,0,0,1-7.17,1.26l-.13,0-.46-.13-.87-.27c-.24-.09-.48-.18-.71-.29l-.1,0c-.76-.31-1.51-.67-2.21-1l-2.17-1c-6-2.87-12.23-5.84-17.48-9.86-.77-.6-1.53-1.24-2.26-1.86-1.1-.92-2.23-1.87-3.44-2.7a41.92,41.92,0,0,0-5.37-2.89c-4.48-2.16-9.44-4.55-11-8.7-.18-.75-.33-1.51-.46-2.27,0-.2,0-.4,0-.6a.48.48,0,0,0-.12-.32,75.31,75.31,0,0,1-.36-12,68.41,68.41,0,0,0-.64-13.93,70.55,70.55,0,0,0-3.08-10.5A59.21,59.21,0,0,1,260.65,185c-.11-1-.28-2-.45-3a23.82,23.82,0,0,1-.54-5.61,36.64,36.64,0,0,1,.47-3.83c.43-2.75.87-5.61.12-8.24a55.16,55.16,0,0,0-4.85-12.09,21.65,21.65,0,0,0-8.6-9.93,34.42,34.42,0,0,0-8.72-4.16,50.92,50.92,0,0,0-10.8-1.57l-1.49-.11a47.19,47.19,0,0,1-12.34-2.86h-.07A12.71,12.71,0,0,1,206,124a21.85,21.85,0,0,1,0-5,.53.53,0,0,0,0-.25,29.71,29.71,0,0,0,6.5-9.34l.07-.28a.45.45,0,0,0,.36-.25,21.75,21.75,0,0,1,6-7.68l.57-.45A9.45,9.45,0,0,0,222.22,98a9.21,9.21,0,0,0,.92-3.52c.37-3,.71-6.1,1-9.13a.46.46,0,0,0-.34-.49c-.61-.17-1.42-.36-2.22-.55s-1.39-.33-2-.48l1.71-6.13a21.54,21.54,0,0,0-1.26-15.09c-3.74-7.79-11.73-17.19-28.61-17.74h-1.65C173,45.39,165,54.79,161.22,62.58A21.54,21.54,0,0,0,160,77.67l1.67,6-2,.56c-.7.2-1.41.41-2,.57a.46.46,0,0,0-.34.49c.29,3,.62,6.1,1,9.13a9.64,9.64,0,0,0,.92,3.52,9.52,9.52,0,0,0,2.67,2.73l.57.44a21.83,21.83,0,0,1,6,7.68.47.47,0,0,0,.21.21l.1.36a28.67,28.67,0,0,0,5.15,8,37.93,37.93,0,0,1,0,6.57c-.72,4.35-3.25,7.58-7.52,9.68a.35.35,0,0,0-.11,0,44.26,44.26,0,0,1-11.45,2.71l-2.19.17a50.83,50.83,0,0,0-10.8,1.57,34.42,34.42,0,0,0-8.72,4.16c-4,2.58-7.7,6.88-9.11,10.72a.42.42,0,0,0,0,.19,56.41,56.41,0,0,0-4.31,11.11c-.76,2.63-.31,5.49.12,8.24.21,1.34.4,2.6.47,3.83a24.22,24.22,0,0,1-.54,5.6c-.17,1-.34,2-.46,3a58,58,0,0,1-3.37,12.59,71.74,71.74,0,0,0-3.07,10.5,68.41,68.41,0,0,0-.64,13.93,76.5,76.5,0,0,1-.36,12,.48.48,0,0,0-.12.32c0,.2,0,.4,0,.6q-.18,1.14-.45,2.28c-1.54,4.14-6.5,6.53-11,8.69a42.09,42.09,0,0,0-5.38,2.89c-1.21.83-2.34,1.78-3.43,2.7-.73.62-1.49,1.26-2.27,1.86-5.24,4-11.46,7-17.47,9.86l-2.17,1-1,.5a14.18,14.18,0,0,1-1.86.84,13.83,13.83,0,0,1-8.79-.86,22.72,22.72,0,0,1-2-1.08c-.71-.4-1.44-.83-2.21-1.17a23.74,23.74,0,0,0-6-1.51c-.88-.14-1.8-.29-2.68-.48a19.77,19.77,0,0,1-5.82-2.13,7.13,7.13,0,0,1-1-.79,7.29,7.29,0,0,0-1.1-.85,13.54,13.54,0,0,0-3.51-1.29,28.07,28.07,0,0,0-10-.7c-1,.11-2.43.4-3,1.54s0,3.66,0,3.69a.37.37,0,0,0,.05.11c-1.53,2.8-2.88,5.57-3.06,8.61a21.09,21.09,0,0,0,0,2.38l.15,3.74A4.43,4.43,0,0,0,18,276.7a4,4,0,0,0,1.07,1.2c.38.32.78.62,1.2.91a9,9,0,0,1-1.39-.18,16.86,16.86,0,0,1-5.3-2.49,20.82,20.82,0,0,0-4.78-2.41,4.66,4.66,0,0,0-3.2.47,2.27,2.27,0,0,0-.93,2.95,5.1,5.1,0,0,0,1.48,1.7c.3.25.51.46.7.65l.45.41-1.48.14q-.72.09-1.47.15H4.13a4.45,4.45,0,0,0-1.6.3A5.22,5.22,0,0,0,1,281.68a4,4,0,0,0-.49,4.71,5.27,5.27,0,0,0,3.65,2.41A14.33,14.33,0,0,0,7,289h.28c1.8,0,3.1.11,4.9.26a2.06,2.06,0,0,0,1,.94,3.33,3.33,0,0,0,1.41.23h.91a79.76,79.76,0,0,0,17.37-1.83c2.57-.48,5.47-1,9.14-1.57,3-.45,5.52-1,8-1.59a63.91,63.91,0,0,1,11.82-1.88.43.43,0,0,0,.36-.22L64.4,283c22.12-3.55,36.73-5.89,57.48-16.1,3.6-1.78,7.36-3.76,10.23-6.72,3.24-3.34,5.75-8.34,7.48-14.85.21,2.14.46,4.28.72,6.36.42,3.35.85,6.81,1,10.23a47.37,47.37,0,0,1-1.17,12.52c-10,5.25-21.73,8.43-33.05,11.5-3.2.87-6.51,1.77-9.66,2.69-10,2.91-17.65,6.11-24,10.09a53.12,53.12,0,0,0-10.26,8.15,24.72,24.72,0,0,0-1.8,2.2,22.81,22.81,0,0,1-1.72,2.09,18.26,18.26,0,0,1-2,1.71,14.5,14.5,0,0,0-2.83,2.67c-2.22,2.93-3.07,6.64-3.56,9.53-1.92,11.25.38,21.09,6.31,27,4.49,4.49,11.46,7,19.25,7h.91c7.21-.18,14.26-2.3,21.07-4.34l.12,0c28.94-8.67,60.67-17.61,94.3-26.58a.43.43,0,0,0,.31-.29c28,8.63,65.8,18.76,99.08,26.58,5,1.18,10.65,2.51,16.39,2.51h.25c4.48,0,10.87-1,15.92-5.18s8.07-11.5,8.17-19.89c.07-5.85-1.2-10.72-3.75-14.47a25.48,25.48,0,0,0-9.28-7.76c-.78-.42-1.62-.78-2.43-1.12a21.37,21.37,0,0,1-3.18-1.57,8.64,8.64,0,0,1-1.91-1.86c-.31-.36-.61-.73-1-1.08-5.43-5.59-13.32-10.8-23.44-15.47a61.4,61.4,0,0,0-12.59-4.4c-2.22-.48-4.49-.8-6.7-1.11-1.23-.17-2.46-.35-3.68-.55-5.3-.87-11.31-3.31-17.12-5.67-3.23-1.31-6.28-2.55-9.12-3.49a59.53,59.53,0,0,1-.35-11.63c.16-3.35.59-6.74,1-10,.25-1.94.49-3.91.68-5.89,1.73,6.28,4.2,11.12,7.36,14.38,2.87,3,6.63,4.94,10.24,6.72,20.74,10.21,35.36,12.55,57.48,16.1l2.32.37a.46.46,0,0,0,.37.22,63.91,63.91,0,0,1,11.82,1.88c2.44.56,5,1.14,7.95,1.59,3.68.54,6.58,1.09,9.14,1.57a79.9,79.9,0,0,0,17.37,1.83h.92a3.29,3.29,0,0,0,1.4-.23,2,2,0,0,0,1-1c1.82-.15,3.05-.23,4.9-.24,2,0,3.5-.12,5.16-1.49a5.17,5.17,0,0,0,.74-.76,4.53,4.53,0,0,0,.7-1.71C379.63,283.67,379.74,282.14,378.18,281Zm-11.35-4.06a20.34,20.34,0,0,1,4.56-2.3,3.71,3.71,0,0,1,2.5.39,1.34,1.34,0,0,1,.53,1.75,4.21,4.21,0,0,1-1.24,1.39,10.8,10.8,0,0,0-.82.77,3.88,3.88,0,0,1-1.23.95,75.42,75.42,0,0,1-9.3-.49A19.39,19.39,0,0,0,366.83,276.92Zm-5.27-8.22c0,.73,0,1.48,0,2.21l-.15,3.82a3.84,3.84,0,0,1-.28,1.54,3.08,3.08,0,0,1-.84.92,16.28,16.28,0,0,1-2.38,1.65h-.11a14.32,14.32,0,0,1-3.79-.4,15.4,15.4,0,0,1-2-.8l-.53-.24a31.45,31.45,0,0,0-3.28-1.22q-.07-.37-.15-.78c2.56-.85,5.11-1.8,7.59-2.83a1.6,1.6,0,0,0,.73-.49,1.65,1.65,0,0,0,.28-.83,19.34,19.34,0,0,0,0-6l-.07-.33a10.05,10.05,0,0,1-.31-4.49,2.64,2.64,0,0,1,.38-1,.86.86,0,0,1,.69-.4c.44,0,.78.55,1.06,1.05C359.94,262.89,361.38,265.7,361.56,268.7Zm-6.39-6.63a15.55,15.55,0,0,0,.47,3l.07.33a18.3,18.3,0,0,1,0,5.72.89.89,0,0,1-.09.38.9.9,0,0,1-.35.2c-2.42,1-4.92,1.94-7.42,2.77-.48-2.36-1.16-5-1.7-6.93-.08-.27-.16-.55-.26-.83,0,0,.07-.05.09-.09a6,6,0,0,1,2.56-2.36,11.45,11.45,0,0,1,3.5-1A7.55,7.55,0,0,0,355.17,262.07Zm-131-124.8,1.48.11,2,.25c1.58.2,3.16.4,4.75.64-1.4,0-2.8.08-4.17.14-2.16.1-4.38.2-6.58.19-5.86,0-12.39-.63-16.36-4.92a.42.42,0,0,0-.14-.09v-9.08C206.59,132,213,136.27,224.22,137.27Zm-2.85-52.09,1.81.44c-.28,2.9-.6,5.83-1,8.71a8.89,8.89,0,0,1-.81,3.19A8.84,8.84,0,0,1,219,100l-.58.45a22.62,22.62,0,0,0-5,5.59l5.93-21.32ZM163,100.42l-.58-.45A8.84,8.84,0,0,1,160,97.52a8.79,8.79,0,0,1-.81-3.19c-.35-2.88-.67-5.81-1-8.71l1.66-.47,2-.56,5.86,21A23,23,0,0,0,163,100.42Zm-2.18-23A20.63,20.63,0,0,1,162.06,63c3.62-7.56,11.39-16.68,27.77-17.21h1.62c16.39.54,24.16,9.66,27.79,17.22a20.58,20.58,0,0,1,1.2,14.44l-8.8,31.64c-.06.15-6,15-21.09,15.18-15.08-.18-20.84-15-20.89-15.13Zm13.29,49.42v7.86a.35.35,0,0,0-.16.08,18.32,18.32,0,0,1-12.36,3.54c-1.66-.09-3.39-.33-5.07-.56l-2.46-.32.86-.11.77-.06C165.74,136.38,171.92,132.88,174.14,126.84ZM18.84,276.27a3.58,3.58,0,0,1-.28-1.54l-.15-3.82a18.07,18.07,0,0,1,0-2.21c.18-3,1.61-5.81,3.2-8.66.28-.5.62-1,1.06-1.05a.89.89,0,0,1,.69.39,2.75,2.75,0,0,1,.38,1,10.2,10.2,0,0,1-.31,4.49l-.07.33a19,19,0,0,0,0,6,1.63,1.63,0,0,0,.27.83,1.68,1.68,0,0,0,.73.49c2.48,1,5,2,7.58,2.83-.05.26-.1.52-.14.77v0a31.22,31.22,0,0,0-3.27,1.21l-.53.24a15.4,15.4,0,0,1-2,.8,14.32,14.32,0,0,1-3.79.4h-.11a16.93,16.93,0,0,1-2.39-1.65A3.18,3.18,0,0,1,18.84,276.27Zm8.8-13,.29,0a11.74,11.74,0,0,1,3.5,1A5.92,5.92,0,0,1,34,266.64l.09.09c-.09.28-.17.56-.25.83-.36,1.28-1.15,4.18-1.72,6.92-2.49-.83-5-1.75-7.4-2.76a.9.9,0,0,1-.35-.2.89.89,0,0,1-.09-.38,18.3,18.3,0,0,1,0-5.72l.07-.33a17.64,17.64,0,0,0,.45-2.68A8,8,0,0,0,27.64,263.22ZM6.76,278.15a4.29,4.29,0,0,1-1.23-1.39A1.34,1.34,0,0,1,6.06,275a3.7,3.7,0,0,1,2.5-.39,20.06,20.06,0,0,1,4.55,2.3,19.88,19.88,0,0,0,5,2.47,73.93,73.93,0,0,1-9.18.48l-.11-.08a3.88,3.88,0,0,1-1.32-1C7.31,278.64,7.08,278.41,6.76,278.15Zm241.16-.53c5.86,2.38,11.92,4.85,17.32,5.73,1.23.2,2.47.38,3.71.55,2.18.31,4.44.62,6.62,1.1a59.91,59.91,0,0,1,12.4,4.33c10,4.63,17.81,9.78,23.17,15.29.33.33.62.68.91,1a9.6,9.6,0,0,0,2.12,2,21.23,21.23,0,0,0,3.31,1.64c.8.34,1.62.69,2.36,1.09a24.48,24.48,0,0,1,9,7.47c2.45,3.59,3.66,8.28,3.6,13.94-.09,8.12-2.95,15.12-7.84,19.2s-11,4.93-15.34,5c-5.7.07-11.4-1.29-16.42-2.48-23.46-5.51-49.14-12.17-72.07-18.64a.56.56,0,0,0-.21-.22,65.22,65.22,0,0,0-11-3.34l-.76-.19c-2.55-.62-4.9-1.34-7.18-2s-4.67-1.43-7.24-2.05l-1.5-.37-.66-.2a.38.38,0,0,0-.21,0l-11.63-2.83a15.84,15.84,0,0,0,6.55-8.89c1.29-4.07,1.31-8.37,1.14-12.4a9.07,9.07,0,0,0-1-4.56l3.43.23c2.85.2,5.7.39,9.29.67l.77.07a4.26,4.26,0,0,0,.7.07l.57,0a36.16,36.16,0,0,0,4.65.28,12.14,12.14,0,0,0,2.21-.3,12.38,12.38,0,0,1,1.85-.28,51.9,51.9,0,0,1,9,.57c1.7.21,3.47.42,5.16.53,9.59.62,19.34.83,29,.63l1.4,0a77.75,77.75,0,0,1,12.85.43c5.32.78,9.62,2.61,12.78,5.43a36.21,36.21,0,0,1,6.24,8.25.46.46,0,0,0,.39.22.51.51,0,0,0,.24-.07.46.46,0,0,0,.15-.64,36.61,36.61,0,0,0-6.41-8.45,20.8,20.8,0,0,0-3.59-2.53c.06-5.92-3.73-11.88-9.45-14.84-7.89-4.07-16.05-1.87-23.94.25-5.07,1.37-10.32,2.77-15.44,2.52-1.44-.07-2.95-.23-4.42-.39-5-.53-10.14-1.08-14.38,1.59a22.22,22.22,0,0,0-2.78,2.2c-.61.54-1.25,1.11-1.91,1.6l-.21.16c-1.25.92-2.53,1.86-3.87,1.89l-.68-.06-.12,0h-.17l-.48,0c-3.6-.28-6.44-.47-9.29-.67s-5.69-.38-9.29-.66a.37.37,0,0,0-.31.1,13,13,0,0,1-3.81-2.21l-.1-.08c-.67-.49-1.3-1-1.92-1.6a21.52,21.52,0,0,0-2.78-2.2c-4.24-2.67-9.39-2.12-14.38-1.59-1.46.16-3,.32-4.42.39-5.12.25-10.36-1.15-15.43-2.52-7.9-2.12-16.06-4.32-24-.24-5.72,3-9.51,8.93-9.44,14.86a6.73,6.73,0,0,0,.32,2.08A23.16,23.16,0,0,0,97,304a10.76,10.76,0,0,0-6.82,5.35.46.46,0,0,0,.83.4,9.83,9.83,0,0,1,6.25-4.87,23.08,23.08,0,0,1,8.12-.56,3.27,3.27,0,0,0,.7.82,5.62,5.62,0,0,0,3.65.85h1.85c8.17,0,16.61,0,24.48,2.68a94.34,94.34,0,0,1,12.05,5.48c1.15.6,2.3,1.19,3.46,1.76,2.3,1.15,4.8,2.26,7.89,3.5a29.56,29.56,0,0,0,5.33,1.41c.84.17,1.68.34,2.53.54l11.12,2.71a.45.45,0,0,0,.38.22.43.43,0,0,0,.19,0l.06,0,13,3.18c-33.35,8.89-64.82,17.76-93.53,26.37l-.12,0c-6.76,2-13.74,4.12-20.83,4.3-7.87.21-15-2.26-19.49-6.75-5.71-5.71-7.92-15.27-6-26.21.47-2.8,1.29-6.36,3.38-9.14a14.35,14.35,0,0,1,2.67-2.49,19.27,19.27,0,0,0,2.08-1.8,23.16,23.16,0,0,0,1.79-2.17,25.47,25.47,0,0,1,1.74-2.12,52.27,52.27,0,0,1,10.07-8c6.34-3.93,13.91-7.1,23.83-10,3.14-.91,6.44-1.81,9.64-2.68,11.12-3,22.59-6.15,32.54-11.23-.3,1.26-.62,2.56-1,3.93a.46.46,0,0,0,.32.57l.12,0a.48.48,0,0,0,.45-.34,74,74,0,0,0,1.9-8.41c5.33,1.16,10.11,2,14.48.05a22.76,22.76,0,0,0,2.91-1.61c.7-.43,1.42-.87,2.16-1.24,5.44-2.76,12-1.87,17.7-.82,2.59.47,5.22,1,7.76,1.51a163.57,163.57,0,0,0,22,3.39c1.53.1,3,.15,4.49.15,9.71,0,18-2.1,24.62-6.23a68.18,68.18,0,0,0,1.12,11.19.45.45,0,0,0,.45.38h.07a.46.46,0,0,0,.39-.53c-.19-1.18-.36-2.26-.5-3.26C242,275.21,244.87,276.38,247.92,277.62Zm-80.34,42.87c-.86-.2-1.72-.37-2.57-.54a28.7,28.7,0,0,1-5.17-1.37c-3.06-1.23-5.55-2.33-7.82-3.46l-3.45-1.76a94.32,94.32,0,0,0-12.17-5.53,57.28,57.28,0,0,0-17-2.66,19,19,0,0,0,5-1.9,13.06,13.06,0,0,0,6.54-8.4.45.45,0,0,0-.35-.54.46.46,0,0,0-.55.36,12.13,12.13,0,0,1-6.09,7.77,21.88,21.88,0,0,1-10,2.5.43.43,0,0,0-.31.14h-3.91a4.89,4.89,0,0,1-3.07-.65,3.92,3.92,0,0,1-1.11-3.15c-.07-5.59,3.53-11.23,9-14,7.57-3.91,15.2-1.86,23.28.31,5.14,1.39,10.44,2.82,15.72,2.55,1.47-.07,3-.23,4.47-.39,4.83-.51,9.82-1.05,13.79,1.45a20.86,20.86,0,0,1,2.66,2.11c.63.56,1.28,1.14,2,1.65l.1.08c1.71,1.27,4,3,6.15,2.43l.05,0,3.11.23,0,.06c1,1.37,1.14,2.72,1.22,4.61.16,4,.14,8.16-1.1,12.09a14.5,14.5,0,0,1-7,8.84Zm85.1-21.13a.47.47,0,0,0-.12-.32c-.58-.62-.54-.69-.45-.9a2.59,2.59,0,0,0,.15-1.86.45.45,0,0,0-.54-.35.46.46,0,0,0-.36.54,1.71,1.71,0,0,1-.09,1.29c-.24.52-.24.89.35,1.61-9,.13-18-.08-26.93-.65-1.67-.1-3.42-.32-5.11-.52a52.57,52.57,0,0,0-9.16-.58,15.73,15.73,0,0,0-2,.29,11.25,11.25,0,0,1-2.05.29,24,24,0,0,1-2.8-.11,18.62,18.62,0,0,0,2.07-1.38l.21-.16c.69-.51,1.34-1.09,2-1.65a20.1,20.1,0,0,1,2.65-2.11c4-2.5,9-2,13.8-1.45,1.47.15,3,.32,4.47.39,5.27.26,10.58-1.17,15.72-2.55,8.08-2.17,15.71-4.23,23.28-.32,5.25,2.72,8.78,8.1,8.93,13.52a28.92,28.92,0,0,0-8.73-2.62,76.53,76.53,0,0,0-13-.44l-1.4,0Zm125.74-14.54a3.55,3.55,0,0,1-.55,1.36,3.18,3.18,0,0,1-.58.6c-1.42,1.18-2.68,1.27-4.58,1.28-1.75,0-3,.08-4.6.21a8.28,8.28,0,0,0-.07-2c-.18-1.39-1.37-1.87-2.33-2.24l-.36-.15a16.8,16.8,0,0,0-3.74-1.05,44.33,44.33,0,0,1-5.3-1.21,32.51,32.51,0,0,0-6.27-1.2.47.47,0,0,0-.51.41.46.46,0,0,0,.4.51,32.24,32.24,0,0,1,6.13,1.16,43.9,43.9,0,0,0,5.39,1.24,15.7,15.7,0,0,1,3.54,1l.38.15c1,.41,1.65.71,1.75,1.51.17,1.27.25,2.55-.66,3a2.64,2.64,0,0,1-1,.15,78.9,78.9,0,0,1-18.11-1.82c-2.57-.48-5.48-1-9.17-1.58-3-.43-5.46-1-7.89-1.56a68.13,68.13,0,0,0-10.46-1.81l-.13-.05-4-.63c-22-3.54-36.59-5.87-57.21-16-3.54-1.74-7.22-3.67-10-6.53-3.47-3.57-6.08-9.13-7.78-16.51l0,0c0-.45.07-.9.1-1.35.45-9.05-.81-18.32-2-27.28-.35-2.6-.72-5.28-1-7.89a37,37,0,0,1-.29-10c.56-3.59,2.2-7,3.78-10.24.55-1.12,1.09-2.24,1.59-3.37,2.65-5.93,3.16-10.73,1.57-14.68a.46.46,0,1,0-.85.34c1.48,3.71,1,8.27-1.56,14-.5,1.13-1,2.24-1.58,3.35a58,58,0,0,0-2.89,6.66l-.11.09-14,17-11.7-5.06a.33.33,0,0,0-.17,0l-4.06-.16a.45.45,0,0,0-.48.44.47.47,0,0,0,.44.48l4,.16,11.94,5.16a.41.41,0,0,0,.19,0,.46.46,0,0,0,.35-.17l13-15.76c-.13.55-.25,1.11-.34,1.67a37.56,37.56,0,0,0,.29,10.22c.31,2.62.68,5.3,1,7.9,1.22,8.92,2.48,18.15,2,27.11-.17,3.34-.59,6.72-1,10s-.83,6.7-1,10.08c-.08,1.49-.12,2.79-.13,4a.43.43,0,0,0-.35.05c-7.51,4.71-17.17,6.74-28.7,6-7.36-.45-14.72-1.94-21.85-3.37-2.54-.51-5.17-1-7.77-1.52-5.86-1.08-12.59-2-18.29.9-.77.39-1.51.85-2.22,1.29a23.15,23.15,0,0,1-2.8,1.55c-4.13,1.8-8.77,1-14-.12h0a45,45,0,0,0,.44-8.58c-.16-3.46-.59-6.94-1-10.3s-.83-6.65-1-10c-.45-9,.81-18.19,2-27.11.36-2.6.72-5.28,1-7.9a37.56,37.56,0,0,0,.29-10.22c-.11-.69-.26-1.36-.43-2l13.28,16.12a.48.48,0,0,0,.36.17.39.39,0,0,0,.18,0l12-5.16,4-.16a.46.46,0,0,0,0-.92l-4.07.16a.32.32,0,0,0-.16,0l-11.71,5.06L142.44,192a62.8,62.8,0,0,0-2.71-6.16c-.54-1.11-1.08-2.23-1.58-3.35-2.54-5.69-3.05-10.25-1.56-14a.46.46,0,1,0-.85-.34c-1.59,4-1.08,8.75,1.56,14.68.51,1.13,1,2.25,1.6,3.37.92,1.9,1.85,3.84,2.59,5.83a.43.43,0,0,0,.1.34l0,.05a21.62,21.62,0,0,1,1.05,4,36.62,36.62,0,0,1-.3,10c-.31,2.61-.68,5.29-1,7.89-1.23,9-2.49,18.23-2,27.28,0,.38.05.76.08,1.14a.53.53,0,0,0-.17.25c-1.69,7.39-4.31,12.94-7.77,16.51-2.77,2.86-6.45,4.79-10,6.53-20.62,10.15-35.18,12.48-57.22,16l-4,.63-.13.05a68.48,68.48,0,0,0-10.47,1.81c-2.42.55-4.92,1.13-7.88,1.56-3.69.55-6.6,1.1-9.18,1.58a78.75,78.75,0,0,1-18.1,1.82,2.64,2.64,0,0,1-1-.15,1.16,1.16,0,0,1-.59-.64.42.42,0,0,0-.06-.14,5.34,5.34,0,0,1,0-2.19c.1-.8.72-1.1,1.75-1.51l.37-.15a15.7,15.7,0,0,1,3.54-1,43.73,43.73,0,0,0,5.4-1.24A32.26,32.26,0,0,1,30,281.32a.46.46,0,0,0-.11-.92,32.69,32.69,0,0,0-6.27,1.2,43.84,43.84,0,0,1-5.3,1.21,16.7,16.7,0,0,0-3.73,1.05l-.36.15c-1,.37-2.15.85-2.33,2.24a8,8,0,0,0-.07,2c-1.64-.14-2.89-.22-4.61-.23H7a15,15,0,0,1-2.6-.16,4.35,4.35,0,0,1-3-2,3.15,3.15,0,0,1,.37-3.63,4.27,4.27,0,0,1,1.2-.95,3.85,3.85,0,0,1,1.28-.22h.24c.52,0,1-.1,1.51-.15a19.16,19.16,0,0,1,2.52-.18A78.57,78.57,0,0,0,19,280.22c2-.2,4-.41,6.66-.58a.48.48,0,0,0,.4-.28l.14,0a15.34,15.34,0,0,0,2.14-.84l.52-.23a30.05,30.05,0,0,1,5.5-1.82c.58-.13,1.16-.22,1.73-.31a12.38,12.38,0,0,0,3.74-1,30.76,30.76,0,0,0,4.52-2.94,29.7,29.7,0,0,1,4.41-2.86.46.46,0,0,0-.41-.83,31,31,0,0,0-4.54,2.95,31.19,31.19,0,0,1-4.39,2.86,11.69,11.69,0,0,1-3.47.91c-.59.09-1.19.19-1.8.33s-.94.22-1.4.35c.54-3,1.53-6.62,1.94-8.08a9.29,9.29,0,0,1,.45-1.35,4.43,4.43,0,0,1,.86-1.28.47.47,0,0,0,0-.66.48.48,0,0,0-.66,0,5.73,5.73,0,0,0-.85,1.21,7,7,0,0,0-2.66-2.29,12.2,12.2,0,0,0-3.77-1.11l-.29-.05c-1.08-.15-2.42-.35-3-1.05l0,0a9.58,9.58,0,0,0-.14-1,3.47,3.47,0,0,0-.54-1.37,1.77,1.77,0,0,0-1.49-.77,1.86,1.86,0,0,0-1.34.81,5.22,5.22,0,0,1,0-2.21c.4-.76,1.52-1,2.32-1.05a27,27,0,0,1,9.72.67,12.33,12.33,0,0,1,3.26,1.2,6.49,6.49,0,0,1,1,.74,7.42,7.42,0,0,0,1.19.9,20.55,20.55,0,0,0,6.09,2.23c.9.2,1.83.34,2.73.49a23,23,0,0,1,5.78,1.44c.73.33,1.44.74,2.13,1.13a22.72,22.72,0,0,0,2.07,1.12,15.09,15.09,0,0,0,6.17,1.31c.3,0,.59,0,.89,0a.43.43,0,0,0,.22.06h0a8.28,8.28,0,0,0,2.14-.42,11.29,11.29,0,0,0,1.91-.65.45.45,0,0,0,.24-.33l.84-.41,2.17-1c6.05-2.89,12.32-5.88,17.64-10,.78-.61,1.55-1.25,2.29-1.88,1.08-.91,2.19-1.85,3.36-2.65a42.69,42.69,0,0,1,5.26-2.82c4.26-2.05,8.94-4.3,11-8.09a.43.43,0,0,0,.28-.28c.06-.24.11-.47.17-.71a8.78,8.78,0,0,0,.53-2.62,71.27,71.27,0,0,0,.51-13,67.14,67.14,0,0,1,.63-13.74,70.21,70.21,0,0,1,3-10.37,60.18,60.18,0,0,0,3.41-12.78c.11-1,.28-2,.45-2.91a24.75,24.75,0,0,0,.55-5.81c-.07-1.28-.28-2.62-.48-3.92-.41-2.66-.84-5.41-.15-7.84a53.53,53.53,0,0,1,4.89-12.12A27.64,27.64,0,0,1,136,141.66c4-2.15,8.55-3,13.07-3.6a47.58,47.58,0,0,1,7.32.62c1.69.23,3.45.46,5.14.56.44,0,.89,0,1.32,0a19,19,0,0,0,11.25-3.49v1.38a.46.46,0,0,0,.46.46.45.45,0,0,0,.46-.46V118.6a22,22,0,0,0,15.13,6.55h.71a21.85,21.85,0,0,0,13.36-4.92v16.94a.45.45,0,0,0,.46.46.46.46,0,0,0,.46-.46v-2.33c4.24,4.06,10.69,4.65,16.5,4.68,2.2,0,4.45-.09,6.62-.19,2-.08,4-.17,6-.18a14.64,14.64,0,0,1,3.83.36l.12,0s.05,0,.08,0a25.05,25.05,0,0,1,16.1,13l.11.19.07.16s0,.06.07.09a54.29,54.29,0,0,1,4.64,11.68c.7,2.43.27,5.18-.14,7.84-.2,1.3-.41,2.64-.49,3.92a25.43,25.43,0,0,0,.56,5.82c.17,1,.34,1.92.45,2.9a59,59,0,0,0,3.41,12.78,71.81,71.81,0,0,1,3,10.37,67.13,67.13,0,0,1,.62,13.74,72.17,72.17,0,0,0,.51,13,8.71,8.71,0,0,0,.54,2.61c.06.24.1.48.17.72a.43.43,0,0,0,.28.28c2,3.79,6.7,6,11,8.09a42.5,42.5,0,0,1,5.25,2.82,41.19,41.19,0,0,1,3.36,2.65c.75.62,1.51,1.27,2.3,1.88,5.32,4.08,11.58,7.07,17.64,10l2.17,1a32.49,32.49,0,0,0,3,1.32,11.43,11.43,0,0,0,3.05.7h0a.45.45,0,0,0,.19-.05h.18a14.32,14.32,0,0,0,5.94-1.5c.72-.33,1.41-.73,2.08-1.12s1.4-.8,2.13-1.13a22.89,22.89,0,0,1,5.78-1.44c.9-.15,1.82-.29,2.73-.49a19.31,19.31,0,0,0,7.29-3c.44-.3.85-.58,1.29-.82,2-1.09,4.28-1.17,6.71-1.24.91,0,1.84-.06,2.75-.15l.81-.09a8.14,8.14,0,0,1,3.66.11,2,2,0,0,1,1.18.95,1.39,1.39,0,0,1-.58,1.29,1.59,1.59,0,0,0-.9-.35,1.81,1.81,0,0,0-1.49.77,3.44,3.44,0,0,0-.53,1.37c-.05.2-.07.39-.1.58a.58.58,0,0,0-.12.1,5.77,5.77,0,0,1-3.23,1.46,12.35,12.35,0,0,0-3.78,1.11,6.94,6.94,0,0,0-2.65,2.29,5.43,5.43,0,0,0-.86-1.21.46.46,0,1,0-.66.64,4.64,4.64,0,0,1,.86,1.28,10.68,10.68,0,0,1,.45,1.35c.64,2.26,1.45,5.48,1.92,8.07-.46-.12-.92-.24-1.39-.34s-1.21-.24-1.79-.33a11.69,11.69,0,0,1-3.47-.91,31.19,31.19,0,0,1-4.39-2.86,31.11,31.11,0,0,0-4.55-2.95.46.46,0,0,0-.4.83,29.61,29.61,0,0,1,4.4,2.86,31.4,31.4,0,0,0,4.53,2.94,12.31,12.31,0,0,0,3.74,1c.57.09,1.15.18,1.73.31a30.05,30.05,0,0,1,5.5,1.82l.52.23c.55.25,1.12.49,1.71.69a.47.47,0,0,0,.42.41c2.65.16,4.78.38,6.84.6a86.14,86.14,0,0,0,10.65.62h.28a13,13,0,0,1,1.74.14,12.83,12.83,0,0,0,1.86.14,3.58,3.58,0,0,1,2.54.65C378.7,282.51,378.73,283.49,378.42,284.82Z" style="fill:url(#Degradado_sin_nombre_7-23)"/><path d="M324.12,268.61a9.16,9.16,0,0,0-6.28,3,.47.47,0,0,0,0,.66.51.51,0,0,0,.31.11.46.46,0,0,0,.34-.15,8.2,8.2,0,0,1,5.64-2.71.46.46,0,0,0,.43-.49A.42.42,0,0,0,324.12,268.61Z" style="fill:url(#Degradado_sin_nombre_7-24)"/><path d="M262.8,243.46a8.38,8.38,0,0,0-6.63,4.84.45.45,0,0,0,.23.6.43.43,0,0,0,.19,0,.45.45,0,0,0,.42-.27,7.47,7.47,0,0,1,5.89-4.3.46.46,0,0,0,.41-.51A.46.46,0,0,0,262.8,243.46Z" style="fill:url(#Degradado_sin_nombre_7-25)"/><path d="M191,222.7a.46.46,0,0,0-.46.46v33.2a.45.45,0,0,0,.46.46.46.46,0,0,0,.46-.46v-33.2A.47.47,0,0,0,191,222.7Z" style="fill:url(#Degradado_sin_nombre_7-26)"/></g></g></g></svg>