<svg id="Layer_1" data-name="Layer 1" xmlns="http://www.w3.org/2000/svg" viewBox="0 0 1078.56 1078.19">
    <title>MulaDhara</title>
    <circle cx="539.21" cy="538.92" r="367" style="fill:#fff;stroke:#000;stroke-miterlimit:10" />
    <circle cx="539.21" cy="538.92" r="377.32" style="fill:#fff;stroke:#000;stroke-miterlimit:10" />
    <circle cx="539.71" cy="538.92" r="319" style="fill:none;stroke:#000;stroke-miterlimit:10" />
    <circle cx="539.71" cy="538.92" r="310" style="fill:none;stroke:#000;stroke-miterlimit:10" />
    <circle cx="539.25" cy="539.42" r="176.23" style="fill:none;stroke:#000;stroke-miterlimit:10;stroke-width:3px" />
    <path d="M1084.3,415.21c51.71-51.71-124-97.61-124-126.1,0,28.49-177.81,72.81-124.52,126.1"
        transform="translate(-420.79 -0.58)" style="fill:none;stroke:#000;stroke-miterlimit:10;stroke-width:3px" />
    <path d="M1210.71,540c-28.49,0-72.81-177.82-126.1-124.53" transform="translate(-420.79 -0.58)"
        style="fill:none;stroke:#000;stroke-miterlimit:10;stroke-width:3px" />
    <path d="M1084.61,664c51.7,51.71,97.61-124,126.1-124" transform="translate(-420.79 -0.58)"
        style="fill:none;stroke:#000;stroke-miterlimit:10;stroke-width:3px" />
    <path d="M709.45,539.52c28.49,0,72.82,177.81,126.11,124.52" transform="translate(-420.79 -0.58)"
        style="fill:none;stroke:#000;stroke-miterlimit:10;stroke-width:3px" />
    <path d="M835.56,415.52c-51.71-51.71-97.62,124-126.11,124" transform="translate(-420.79 -0.58)"
        style="fill:none;stroke:#000;stroke-miterlimit:10;stroke-width:3px" />
    <path d="M959.33,790.89c0-28.49,177.82-72.81,124.53-126.1" transform="translate(-420.79 -0.58)"
        style="fill:none;stroke:#000;stroke-miterlimit:10;stroke-width:3px" />
    <path d="M835.34,664.79c-51.71,51.71,124,97.61,124,126.1" transform="translate(-420.79 -0.58)"
        style="fill:none;stroke:#000;stroke-miterlimit:10;stroke-width:3px" />
    <rect x="414.73" y="414.89" width="249.05" height="249.05"
        style="fill:red;stroke:#000;stroke-miterlimit:10;stroke-width:3px" />
    <path
        d="M1369.14,553.11a25,25,0,0,0-1.32-48.48,25,25,0,0,0-7-48,25,25,0,0,0-12.67-46.82,25,25,0,0,0-18.12-45,25,25,0,0,0-23.32-42.53,25,25,0,0,0-28.17-39.47A25,25,0,0,0,1245.85,247a25,25,0,0,0-36.66-31.74A25,25,0,0,0,1169,188.06a25,25,0,0,0-43.09-22.25,25,25,0,0,0-45.42-17,25,25,0,0,0-47.12-11.51,25,25,0,0,0-48.14-5.85,25,25,0,0,0-48.49-.11A25,25,0,0,0,888.6,137a25,25,0,0,0-47.17,11.28A25,25,0,0,0,795.93,165a25,25,0,0,0-43.2,22,25,25,0,0,0-40.29,27,25,25,0,0,0-36.81,31.57,25,25,0,0,0-32.82,35.71,25,25,0,0,0-28.36,39.33,25,25,0,0,0-23.52,42.42A25,25,0,0,0,572.6,408a25,25,0,0,0-12.9,46.75,25,25,0,0,0-7.27,47.95,25,25,0,0,0-1.56,48.47,25,25,0,0,0,4.2,48.32A25,25,0,0,0,564.94,647a25,25,0,0,0,15.42,46,25,25,0,0,0,20.76,43.83,25,25,0,0,0,25.79,41.07,25,25,0,0,0,30.46,37.73,25,25,0,0,0,34.72,33.86,25,25,0,0,0,38.48,29.52,25,25,0,0,0,41.69,24.76,25,25,0,0,0,44.34,19.66A25,25,0,0,0,863,937.63a25,25,0,0,0,47.71,8.7,25,25,0,0,0,48.4,3,25,25,0,0,0,48.42-2.75,25,25,0,0,0,47.75-8.47A25,25,0,0,0,1101.65,924a25,25,0,0,0,44.42-19.44A25,25,0,0,0,1187.89,880a25,25,0,0,0,38.62-29.33,25,25,0,0,0,34.88-33.7A25,25,0,0,0,1292,779.42a25,25,0,0,0,26-40.95,25,25,0,0,0,21-43.73,25,25,0,0,0,15.64-45.91,25,25,0,0,0,10.1-47.43,25,25,0,0,0,4.42-48.29ZM960.5,926.5c-213.73,0-387-173.27-387-387s173.27-387,387-387,387,173.27,387,387S1174.23,926.5,960.5,926.5Z"
        transform="translate(-420.79 -0.58)" style="fill:#d3000f" />
    <line x1="414.71" y1="437.92" x2="663.71" y2="439.92"
        style="fill:none;stroke:#000;stroke-miterlimit:10;stroke-width:3px" />
    <line x1="663.71" y1="439.92" x2="539.71" y2="663.92"
        style="fill:none;stroke:#000;stroke-miterlimit:10;stroke-width:3px" />
    <line x1="414.71" y1="437.92" x2="539.71" y2="663.92"
        style="fill:none;stroke:#000;stroke-miterlimit:10;stroke-width:3px" />
    <path
        d="M1497.29,490.15a31.55,31.55,0,0,0-26.55-28.37A31.56,31.56,0,0,0,1458,401.92,31.55,31.55,0,0,0,1438.25,344a31.55,31.55,0,0,0-26.45-55.19A31.55,31.55,0,0,0,1379,237.13a31.56,31.56,0,0,0-38.68-47.44,31.55,31.55,0,0,0-44-42.52,31.55,31.55,0,0,0-48.73-37,31.55,31.55,0,0,0-52.77-31,31.55,31.55,0,0,0-56.07-24.54,31.55,31.55,0,0,0-58.58-17.73,31.55,31.55,0,0,0-60.26-10.69,31.55,31.55,0,0,0-61.1-3.48,31.56,31.56,0,0,0-61.09,3.77,31.56,31.56,0,0,0-60.21,11,31.56,31.56,0,0,0-58.49,18,31.55,31.55,0,0,0-56,24.8,31.55,31.55,0,0,0-52.62,31.25,31.56,31.56,0,0,0-48.56,37.26,31.55,31.55,0,0,0-43.81,42.73,31.56,31.56,0,0,0-38.45,47.62A31.55,31.55,0,0,0,507.07,291a31.55,31.55,0,0,0-26.19,55.31,31.56,31.56,0,0,0-19.46,58A31.55,31.55,0,0,0,449,464.22a31.55,31.55,0,0,0-5.29,61,31.55,31.55,0,0,0,2,61.17,31.55,31.55,0,0,0,9.18,60.51,31.56,31.56,0,0,0,16.27,59,31.56,31.56,0,0,0,23.14,56.66,31.56,31.56,0,0,0,29.67,53.53,31.56,31.56,0,0,0,35.8,49.64,31.55,31.55,0,0,0,41.42,45,31.56,31.56,0,0,0,46.46,39.85,31.55,31.55,0,0,0,50.84,34.07,31.55,31.55,0,0,0,54.51,27.81,31.56,31.56,0,0,0,57.43,21.18,31.55,31.55,0,0,0,59.52,14.23,31.55,31.55,0,0,0,60.79,7.09,31.55,31.55,0,0,0,61.2-.14,31.56,31.56,0,0,0,60.76-7.39,31.55,31.55,0,0,0,59.45-14.51,31.56,31.56,0,0,0,57.32-21.45,31.56,31.56,0,0,0,54.39-28.08,31.55,31.55,0,0,0,50.67-34.31A31.55,31.55,0,0,0,1320.72,909a31.55,31.55,0,0,0,41.2-45.26A31.55,31.55,0,0,0,1397.48,814a31.55,31.55,0,0,0,29.42-53.67,31.55,31.55,0,0,0,22.87-56.77,31.55,31.55,0,0,0,16-59.07,31.55,31.55,0,0,0,8.89-60.55,31.56,31.56,0,0,0,1.67-61.18A31.56,31.56,0,0,0,1497.29,490.15ZM1449,539.9c0,269.73-218.67,488.39-488.4,488.39S472.22,809.63,472.22,539.9,690.88,51.51,960.61,51.51,1449,270.17,1449,539.9Z"
        transform="translate(-420.79 -0.58)" style="fill:#d3000f" />
</svg>